<svg width="48" height="48" viewBox="0 0 48 48" fill="none" xmlns="http://www.w3.org/2000/svg">
<circle cx="24" cy="24" r="24" fill="#A4FDCD"/>
<circle cx="24" cy="24" r="24" fill="url(#paint0_radial_668_19725)"/>
<mask id="mask0_668_19725" style="mask-type:alpha" maskUnits="userSpaceOnUse" x="0" y="0" width="48" height="48">
<circle cx="24" cy="24" r="24" fill="#C4C4C4"/>
</mask>
<g mask="url(#mask0_668_19725)">
<path d="M36.3082 37.8957L29.8927 36.0088L25.0397 39.2441C24.4099 39.664 23.5893 39.664 22.9595 39.2441L18.1065 36.0088L11.691 37.8957C10.095 38.3651 8.99902 39.8298 8.99902 41.4934V46.1877C8.99902 47.2233 9.83855 48.0627 10.8741 48.0627H37.125C38.1606 48.0627 39 47.2232 39 46.1877V41.4934C39.0002 39.8298 37.9043 38.365 36.3082 37.8957Z" fill="url(#paint1_linear_668_19725)"/>
<path d="M30.8747 30.5625H17.1242C15.053 30.5625 13.374 32.2415 13.374 34.3127C13.374 38.4549 16.732 41.8129 20.8743 41.8129H27.1244C31.2667 41.8129 34.6247 38.4549 34.6247 34.3127C34.6248 32.2415 32.9458 30.5625 30.8747 30.5625Z" fill="url(#paint2_linear_668_19725)"/>
<path d="M30.7085 32.4375C32.069 32.4375 32.6032 34.202 31.4713 34.9567L25.0397 39.2444C24.4099 39.6643 23.5893 39.6643 22.9595 39.2444L16.5279 34.9567C15.3959 34.202 15.9302 32.4375 17.2907 32.4375H30.7085Z" fill="url(#paint3_linear_668_19725)"/>
<path d="M18.1064 36.0091L22.9594 39.2444C23.5893 39.6643 24.4098 39.6643 25.0396 39.2444L29.8926 36.0091H29.8927L29.7207 35.9585C28.9228 35.7238 28.3748 34.9914 28.3748 34.1596V31.1875H19.6243V34.1596C19.6243 34.9914 19.0764 35.7238 18.2784 35.9585L18.1064 36.0091Z" fill="url(#paint4_linear_668_19725)"/>
<path d="M19.624 32.5823C20.9371 33.2837 22.4262 33.6876 23.9992 33.6876C25.5721 33.6876 27.0612 33.2837 28.3743 32.5823V31.1875H19.624V32.5823Z" fill="url(#paint5_linear_668_19725)"/>
<path d="M32.4373 21.8122H32.1247V14.312L15.8741 15.5621V21.8122H15.5616C14.6986 21.8122 13.999 22.5118 13.999 23.3748C13.999 24.2378 14.6986 24.9374 15.5616 24.9374H15.9057C16.226 29.1318 19.723 32.4376 23.9995 32.4376C28.276 32.4376 31.773 29.1318 32.0932 24.9374H32.4373C33.3003 24.9374 33.9999 24.2378 33.9999 23.3748C33.9998 22.5118 33.3002 21.8122 32.4373 21.8122Z" fill="url(#paint6_linear_668_19725)"/>
<path d="M29.6245 15.562V14.937L15.874 15.562V21.8122H15.6507C14.8334 21.8122 14.0885 22.4002 14.0071 23.2135C13.9134 24.1488 14.6454 24.9373 15.5616 24.9373H15.9057C16.2258 29.1318 19.7229 32.4376 23.9993 32.4376C24.4268 32.4376 24.8438 32.396 25.2533 32.3323C21.359 31.7313 18.3741 28.375 18.3741 24.3124V19.3122C18.3741 17.9314 19.4934 16.8121 20.8742 16.8121H28.3745C29.0648 16.8121 29.6245 16.2524 29.6245 15.562Z" fill="url(#paint7_linear_668_19725)"/>
<path d="M20.25 23.687C19.9045 23.687 19.625 23.4071 19.625 23.062V22.437C19.625 22.0919 19.9045 21.812 20.25 21.812C20.5954 21.812 20.875 22.0919 20.875 22.437V23.062C20.8751 23.4071 20.5955 23.687 20.25 23.687Z" fill="url(#paint8_radial_668_19725)"/>
<path d="M27.75 23.687C27.4045 23.687 27.125 23.4071 27.125 23.062V22.437C27.125 22.0919 27.4045 21.812 27.75 21.812C28.0954 21.812 28.375 22.0919 28.375 22.437V23.062C28.375 23.4071 28.0954 23.687 27.75 23.687Z" fill="url(#paint9_radial_668_19725)"/>
<path d="M19.6234 21.187C19.3286 21.187 19.0661 20.9777 19.01 20.6771C18.9459 20.338 19.1693 20.0114 19.5087 19.9477L20.7587 19.7132C21.1036 19.6485 21.4253 19.8735 21.4881 20.2125C21.5522 20.5516 21.3288 20.8782 20.9894 20.9419L19.7394 21.1763C19.7003 21.1836 19.6613 21.187 19.6234 21.187Z" fill="url(#paint10_linear_668_19725)"/>
<path d="M28.3747 21.1869C28.3368 21.1869 28.2977 21.1836 28.2587 21.1763L27.0087 20.9418C26.6693 20.878 26.4459 20.5515 26.51 20.2125C26.5734 19.8734 26.8957 19.6488 27.2394 19.7132L28.4894 19.9476C28.8288 20.0114 29.0522 20.3379 28.9881 20.677C28.932 20.9775 28.6695 21.1869 28.3747 21.1869Z" fill="url(#paint11_linear_668_19725)"/>
<path d="M21.4992 9.93652C18.3925 9.93652 15.874 12.455 15.874 15.5617H28.9995C31.8685 15.5617 34.2358 13.4139 34.5812 10.6385C34.6275 10.2662 34.3315 9.93652 33.9564 9.93652C33.9564 9.93652 21.4992 9.93652 21.4992 9.93652Z" fill="url(#paint12_linear_668_19725)"/>
<path d="M33.9565 9.93652H22.9674C22.088 10.6473 21.4265 11.6168 21.1002 12.7296C20.8681 13.5214 21.4836 14.3117 22.3087 14.3117H32.5268C33.6334 13.4184 34.398 12.1184 34.5818 10.6352C34.6277 10.264 34.3304 9.93652 33.9565 9.93652Z" fill="url(#paint13_linear_668_19725)"/>
<path d="M21.4991 48.0627H20.249V40.5625C20.249 40.2173 20.5289 39.9375 20.874 39.9375C21.2192 39.9375 21.499 40.2173 21.499 40.5625L21.4991 48.0627Z" fill="url(#paint14_linear_668_19725)"/>
<path d="M27.7491 48.0627H26.499V40.5625C26.499 40.2173 26.7789 39.9375 27.124 39.9375C27.4692 39.9375 27.749 40.2173 27.749 40.5625L27.7491 48.0627Z" fill="url(#paint15_linear_668_19725)"/>
<path d="M24.0001 28.0624C23.0626 28.0624 22.1971 27.7615 21.6862 27.2574C21.4402 27.0151 21.4378 26.6192 21.6801 26.3736C21.9224 26.1279 22.3191 26.1251 22.5639 26.3675C22.772 26.5728 23.2732 26.8124 24.0001 26.8124C24.727 26.8124 25.2282 26.5728 25.4363 26.3675C25.6811 26.1251 26.0778 26.1279 26.3202 26.3736C26.5625 26.6192 26.56 27.0151 26.314 27.2574C25.8032 27.7615 24.9376 28.0624 24.0001 28.0624Z" fill="#A06E50"/>
</g>
<defs>
<radialGradient id="paint0_radial_668_19725" cx="0" cy="0" r="1" gradientUnits="userSpaceOnUse" gradientTransform="translate(7.84 7.52) rotate(51.2813) scale(48.6013)">
<stop offset="0.360011" stop-color="#A4FDCD"/>
<stop offset="1" stop-color="#A6E4FF"/>
</radialGradient>
<linearGradient id="paint1_linear_668_19725" x1="11" y1="38.4998" x2="39.5" y2="44.9998" gradientUnits="userSpaceOnUse">
<stop stop-color="#C4EB99"/>
<stop offset="1" stop-color="#D1FAA3"/>
</linearGradient>
<linearGradient id="paint2_linear_668_19725" x1="14.4998" y1="32" x2="33.9998" y2="40" gradientUnits="userSpaceOnUse">
<stop stop-color="#ACE694"/>
<stop offset="1" stop-color="#B4F09B"/>
</linearGradient>
<linearGradient id="paint3_linear_668_19725" x1="17" y1="33" x2="31.5" y2="36.5" gradientUnits="userSpaceOnUse">
<stop stop-color="#5DCC94"/>
<stop offset="1" stop-color="#69E8A9"/>
</linearGradient>
<linearGradient id="paint4_linear_668_19725" x1="19.9999" y1="32" x2="28.4999" y2="39.5" gradientUnits="userSpaceOnUse">
<stop stop-color="#C98D69"/>
<stop offset="1" stop-color="#D49774"/>
</linearGradient>
<linearGradient id="paint5_linear_668_19725" x1="19.9995" y1="32" x2="28.4995" y2="34" gradientUnits="userSpaceOnUse">
<stop stop-color="#A06E50"/>
<stop offset="1" stop-color="#A06E50" stop-opacity="0"/>
</linearGradient>
<linearGradient id="paint6_linear_668_19725" x1="15.9998" y1="15.5002" x2="30.4998" y2="31.0002" gradientUnits="userSpaceOnUse">
<stop offset="0.307876" stop-color="#CD916E"/>
<stop offset="1" stop-color="#EBB798"/>
</linearGradient>
<linearGradient id="paint7_linear_668_19725" x1="15.4997" y1="14.5" x2="21.8118" y2="32.4376" gradientUnits="userSpaceOnUse">
<stop stop-color="#B67F5F"/>
<stop offset="1" stop-color="#B67F5F" stop-opacity="0"/>
</linearGradient>
<radialGradient id="paint8_radial_668_19725" cx="0" cy="0" r="1" gradientUnits="userSpaceOnUse" gradientTransform="translate(20.0011 22.3728) rotate(71.565) scale(1.58101 1.05401)">
<stop stop-color="#040404"/>
<stop offset="1" stop-color="#767676"/>
</radialGradient>
<radialGradient id="paint9_radial_668_19725" cx="0" cy="0" r="1" gradientUnits="userSpaceOnUse" gradientTransform="translate(27.5011 22.3728) rotate(71.565) scale(1.58101 1.05401)">
<stop stop-color="#040404"/>
<stop offset="1" stop-color="#767676"/>
</radialGradient>
<linearGradient id="paint10_linear_668_19725" x1="20.2491" y1="19.7021" x2="20.2491" y2="21.187" gradientUnits="userSpaceOnUse">
<stop stop-color="#4C3D45"/>
<stop offset="1" stop-color="#6B5560" stop-opacity="0.76"/>
</linearGradient>
<linearGradient id="paint11_linear_668_19725" x1="27.749" y1="19.7021" x2="27.749" y2="21.1869" gradientUnits="userSpaceOnUse">
<stop stop-color="#4C3D45"/>
<stop offset="1" stop-color="#6B5560" stop-opacity="0.76"/>
</linearGradient>
<linearGradient id="paint12_linear_668_19725" x1="16.3238" y1="13.7861" x2="33.7398" y2="7.80416" gradientUnits="userSpaceOnUse">
<stop stop-color="#4D3D45"/>
<stop offset="1" stop-color="#78606C"/>
</linearGradient>
<linearGradient id="paint13_linear_668_19725" x1="21.2275" y1="13.401" x2="33.6102" y2="8.58883" gradientUnits="userSpaceOnUse">
<stop stop-color="#8A6F7D"/>
<stop offset="1" stop-color="#6E5A64" stop-opacity="0"/>
</linearGradient>
<linearGradient id="paint14_linear_668_19725" x1="20.4996" y1="43.4995" x2="21.4996" y2="43.4995" gradientUnits="userSpaceOnUse">
<stop stop-color="#FFD164"/>
<stop offset="1" stop-color="#FFBE64"/>
</linearGradient>
<linearGradient id="paint15_linear_668_19725" x1="26.7496" y1="43.4995" x2="27.7496" y2="43.4995" gradientUnits="userSpaceOnUse">
<stop stop-color="#FFD164"/>
<stop offset="1" stop-color="#FFBE64"/>
</linearGradient>
</defs>
</svg>
