<svg width="48" height="48" viewBox="0 0 48 48" fill="none" xmlns="http://www.w3.org/2000/svg">
<g clip-path="url(#clip0_848_57454)">
<circle cx="24.001" cy="24" r="24" fill="#FFDCCC"/>
<circle cx="24.001" cy="24" r="24" fill="url(#paint0_radial_848_57454)"/>
<circle cx="24.001" cy="24" r="24" fill="url(#paint1_radial_848_57454)"/>
<mask id="mask0_848_57454" style="mask-type:alpha" maskUnits="userSpaceOnUse" x="0" y="0" width="49" height="48">
<circle cx="24.001" cy="24" r="24" fill="#C4C4C4"/>
</mask>
<g mask="url(#mask0_848_57454)">
<path d="M35.5644 38.4873L29.2778 36.2686H18.725L12.4385 38.4873C10.9783 39.0027 10.002 40.3828 10.002 41.9312V46.0427C10.002 47.0512 10.8195 47.8687 11.828 47.8687H36.1749C37.1834 47.8687 38.0009 47.0512 38.0009 46.0427V41.9312C38.0009 40.3827 37.0245 39.0027 35.5644 38.4873Z" fill="url(#paint2_linear_848_57454)"/>
<path d="M27.0447 36.3042H20.958V47.8688H27.0447V36.3042Z" fill="url(#paint3_linear_848_57454)"/>
<path d="M20.958 38.8847C21.7919 39.5538 22.849 39.9562 24.0014 39.9562C25.1537 39.9562 26.2108 39.5538 27.0447 38.8847V36.3042H20.958V38.8847Z" fill="url(#paint4_linear_848_57454)"/>
<path d="M34.9486 29.1303C34.6472 28.368 34.3485 27.1565 34.3485 25.3477V20.4782C34.3486 14.7635 29.7158 10.1309 24.0011 10.1309C18.2864 10.1309 13.6537 14.7635 13.6537 20.4783V25.3477C13.6537 27.1565 13.3551 28.3681 13.0536 29.1304C12.8012 29.7686 13.1469 30.4888 13.7971 30.7087C15.246 31.1988 17.6927 31.936 20.3491 32.3472H27.6532C30.3095 31.936 32.7562 31.1988 34.2051 30.7087C34.8554 30.4888 35.2011 29.7685 34.9486 29.1303Z" fill="url(#paint5_linear_848_57454)"/>
<path d="M24.0016 38.7389C21.9846 38.7389 20.3496 37.1038 20.3496 35.0869V30.8262H27.6537V35.0869C27.6536 37.1038 26.0186 38.7389 24.0016 38.7389Z" fill="url(#paint6_linear_848_57454)"/>
<path d="M20.3497 33.1019C21.4692 33.5927 22.7031 33.8695 24.0017 33.8695C25.3003 33.8695 26.5342 33.5927 27.6537 33.1019V30.8262H20.3496L20.3497 33.1019Z" fill="url(#paint7_linear_848_57454)"/>
<path d="M24.0016 32.6522C19.6315 32.6522 16.0889 29.1095 16.0889 24.7394V15.6094H31.9144V24.7395C31.9144 29.1095 28.3717 32.6522 24.0016 32.6522Z" fill="url(#paint8_linear_848_57454)"/>
<path d="M21.245 18.1282C21.3733 18.0262 21.5098 18.0048 21.6015 18.0048C21.6915 18.0048 21.8263 18.0253 21.9578 18.1235C23.5978 19.3475 26.9233 21.3981 31.9144 22.4926V15.6094H16.0889V24.7395C16.0889 29.1095 19.6316 32.6523 24.0016 32.6523C24.4168 32.6523 24.8211 32.6106 25.219 32.5491C21.4284 31.9621 18.5235 28.6946 18.5235 24.7395V21.3085C18.5235 20.4734 18.9546 19.7033 19.6584 19.2539C20.203 18.906 20.739 18.5306 21.245 18.1282Z" fill="url(#paint9_linear_848_57454)"/>
<path d="M20.9578 22.3047H19.7405C19.404 22.3047 19.1318 22.0325 19.1318 21.6961C19.1318 21.3597 19.4041 21.0874 19.7405 21.0874H20.9578C21.2943 21.0874 21.5665 21.3597 21.5665 21.6961C21.5665 22.0325 21.2942 22.3047 20.9578 22.3047Z" fill="url(#paint10_linear_848_57454)"/>
<path d="M28.2616 22.3047H27.0442C26.7077 22.3047 26.4355 22.0325 26.4355 21.6961C26.4355 21.3597 26.7078 21.0874 27.0442 21.0874H28.2616C28.598 21.0874 28.8702 21.3597 28.8702 21.6961C28.8702 22.0325 28.598 22.3047 28.2616 22.3047Z" fill="url(#paint11_linear_848_57454)"/>
<path d="M20.3499 24.7391C20.0134 24.7391 19.7412 24.4668 19.7412 24.1304V23.5218C19.7412 23.1853 20.0135 22.9131 20.3499 22.9131C20.6863 22.9131 20.9585 23.1854 20.9585 23.5218V24.1304C20.9585 24.4668 20.6863 24.7391 20.3499 24.7391Z" fill="url(#paint12_radial_848_57454)"/>
<path d="M27.6536 24.7391C27.3171 24.7391 27.0449 24.4668 27.0449 24.1304V23.5218C27.0449 23.1853 27.3172 22.9131 27.6536 22.9131C27.9901 22.9131 28.2623 23.1854 28.2623 23.5218V24.1304C28.2623 24.4668 27.9901 24.7391 27.6536 24.7391Z" fill="url(#paint13_radial_848_57454)"/>
<path d="M21.9056 26.8672C21.5335 26.8672 21.262 27.2347 21.3841 27.5862C21.7291 28.5799 22.7706 29.3019 24.0017 29.3019C25.2328 29.3019 26.2743 28.5799 26.6193 27.5862C26.7414 27.2346 26.4699 26.8672 26.0978 26.8672H21.9056Z" fill="white"/>
<path d="M22.6862 17.1474C24.4614 18.4725 28.3492 20.8385 34.3492 21.6956V20.7494C34.3492 14.9495 29.603 10.024 23.8041 10.1326C18.1805 10.2379 13.6543 14.8295 13.6543 20.4782V20.8666C14.9526 20.3772 18.0896 19.0819 20.4874 17.1749C21.1273 16.6663 22.031 16.6585 22.6862 17.1474Z" fill="url(#paint14_linear_848_57454)"/>
<path d="M30.3487 35.2446L27.653 33.9731L24.001 47.8692H27.0443L30.4109 40.575C30.5883 40.1906 30.5533 39.7418 30.3184 39.3895L29.479 38.1303L30.6705 36.5417C30.9982 36.1049 30.8424 35.4775 30.3487 35.2446Z" fill="url(#paint15_linear_848_57454)"/>
<path d="M17.6537 35.2446L20.3494 33.9731L24.0014 47.8692H20.9581L17.5915 40.575C17.4141 40.1906 17.4491 39.7418 17.684 39.3895L18.5234 38.1303L17.3319 36.5417C17.0042 36.1049 17.16 35.4775 17.6537 35.2446Z" fill="url(#paint16_linear_848_57454)"/>
<path d="M34.3364 20.0057C34.0892 14.3391 29.3507 10.0288 23.8038 10.1327C22.6624 10.1541 21.5702 10.3685 20.5479 10.7308C22.948 13.8407 27.5285 18.436 34.3364 20.0057Z" fill="url(#paint17_linear_848_57454)"/>
</g>
</g>
<path d="M40.001 47C42.7624 47 45.001 44.7614 45.001 42C45.001 39.2386 42.7624 37 40.001 37C37.2396 37 35.001 39.2386 35.001 42C35.001 44.7614 37.2396 47 40.001 47Z" fill="#31D482" stroke="#F5F7FA" stroke-width="2"/>
<defs>
<radialGradient id="paint0_radial_848_57454" cx="0" cy="0" r="1" gradientUnits="userSpaceOnUse" gradientTransform="translate(2.50098 2.5) rotate(47.9737) scale(54.5206)">
<stop stop-color="#CCFFF3"/>
<stop offset="0.747341" stop-color="#FFDCCC"/>
</radialGradient>
<radialGradient id="paint1_radial_848_57454" cx="0" cy="0" r="1" gradientUnits="userSpaceOnUse" gradientTransform="translate(7.50098 7.5) rotate(48.4166) scale(47.4605)">
<stop offset="0.535317" stop-color="#FFDCCC"/>
<stop offset="1" stop-color="#FFB391"/>
</radialGradient>
<linearGradient id="paint2_linear_848_57454" x1="24.0014" y1="36.2686" x2="24.0014" y2="47.8687" gradientUnits="userSpaceOnUse">
<stop stop-color="#EDEBED"/>
<stop offset="1" stop-color="#FFFDFF"/>
</linearGradient>
<linearGradient id="paint3_linear_848_57454" x1="24.001" y1="38.2702" x2="24.0016" y2="47.8688" gradientUnits="userSpaceOnUse">
<stop stop-color="#8CD3FF"/>
<stop offset="1" stop-color="#CFECFF"/>
</linearGradient>
<linearGradient id="paint4_linear_848_57454" x1="22.2619" y1="38.3737" x2="25.3466" y2="39.4754" gradientUnits="userSpaceOnUse">
<stop stop-color="#73B6E6"/>
<stop offset="1" stop-color="#92CCF5"/>
</linearGradient>
<linearGradient id="paint5_linear_848_57454" x1="24.0007" y1="14.4998" x2="24.0011" y2="32.3472" gradientUnits="userSpaceOnUse">
<stop stop-color="#171215"/>
<stop offset="1" stop-color="#64505A"/>
</linearGradient>
<linearGradient id="paint6_linear_848_57454" x1="21.0012" y1="32.0002" x2="27.0012" y2="38.0002" gradientUnits="userSpaceOnUse">
<stop stop-color="#E3AA75"/>
<stop offset="1" stop-color="#FCBD82"/>
</linearGradient>
<linearGradient id="paint7_linear_848_57454" x1="20.5012" y1="32.5002" x2="27.5012" y2="33.5002" gradientUnits="userSpaceOnUse">
<stop stop-color="#D29B6E"/>
<stop offset="1" stop-color="#D29B6E" stop-opacity="0"/>
</linearGradient>
<linearGradient id="paint8_linear_848_57454" x1="16.0012" y1="18.0002" x2="29.5012" y2="31.5002" gradientUnits="userSpaceOnUse">
<stop stop-color="#F5AE67"/>
<stop offset="1" stop-color="#F7C797"/>
</linearGradient>
<linearGradient id="paint9_linear_848_57454" x1="17.5012" y1="18.0002" x2="21.5012" y2="32.0002" gradientUnits="userSpaceOnUse">
<stop stop-color="#DEA672"/>
<stop offset="1" stop-color="#E3AA75" stop-opacity="0"/>
</linearGradient>
<linearGradient id="paint10_linear_848_57454" x1="20.0007" y1="21.0002" x2="20.3492" y2="22.3047" gradientUnits="userSpaceOnUse">
<stop stop-color="#54454D"/>
<stop offset="1" stop-color="#54454D" stop-opacity="0.56"/>
</linearGradient>
<linearGradient id="paint11_linear_848_57454" x1="27.3044" y1="21.0002" x2="27.6529" y2="22.3047" gradientUnits="userSpaceOnUse">
<stop stop-color="#54454D"/>
<stop offset="1" stop-color="#54454D" stop-opacity="0.56"/>
</linearGradient>
<radialGradient id="paint12_radial_848_57454" cx="0" cy="0" r="1" gradientUnits="userSpaceOnUse" gradientTransform="translate(20.1075 23.4592) rotate(71.565) scale(1.53973 1.02649)">
<stop stop-color="#040404"/>
<stop offset="1" stop-color="#767676"/>
</radialGradient>
<radialGradient id="paint13_radial_848_57454" cx="0" cy="0" r="1" gradientUnits="userSpaceOnUse" gradientTransform="translate(27.4112 23.4592) rotate(71.5651) scale(1.53973 1.02649)">
<stop stop-color="#040404"/>
<stop offset="1" stop-color="#767676"/>
</radialGradient>
<linearGradient id="paint14_linear_848_57454" x1="17.0014" y1="12.4998" x2="33.5014" y2="21.4998" gradientUnits="userSpaceOnUse">
<stop stop-color="#4A3D43"/>
<stop offset="1" stop-color="#6E5A64"/>
</linearGradient>
<linearGradient id="paint15_linear_848_57454" x1="29.0005" y1="34.5002" x2="25.5005" y2="48.0002" gradientUnits="userSpaceOnUse">
<stop stop-color="#D3D1D4"/>
<stop offset="1" stop-color="#ECEAED"/>
</linearGradient>
<linearGradient id="paint16_linear_848_57454" x1="19.001" y1="34.5002" x2="22.501" y2="48.0002" gradientUnits="userSpaceOnUse">
<stop stop-color="#D3D1D4"/>
<stop offset="1" stop-color="#ECEAED"/>
</linearGradient>
<linearGradient id="paint17_linear_848_57454" x1="29.5011" y1="11.9998" x2="26.0011" y2="16.9998" gradientUnits="userSpaceOnUse">
<stop stop-color="#84737B"/>
<stop offset="1" stop-color="#84737B" stop-opacity="0"/>
</linearGradient>
<clipPath id="clip0_848_57454">
<rect width="48" height="48" fill="white" transform="translate(0.00195312)"/>
</clipPath>
</defs>
</svg>
