<svg width="48" height="48" viewBox="0 0 48 48" fill="none" xmlns="http://www.w3.org/2000/svg">
<circle cx="24.002" cy="24" r="24" fill="#FFD080"/>
<circle cx="24.002" cy="24" r="24" fill="url(#paint0_radial_668_19716)"/>
<mask id="mask0_668_19716" style="mask-type:alpha" maskUnits="userSpaceOnUse" x="0" y="0" width="49" height="48">
<circle cx="24.002" cy="24" r="24" fill="#C4C4C4"/>
</mask>
<g mask="url(#mask0_668_19716)">
<path d="M36.3102 37.4266L29.7232 35.4893H18.2817L11.6947 37.4266C10.0988 37.8961 9.00293 39.3606 9.00293 41.0241V46.4993C9.00293 47.5348 9.84238 48.3743 10.8779 48.3743H37.127C38.1625 48.3743 39.0019 47.5348 39.0019 46.4993V41.0241C39.0019 39.3606 37.906 37.896 36.3102 37.4266Z" fill="url(#paint1_linear_668_19716)"/>
<path d="M27.1276 48.3746H20.8779L19.6279 35.875H28.3776L27.1276 48.3746Z" fill="url(#paint2_linear_668_19716)"/>
<path d="M19.6279 35.875L19.815 37.7458C20.845 38.8965 22.337 39.6249 24.0028 39.6249C25.6686 39.6249 27.1607 38.8965 28.1906 37.7458L28.3777 35.875H19.6279Z" fill="url(#paint3_linear_668_19716)"/>
<path d="M24.0028 38.3747C21.5866 38.3747 19.6279 36.416 19.6279 33.9999V29.625H28.3776V33.9999C28.3776 36.416 26.419 38.3747 24.0028 38.3747Z" fill="url(#paint4_linear_668_19716)"/>
<path d="M19.6279 32.2693C20.941 32.9706 22.4299 33.3749 24.0027 33.3749C25.5756 33.3749 27.0646 32.9706 28.3776 32.2693V29.625H19.6279V32.2693Z" fill="url(#paint5_linear_668_19716)"/>
<path d="M32.4398 21.5007H32.1273V15.251H15.8779V21.5008H15.5654C14.706 21.5008 14.0029 22.2039 14.0029 23.0632C14.0029 23.9226 14.706 24.6257 15.5654 24.6257H15.9094C16.2295 28.8198 19.7264 32.1254 24.0026 32.1254C28.2788 32.1254 31.7756 28.8198 32.0958 24.6257H32.4398C33.2992 24.6257 34.0023 23.9226 34.0023 23.0632C34.0023 22.2039 33.2992 21.5007 32.4398 21.5007Z" fill="url(#paint6_linear_668_19716)"/>
<path d="M20.2529 23.4296C19.9074 23.4296 19.6279 23.1497 19.6279 22.8046V22.1797C19.6279 21.8346 19.9075 21.5547 20.2529 21.5547C20.5983 21.5547 20.8779 21.8346 20.8779 22.1797V22.8046C20.8779 23.1498 20.5983 23.4296 20.2529 23.4296Z" fill="url(#paint7_radial_668_19716)"/>
<path d="M27.7529 23.4296C27.4074 23.4296 27.1279 23.1497 27.1279 22.8046V22.1797C27.1279 21.8346 27.4075 21.5547 27.7529 21.5547C28.0984 21.5547 28.3779 21.8346 28.3779 22.1797V22.8046C28.3779 23.1498 28.0984 23.4296 27.7529 23.4296Z" fill="url(#paint8_radial_668_19716)"/>
<path d="M20.8779 20.8749H19.6279C19.2824 20.8749 19.0029 20.5951 19.0029 20.25C19.0029 19.9049 19.2825 19.625 19.6279 19.625H20.8779C21.2233 19.625 21.5028 19.9049 21.5028 20.25C21.5028 20.5951 21.2233 20.8749 20.8779 20.8749Z" fill="url(#paint9_linear_668_19716)"/>
<path d="M28.3779 20.8749H27.1279C26.7824 20.8749 26.5029 20.5951 26.5029 20.25C26.5029 19.9049 26.7825 19.625 27.1279 19.625H28.3779C28.7233 19.625 29.0028 19.9049 29.0028 20.25C29.0028 20.5951 28.7233 20.8749 28.3779 20.8749Z" fill="url(#paint10_linear_668_19716)"/>
<path d="M15.8779 15.251V21.5008H15.6202C14.9087 21.5008 14.244 21.9517 14.0597 22.639C13.781 23.6784 14.5679 24.6257 15.5654 24.6257H15.9094C16.2295 28.8199 19.7264 32.1255 24.0026 32.1255C24.4301 32.1255 24.847 32.0839 25.2565 32.0202C21.3624 31.4192 18.3777 28.0632 18.3777 24.0008V20.2028C18.3777 18.7356 19.617 17.5412 21.0793 17.6616C21.4885 17.6954 21.9183 17.7134 22.3699 17.7134C24.1822 17.7134 26.2057 17.4242 28.3844 16.8538C29.3363 16.6045 30.1551 16.0244 30.7144 15.251H15.8779Z" fill="url(#paint11_linear_668_19716)"/>
<path d="M18.9247 12.7504L19.0028 15.2503C19.0028 15.2503 17.1279 17.1253 17.1279 19.6252V20.3966C17.1279 21.027 16.6585 21.5587 16.0329 21.637L14.6279 21.8126V16.5004C14.628 14.4293 16.581 12.6463 18.9247 12.7504Z" fill="url(#paint12_linear_668_19716)"/>
<path d="M31.4897 38.9878L30.2518 37.7499L31.5766 35.9835C31.863 35.6015 31.7337 35.0535 31.3066 34.8399L28.3768 33.375L24.002 48.3745H27.7518L31.7238 40.4306C31.9644 39.9493 31.8701 39.3682 31.4897 38.9878Z" fill="url(#paint13_linear_668_19716)"/>
<path d="M29.0801 10.8754L29.002 15.2503C29.002 15.2503 30.8769 17.1252 30.8769 19.6251V20.3966C30.8769 21.0269 31.3463 21.5587 31.9718 21.6369L33.3768 21.8126V14.6254C33.3768 12.5543 31.4238 10.7713 29.0801 10.8754Z" fill="url(#paint14_linear_668_19716)"/>
<path d="M24.0029 27.7499C23.0648 27.7499 22.1999 27.449 21.6891 26.9449C21.4431 26.702 21.4407 26.3065 21.683 26.0612C21.9265 25.8152 22.322 25.8128 22.5667 26.0551C22.7748 26.2602 23.2753 26.5 24.0028 26.5C24.7303 26.5 25.2308 26.2602 25.4389 26.0551C25.6837 25.8127 26.0792 25.8152 26.3227 26.0612C26.565 26.3065 26.5625 26.7021 26.3165 26.9449C25.8058 27.449 24.941 27.7499 24.0029 27.7499Z" fill="#DEA672"/>
<path d="M16.5146 38.9878L17.7525 37.7499L16.4277 35.9835C16.1412 35.6015 16.2706 35.0535 16.6977 34.8399L19.6274 33.375L24.0022 48.3745H20.2524L16.2804 40.4306C16.0398 39.9493 16.1341 39.3682 16.5146 38.9878Z" fill="url(#paint15_linear_668_19716)"/>
<path d="M25.2129 9.62598C19.9986 9.62598 18.9993 11.2111 14.9842 12.49C14.7083 12.5778 14.5841 12.8974 14.7401 13.1414C15.6113 14.5042 18.8542 18.0565 28.0672 15.6444C29.146 15.3619 29.9757 14.492 30.1944 13.3985C30.4478 12.1315 29.6778 10.8767 28.5201 10.303C27.6006 9.84742 26.3947 9.62598 25.2129 9.62598Z" fill="url(#paint16_linear_668_19716)"/>
</g>
<path d="M40.001 47C42.7624 47 45.001 44.7614 45.001 42C45.001 39.2386 42.7624 37 40.001 37C37.2396 37 35.001 39.2386 35.001 42C35.001 44.7614 37.2396 47 40.001 47Z" fill="#31D482" stroke="#F5F7FA" stroke-width="2"/>
<defs>
<radialGradient id="paint0_radial_668_19716" cx="0" cy="0" r="1" gradientUnits="userSpaceOnUse" gradientTransform="translate(7.84195 5.44) rotate(53.9454) scale(49.477)">
<stop offset="0.356879" stop-color="#FFD080"/>
<stop offset="1" stop-color="#FFBB80"/>
</radialGradient>
<linearGradient id="paint1_linear_668_19716" x1="24.0024" y1="35.4893" x2="24.0024" y2="48.3743" gradientUnits="userSpaceOnUse">
<stop stop-color="#6B2BF2"/>
<stop offset="1" stop-color="#BB9BFF"/>
</linearGradient>
<linearGradient id="paint2_linear_668_19716" x1="24.0023" y1="38" x2="24.0028" y2="48.3746" gradientUnits="userSpaceOnUse">
<stop stop-color="#8CD3FF"/>
<stop offset="1" stop-color="#CFECFF"/>
</linearGradient>
<linearGradient id="paint3_linear_668_19716" x1="21.5023" y1="38" x2="25.5023" y2="40" gradientUnits="userSpaceOnUse">
<stop stop-color="#73B6E6"/>
<stop offset="1" stop-color="#92CCF5"/>
</linearGradient>
<linearGradient id="paint4_linear_668_19716" x1="21.5963" y1="31.3099" x2="27.5166" y2="36.5224" gradientUnits="userSpaceOnUse">
<stop stop-color="#E6AC82"/>
<stop offset="1" stop-color="#F2CBAF"/>
</linearGradient>
<linearGradient id="paint5_linear_668_19716" x1="20.0023" y1="31.5" x2="25.5584" y2="36.3633" gradientUnits="userSpaceOnUse">
<stop stop-color="#E6A470"/>
<stop offset="1" stop-color="#E6A370" stop-opacity="0"/>
</linearGradient>
<linearGradient id="paint6_linear_668_19716" x1="18.5021" y1="18.5005" x2="30.0021" y2="30.5005" gradientUnits="userSpaceOnUse">
<stop stop-color="#F3B68A"/>
<stop offset="1" stop-color="#FED5B8"/>
</linearGradient>
<radialGradient id="paint7_radial_668_19716" cx="0" cy="0" r="1" gradientUnits="userSpaceOnUse" gradientTransform="translate(20.004 22.1154) rotate(71.565) scale(1.58098 1.05398)">
<stop stop-color="#040404"/>
<stop offset="1" stop-color="#767676"/>
</radialGradient>
<radialGradient id="paint8_radial_668_19716" cx="0" cy="0" r="1" gradientUnits="userSpaceOnUse" gradientTransform="translate(27.504 22.1154) rotate(71.5651) scale(1.58098 1.05398)">
<stop stop-color="#040404"/>
<stop offset="1" stop-color="#767676"/>
</radialGradient>
<linearGradient id="paint9_linear_668_19716" x1="19.5023" y1="19.4995" x2="20.2529" y2="20.8749" gradientUnits="userSpaceOnUse">
<stop stop-color="#70482B"/>
<stop offset="1" stop-color="#70482B" stop-opacity="0.49"/>
</linearGradient>
<linearGradient id="paint10_linear_668_19716" x1="27.0023" y1="19.4995" x2="27.7529" y2="20.8749" gradientUnits="userSpaceOnUse">
<stop stop-color="#70482B"/>
<stop offset="1" stop-color="#70482B" stop-opacity="0.49"/>
</linearGradient>
<linearGradient id="paint11_linear_668_19716" x1="16.5021" y1="15.5005" x2="22.3587" y2="32.1255" gradientUnits="userSpaceOnUse">
<stop stop-color="#EBA873"/>
<stop offset="1" stop-color="#EBA773" stop-opacity="0"/>
</linearGradient>
<linearGradient id="paint12_linear_668_19716" x1="15.0022" y1="21.4998" x2="20.7214" y2="19.0298" gradientUnits="userSpaceOnUse">
<stop stop-color="#99633C"/>
<stop offset="1" stop-color="#412A18"/>
</linearGradient>
<linearGradient id="paint13_linear_668_19716" x1="27.9289" y1="33.375" x2="27.9289" y2="48.3745" gradientUnits="userSpaceOnUse">
<stop stop-color="#864DFF"/>
<stop offset="1" stop-color="#D3BFFF"/>
</linearGradient>
<linearGradient id="paint14_linear_668_19716" x1="33.5017" y1="21.9998" x2="36.9279" y2="15.2726" gradientUnits="userSpaceOnUse">
<stop stop-color="#99633C"/>
<stop offset="1" stop-color="#412A18"/>
</linearGradient>
<linearGradient id="paint15_linear_668_19716" x1="20.0753" y1="33.375" x2="20.0753" y2="48.3745" gradientUnits="userSpaceOnUse">
<stop stop-color="#864DFF"/>
<stop offset="1" stop-color="#D3BFFF"/>
</linearGradient>
<linearGradient id="paint16_linear_668_19716" x1="15.5015" y1="13.5002" x2="29.5015" y2="11.0002" gradientUnits="userSpaceOnUse">
<stop stop-color="#8A5936"/>
<stop offset="1" stop-color="#412A18"/>
</linearGradient>
</defs>
</svg>
