<svg width="138" height="41" viewBox="0 0 138 41" fill="none" xmlns="http://www.w3.org/2000/svg">
<path fill-rule="evenodd" clip-rule="evenodd" d="M33.9194 2.57504C33.9194 1.64854 34.6704 0.897461 35.5969 0.897461C36.5234 0.897461 37.2745 1.64854 37.2745 2.57504V38.6431C37.2745 39.5696 36.5234 40.3206 35.5969 40.3206C34.6704 40.3206 33.9194 39.5696 33.9194 38.6431V2.57504ZM15.466 19.3508C14.5394 19.3508 13.7884 20.1019 13.7884 21.0284V38.643C13.7884 39.5695 14.5394 40.3206 15.466 40.3206C16.3925 40.3206 17.1435 39.5695 17.1435 38.643V21.0284C17.1435 20.1019 16.3925 19.3508 15.466 19.3508ZM7.07808 25.2224C7.07808 24.2959 7.82916 23.5448 8.75566 23.5448C9.68216 23.5448 10.4332 24.2959 10.4332 25.2224V38.643C10.4332 39.5695 9.68216 40.3206 8.75566 40.3206C7.82916 40.3206 7.07808 39.5695 7.07808 38.643V25.2224ZM0.367676 28.5775C0.367676 27.651 1.11875 26.9 2.04526 26.9C2.97176 26.9 3.72284 27.651 3.72284 28.5775V38.643C3.72284 39.5695 2.97176 40.3206 2.04526 40.3206C1.11875 40.3206 0.367676 39.5695 0.367676 38.643V28.5775ZM20.4987 25.2224C20.4987 24.2959 21.2497 23.5448 22.1762 23.5448C23.1027 23.5448 23.8538 24.2959 23.8538 25.2224V38.643C23.8538 39.5695 23.1027 40.3206 22.1762 40.3206C21.2497 40.3206 20.4987 39.5695 20.4987 38.643V25.2224ZM28.8866 19.3508C27.9601 19.3508 27.2091 20.1019 27.2091 21.0284V38.643C27.2091 39.5695 27.9601 40.3206 28.8866 40.3206C29.8131 40.3206 30.5642 39.5695 30.5642 38.643V21.0284C30.5642 20.1019 29.8131 19.3508 28.8866 19.3508ZM42.3072 10.1241C41.3807 10.1241 40.6296 10.8752 40.6296 11.8017V38.643C40.6296 39.5695 41.3807 40.3206 42.3072 40.3206C43.2337 40.3206 43.9848 39.5695 43.9848 38.643V11.8017C43.9848 10.8752 43.2337 10.1241 42.3072 10.1241ZM47.34 24.3836C47.34 23.4571 48.0911 22.706 49.0176 22.706C49.9441 22.706 50.6952 23.4571 50.6952 24.3836V38.643C50.6952 39.5695 49.9441 40.3206 49.0176 40.3206C48.0911 40.3206 47.34 39.5695 47.34 38.643V24.3836ZM55.7279 25.2224C54.8014 25.2224 54.0503 25.9735 54.0503 26.9V38.643C54.0503 39.5695 54.8014 40.3206 55.7279 40.3206C56.6544 40.3206 57.4055 39.5695 57.4055 38.643V26.9C57.4055 25.9735 56.6544 25.2224 55.7279 25.2224ZM60.7606 29.4163C60.7606 28.4898 61.5117 27.7387 62.4382 27.7387C63.3647 27.7387 64.1158 28.4898 64.1158 29.4163V38.643C64.1158 39.5695 63.3647 40.3206 62.4382 40.3206C61.5117 40.3206 60.7606 39.5695 60.7606 38.643V29.4163ZM69.1486 24.3836C68.2221 24.3836 67.471 25.1347 67.471 26.0612V38.643C67.471 39.5695 68.2221 40.3206 69.1486 40.3206C70.0751 40.3206 70.8262 39.5695 70.8262 38.643V26.0612C70.8262 25.1347 70.0751 24.3836 69.1486 24.3836ZM74.1813 20.1896C74.1813 19.2631 74.9324 18.512 75.8589 18.512C76.7854 18.512 77.5365 19.2631 77.5365 20.1896V38.643C77.5365 39.5695 76.7854 40.3206 75.8589 40.3206C74.9324 40.3206 74.1813 39.5695 74.1813 38.643V20.1896ZM82.5692 10.963C81.6427 10.963 80.8916 11.714 80.8916 12.6405V38.6431C80.8916 39.5696 81.6427 40.3206 82.5692 40.3206C83.4957 40.3206 84.2468 39.5696 84.2468 38.6431V12.6405C84.2468 11.714 83.4957 10.963 82.5692 10.963ZM87.6019 5.0914C87.6019 4.1649 88.353 3.41382 89.2795 3.41382C90.206 3.41382 90.9571 4.1649 90.9571 5.0914V38.643C90.9571 39.5695 90.206 40.3206 89.2795 40.3206C88.353 40.3206 87.6019 39.5695 87.6019 38.643V5.0914ZM95.9898 10.1241C95.0633 10.1241 94.3122 10.8752 94.3122 11.8017V38.643C94.3122 39.5695 95.0633 40.3206 95.9898 40.3206C96.9163 40.3206 97.6674 39.5695 97.6674 38.643V11.8017C97.6674 10.8752 96.9163 10.1241 95.9898 10.1241ZM101.023 25.2224C101.023 24.2959 101.774 23.5448 102.7 23.5448C103.627 23.5448 104.378 24.2959 104.378 25.2224V38.643C104.378 39.5695 103.627 40.3206 102.7 40.3206C101.774 40.3206 101.023 39.5695 101.023 38.643V25.2224ZM109.411 28.5775C108.484 28.5775 107.733 29.3286 107.733 30.2551V38.643C107.733 39.5695 108.484 40.3206 109.411 40.3206C110.337 40.3206 111.088 39.5695 111.088 38.643V30.2551C111.088 29.3286 110.337 28.5775 109.411 28.5775ZM114.443 32.7715C114.443 31.845 115.194 31.0939 116.121 31.0939C117.047 31.0939 117.798 31.845 117.798 32.7715V38.6431C117.798 39.5696 117.047 40.3206 116.121 40.3206C115.194 40.3206 114.443 39.5696 114.443 38.6431V32.7715ZM122.831 27.7387C121.905 27.7387 121.154 28.4898 121.154 29.4163V38.643C121.154 39.5695 121.905 40.3206 122.831 40.3206C123.758 40.3206 124.509 39.5695 124.509 38.643V29.4163C124.509 28.4898 123.758 27.7387 122.831 27.7387ZM127.864 26.0612C127.864 25.1347 128.615 24.3836 129.541 24.3836C130.468 24.3836 131.219 25.1347 131.219 26.0612V38.643C131.219 39.5695 130.468 40.3206 129.541 40.3206C128.615 40.3206 127.864 39.5695 127.864 38.643V26.0612ZM136.252 31.0939C135.325 31.0939 134.574 31.845 134.574 32.7715V38.6431C134.574 39.5696 135.325 40.3206 136.252 40.3206C137.178 40.3206 137.929 39.5696 137.929 38.6431V32.7715C137.929 31.845 137.178 31.0939 136.252 31.0939Z" fill="#32D583"/>
</svg>
