<svg width="138" height="41" viewBox="0 0 138 41" fill="none" xmlns="http://www.w3.org/2000/svg">
<path fill-rule="evenodd" clip-rule="evenodd" d="M33.9192 2.57504C33.9192 1.64854 34.6703 0.897461 35.5968 0.897461C36.5233 0.897461 37.2744 1.64854 37.2744 2.57504V38.6431C37.2744 39.5696 36.5233 40.3206 35.5968 40.3206C34.6703 40.3206 33.9192 39.5696 33.9192 38.6431V2.57504ZM15.4658 19.3509C14.5393 19.3509 13.7883 20.1019 13.7883 21.0284V38.6431C13.7883 39.5696 14.5393 40.3206 15.4658 40.3206C16.3923 40.3206 17.1434 39.5696 17.1434 38.6431V21.0284C17.1434 20.1019 16.3923 19.3509 15.4658 19.3509ZM7.07797 25.2224C7.07797 24.2959 7.82904 23.5448 8.75555 23.5448C9.68205 23.5448 10.4331 24.2959 10.4331 25.2224V38.6431C10.4331 39.5696 9.68205 40.3206 8.75555 40.3206C7.82904 40.3206 7.07797 39.5696 7.07797 38.6431V25.2224ZM0.367676 28.5776C0.367676 27.6511 1.11875 26.9 2.04526 26.9C2.97176 26.9 3.72284 27.6511 3.72284 28.5776V38.6431C3.72284 39.5696 2.97176 40.3206 2.04526 40.3206C1.11875 40.3206 0.367676 39.5696 0.367676 38.6431V28.5776ZM20.4987 25.2224C20.4987 24.2959 21.2497 23.5448 22.1762 23.5448C23.1027 23.5448 23.8538 24.2959 23.8538 25.2224V38.6431C23.8538 39.5696 23.1027 40.3206 22.1762 40.3206C21.2497 40.3206 20.4987 39.5696 20.4987 38.6431V25.2224ZM28.8865 19.3509C27.96 19.3509 27.209 20.1019 27.209 21.0284V38.6431C27.209 39.5696 27.96 40.3206 28.8865 40.3206C29.813 40.3206 30.5641 39.5696 30.5641 38.6431V21.0284C30.5641 20.1019 29.813 19.3509 28.8865 19.3509ZM42.3072 10.1242C41.3807 10.1242 40.6296 10.8752 40.6296 11.8017V38.643C40.6296 39.5695 41.3807 40.3206 42.3072 40.3206C43.2337 40.3206 43.9848 39.5695 43.9848 38.643V11.8017C43.9848 10.8752 43.2337 10.1242 42.3072 10.1242ZM47.3399 24.3836C47.3399 23.4571 48.091 22.706 49.0175 22.706C49.944 22.706 50.6951 23.4571 50.6951 24.3836V38.6431C50.6951 39.5696 49.944 40.3206 49.0175 40.3206C48.091 40.3206 47.3399 39.5696 47.3399 38.643V24.3836ZM55.7278 25.2224C54.8013 25.2224 54.0502 25.9735 54.0502 26.9V38.643C54.0502 39.5696 54.8013 40.3206 55.7278 40.3206C56.6543 40.3206 57.4054 39.5696 57.4054 38.6431V26.9C57.4054 25.9735 56.6543 25.2224 55.7278 25.2224ZM60.7606 29.4164C60.7606 28.4899 61.5117 27.7388 62.4382 27.7388C63.3647 27.7388 64.1158 28.4898 64.1158 29.4164V38.643C64.1158 39.5696 63.3647 40.3206 62.4382 40.3206C61.5117 40.3206 60.7606 39.5696 60.7606 38.6431V29.4164ZM69.1485 24.3836C68.222 24.3836 67.4709 25.1347 67.4709 26.0612V38.6431C67.4709 39.5696 68.222 40.3206 69.1485 40.3206C70.075 40.3206 70.8261 39.5696 70.8261 38.6431V26.0612C70.8261 25.1347 70.075 24.3836 69.1485 24.3836ZM74.1812 20.1896C74.1812 19.2631 74.9323 18.5121 75.8588 18.5121C76.7853 18.5121 77.5364 19.2631 77.5364 20.1897V38.6431C77.5364 39.5696 76.7853 40.3206 75.8588 40.3206C74.9323 40.3206 74.1812 39.5696 74.1812 38.6431V20.1896ZM82.5691 10.963C81.6426 10.963 80.8915 11.714 80.8915 12.6405V38.6431C80.8915 39.5696 81.6426 40.3206 82.5691 40.3206C83.4956 40.3206 84.2467 39.5696 84.2467 38.6431V12.6405C84.2467 11.714 83.4956 10.963 82.5691 10.963ZM87.6019 5.09142C87.6019 4.16491 88.353 3.41383 89.2795 3.41383C90.206 3.41383 90.9571 4.16491 90.9571 5.09141V38.643C90.9571 39.5695 90.206 40.3206 89.2795 40.3206C88.353 40.3206 87.6019 39.5696 87.6019 38.6431V5.09142ZM95.9898 10.1242C95.0633 10.1242 94.3122 10.8752 94.3122 11.8017V38.643C94.3122 39.5695 95.0633 40.3206 95.9898 40.3206C96.9163 40.3206 97.6674 39.5695 97.6674 38.643V11.8017C97.6674 10.8752 96.9163 10.1242 95.9898 10.1242ZM101.023 25.2224C101.023 24.2959 101.774 23.5448 102.7 23.5448C103.627 23.5448 104.378 24.2959 104.378 25.2224V38.6431C104.378 39.5696 103.627 40.3206 102.7 40.3206C101.774 40.3206 101.023 39.5696 101.023 38.6431V25.2224ZM109.41 28.5776C108.484 28.5776 107.733 29.3286 107.733 30.2551V38.6431C107.733 39.5696 108.484 40.3206 109.41 40.3206C110.337 40.3206 111.088 39.5696 111.088 38.6431V30.2551C111.088 29.3286 110.337 28.5776 109.41 28.5776ZM114.443 32.7715C114.443 31.845 115.194 31.0939 116.121 31.0939C117.047 31.0939 117.798 31.845 117.798 32.7715V38.6431C117.798 39.5696 117.047 40.3206 116.121 40.3206C115.194 40.3206 114.443 39.5696 114.443 38.6431V32.7715ZM122.831 27.7388C121.905 27.7388 121.153 28.4899 121.153 29.4164V38.6431C121.153 39.5696 121.905 40.3206 122.831 40.3206C123.758 40.3206 124.509 39.5696 124.509 38.643V29.4164C124.509 28.4898 123.758 27.7388 122.831 27.7388ZM127.864 26.0612C127.864 25.1347 128.615 24.3836 129.541 24.3836C130.468 24.3836 131.219 25.1347 131.219 26.0612V38.6431C131.219 39.5696 130.468 40.3206 129.541 40.3206C128.615 40.3206 127.864 39.5696 127.864 38.6431V26.0612ZM136.252 31.0939C135.325 31.0939 134.574 31.845 134.574 32.7715V38.6431C134.574 39.5696 135.325 40.3206 136.252 40.3206C137.178 40.3206 137.929 39.5696 137.929 38.6431V32.7715C137.929 31.845 137.178 31.0939 136.252 31.0939Z" fill="#2D99FF"/>
</svg>
