<svg width="51" height="50" viewBox="0 0 51 50" fill="none" xmlns="http://www.w3.org/2000/svg">
<g clip-path="url(#clip0_482_17404)">
<path d="M6.75 6.25H44.25V43.75H6.75V6.25Z" fill="#ECEFF1"/>
<path d="M25.5 28.9438L44.25 43.75V14.5188L25.5 28.9438Z" fill="#CFD8DC"/>
<path d="M45.8125 6.25H44.25L25.5 21.0562L6.75 6.25H5.1875C3.9443 6.25 2.75201 6.74386 1.87294 7.62294C0.99386 8.50201 0.5 9.6943 0.5 10.9375L0.5 39.0625C0.5 40.3057 0.99386 41.498 1.87294 42.3771C2.75201 43.2561 3.9443 43.75 5.1875 43.75H6.75V14.5187L25.5 28.9406L44.25 14.5156V43.75H45.8125C47.0557 43.75 48.248 43.2561 49.1271 42.3771C50.0061 41.498 50.5 40.3057 50.5 39.0625V10.9375C50.5 9.6943 50.0061 8.50201 49.1271 7.62294C48.248 6.74386 47.0557 6.25 45.8125 6.25Z" fill="#F44336"/>
</g>
<defs>
<clipPath id="clip0_482_17404">
<rect width="50" height="50" fill="white" transform="translate(0.5)"/>
</clipPath>
</defs>
</svg>
