<svg width="569" height="343" viewBox="0 0 569 343" fill="none" xmlns="http://www.w3.org/2000/svg">
<path d="M43.5654 341.427C-32.3089 237.603 4.44093 99.7684 51.9425 67.3404C120.872 20.2824 167.818 74.928 239.242 74.8527C316.032 74.7693 309.035 -6.8369 416.387 1.15769C520.959 8.94473 561.512 116.569 566.974 196.733C572.539 278.429 554.47 322.738 543.655 341.427H43.5654Z" fill="#FCE0DB"/>
<path d="M450.375 342.191C451.25 341.491 465.508 313.999 474.949 327.111C474.949 327.111 489.109 279.034 508.522 281.307C527.936 283.579 511.495 319.245 511.495 319.245C511.495 319.245 528.103 312.426 524.257 330.436C524.257 330.436 545.419 326.59 543.838 341.8L450.375 342.191Z" fill="#7FC6A6"/>
<path d="M535.842 301.613C538.431 298.491 539.174 294.836 537.501 293.45C535.829 292.063 532.375 293.471 529.786 296.593C527.198 299.715 526.455 303.37 528.128 304.756C529.8 306.143 533.254 304.736 535.842 301.613Z" fill="#7FC6A6"/>
<path d="M533.715 308.82C532.183 310.667 531.744 312.832 532.732 313.652C533.721 314.472 535.768 313.64 537.3 311.792C538.833 309.945 539.272 307.78 538.281 306.96C537.29 306.14 535.247 306.988 533.715 308.82Z" fill="#7FC6A6"/>
<path d="M510.718 322.763C510.667 322.752 510.621 322.721 510.592 322.677C510.563 322.632 510.552 322.578 510.563 322.525C510.573 322.472 510.604 322.426 510.649 322.396C510.818 322.282 514.843 319.629 518.381 320.394C518.433 320.406 518.479 320.438 518.508 320.483C518.537 320.527 518.547 320.582 518.536 320.634C518.53 320.66 518.519 320.685 518.504 320.707C518.489 320.73 518.47 320.748 518.447 320.763C518.425 320.777 518.4 320.787 518.373 320.792C518.347 320.797 518.32 320.797 518.294 320.791C514.93 320.062 510.918 322.708 510.879 322.734C510.856 322.75 510.829 322.76 510.802 322.765C510.774 322.77 510.745 322.769 510.718 322.763Z" fill="black"/>
<path d="M513.424 323.063C513.371 323.052 513.325 323.02 513.295 322.975C513.266 322.93 513.256 322.875 513.267 322.823C513.278 322.77 513.31 322.724 513.354 322.695C513.432 322.644 515.29 321.439 518.592 321.645C518.619 321.646 518.645 321.653 518.669 321.665C518.693 321.677 518.714 321.693 518.732 321.714C518.75 321.734 518.763 321.757 518.772 321.782C518.78 321.808 518.784 321.835 518.782 321.861C518.78 321.888 518.773 321.914 518.762 321.938C518.75 321.962 518.733 321.984 518.713 322.001C518.693 322.019 518.67 322.033 518.644 322.041C518.619 322.05 518.592 322.053 518.566 322.052C515.399 321.848 513.597 323.022 513.578 323.034C513.556 323.049 513.53 323.059 513.504 323.064C513.477 323.069 513.45 323.069 513.424 323.063Z" fill="black"/>
<path d="M463.011 330.92C462.958 330.919 462.908 330.899 462.869 330.863C462.85 330.844 462.835 330.821 462.824 330.797C462.814 330.772 462.809 330.745 462.809 330.718C462.809 330.691 462.814 330.665 462.824 330.64C462.835 330.615 462.85 330.593 462.869 330.574C463.009 330.427 466.381 326.98 469.99 326.98C470.044 326.98 470.096 327.002 470.134 327.04C470.172 327.078 470.194 327.13 470.194 327.184C470.194 327.238 470.172 327.29 470.134 327.328C470.096 327.366 470.044 327.387 469.99 327.387C466.546 327.387 463.188 330.822 463.154 330.847C463.136 330.868 463.114 330.885 463.09 330.898C463.065 330.91 463.039 330.918 463.011 330.92Z" fill="black"/>
<path d="M465.719 330.641C465.666 330.641 465.615 330.621 465.577 330.584C465.539 330.546 465.518 330.494 465.518 330.441C465.518 330.387 465.539 330.335 465.577 330.297C465.642 330.23 467.205 328.669 470.472 328.161C470.526 328.152 470.581 328.166 470.625 328.198C470.67 328.23 470.699 328.279 470.707 328.333C470.716 328.387 470.702 328.442 470.67 328.486C470.638 328.53 470.589 328.559 470.535 328.568C467.408 329.046 465.882 330.572 465.868 330.586C465.848 330.605 465.825 330.619 465.799 330.629C465.774 330.638 465.746 330.642 465.719 330.641Z" fill="black"/>
<path d="M377.542 182.997L372.471 175.61L373.985 174.569L379.057 181.957L377.542 182.997ZM367.398 168.218L362.326 160.832L363.841 159.79L368.914 167.178L367.398 168.218ZM357.253 153.444L352.18 146.057L353.696 145.016L358.773 152.408L357.253 153.444ZM347.108 138.669L342.035 131.283L343.551 130.241L348.623 137.629L347.108 138.669ZM336.964 123.895L331.892 116.509L333.407 115.467L338.478 122.855L336.964 123.895Z" fill="white"/>
<path d="M73.305 161.522C73.305 161.522 60.1055 139.697 28.4385 145.357C28.4385 145.357 49.7567 176.967 73.305 161.522Z" fill="#3E9896"/>
<path d="M93.9195 167.282C93.9195 167.282 89.9802 123.537 36.7061 108.359C36.7061 108.359 45.8014 173.394 93.9195 167.282Z" fill="#80C4A4"/>
<path d="M66.5522 100.066C74.8947 99.6241 103.501 98.4175 123.062 101.317C125.599 101.693 127.215 98.6535 125.461 96.7836C124.443 95.6889 122.683 94.7976 119.737 94.5921C119.737 94.5921 120.754 76.3322 106.959 75.1215C91.1382 73.7338 90.947 91.6743 90.947 91.6743C90.947 91.6743 83.7561 84.8476 78.5715 93.5056C78.5715 93.5056 69.6084 88.325 65.0872 97.8925C64.9754 98.1316 64.9275 98.3955 64.948 98.6586C64.9685 98.9217 65.0569 99.175 65.2044 99.3939C65.3519 99.6127 65.5536 99.7896 65.7898 99.9073C66.026 100.025 66.2886 100.08 66.5522 100.066Z" fill="white"/>
<path d="M228.306 117.09C224.57 116.876 215.812 116.502 208.198 117.145C207.453 117.209 206.704 117.116 205.997 116.872C205.291 116.628 204.643 116.239 204.097 115.729C203.55 115.219 203.117 114.6 202.825 113.912C202.533 113.224 202.388 112.482 202.401 111.735C202.43 110.44 202.894 108.935 204.094 107.23C208.717 100.665 216.752 106.935 216.675 110.267C216.675 110.267 218.303 105.25 223.233 106.129C228.163 107.008 226.422 114.296 226.422 114.296C226.422 114.296 228.015 113.961 229.118 114.713C229.355 114.873 229.533 115.106 229.625 115.377C229.716 115.649 229.715 115.942 229.623 116.213C229.53 116.484 229.351 116.716 229.113 116.875C228.875 117.034 228.591 117.109 228.306 117.09Z" fill="white"/>
<path d="M508.016 87.0759C502.87 86.7809 490.806 86.262 480.316 87.1512C479.291 87.2396 478.259 87.1119 477.286 86.7763C476.313 86.4407 475.422 85.9048 474.669 85.2031C473.916 84.5014 473.319 83.6496 472.916 82.7027C472.513 81.7558 472.314 80.7349 472.33 79.706C472.369 77.9236 473.008 75.84 474.662 73.502C481.031 64.4575 492.1 73.0951 491.992 77.6855C491.992 77.6855 494.23 70.7673 501.026 71.9882C507.822 73.209 505.419 83.2506 505.419 83.2506C505.419 83.2506 507.613 82.7867 509.133 83.8244C510.653 84.8621 509.823 87.1797 508.016 87.0759Z" fill="white"/>
<path d="M219.314 249.463H176.083V340.034H219.314V249.463Z" fill="#230C1E"/>
<path d="M327.895 282.381V158.309C327.895 155.478 326.77 152.763 324.769 150.761C322.767 148.759 320.052 147.635 317.221 147.635H76.6587C73.8277 147.635 71.1127 148.759 69.1108 150.761C67.109 152.763 65.9844 155.478 65.9844 158.309V282.381H327.895Z" fill="#230C1E"/>
<path d="M65.9844 282.381V302.263C65.9844 306.397 68.7171 309.75 72.0887 309.75H321.789C325.16 309.75 327.893 306.397 327.893 302.263V282.381H65.9844Z" fill="#5B2750"/>
<path d="M321.762 276.991V158.639C321.762 155.536 319.158 153.021 315.943 153.021H77.9347C74.7197 153.021 72.1152 155.536 72.1152 158.639V276.991H321.762Z" fill="#DCF4FF"/>
<path d="M256.177 342.616C256.909 338.343 254.034 334.865 249.755 334.865H145.718C141.445 334.865 137.375 338.324 136.639 342.616H256.177Z" fill="#5B2750"/>
<path d="M321.789 310.061H72.0906C68.5501 310.061 65.6709 306.563 65.6709 302.261V158.308C65.6741 155.395 66.8328 152.602 68.8927 150.542C70.9526 148.482 73.7455 147.324 76.6586 147.32V147.947C73.912 147.951 71.2792 149.044 69.337 150.986C67.3949 152.929 66.3019 155.561 66.2976 158.308V302.261C66.2976 306.217 68.896 309.436 72.0906 309.436H321.789V310.061Z" fill="#21111D"/>
<path d="M290.293 288.43L284.336 296.732L284.845 297.098L290.802 288.795L290.293 288.43Z" fill="#21111D"/>
<path d="M290.297 292.585L284.339 300.66L284.843 301.032L290.801 292.957L290.297 292.585Z" fill="#21111D"/>
<path d="M189.17 311.564L186.203 316.754L186.747 317.065L189.714 311.875L189.17 311.564Z" fill="#21111D"/>
<path d="M189.383 315.145L186.701 319.717L187.24 320.033L189.922 315.461L189.383 315.145Z" fill="#21111D"/>
<path d="M322.076 277.304H72.1152V276.671H321.451V158.64C321.451 155.714 318.981 153.336 315.943 153.336V152.709C319.325 152.709 322.076 155.37 322.076 158.64V277.304Z" fill="#21111D"/>
<path d="M274.94 144.299L283.134 144.415C284.558 144.043 287.358 143.107 290.697 142.197C291.635 144.958 292.43 147.066 292.778 146.999L292.907 147.63C292.938 147.784 293.03 147.92 293.161 148.007C293.771 150.914 294.484 154.626 295.273 157.694C295.833 159.873 296.376 159.495 294.976 161.153C294.162 162.114 289.498 165.833 287.561 166.299L274.946 170.489C274.099 166.641 261.254 156.587 261.746 155.848L274.94 144.299Z" fill="#FE9F73"/>
<path d="M205.418 287.455L205.699 287.091L204.236 205.09C204.236 205.09 231.209 223.179 239.291 223.525C247.373 223.871 280.8 174.265 280.8 174.265C273.756 158.099 258.927 155.857 258.927 155.857L231.327 186.112L198.995 156.781C194.685 154.164 161.543 153.598 161.543 153.598C161.543 153.598 127.076 152.841 119.108 163.239C113.207 170.942 99.3401 201.085 96.878 220.64C94.416 240.194 96.878 252.856 111.811 255.165L117.244 255.281L117.653 287.455C117.653 287.455 147.753 294.231 205.412 287.455H205.418Z" fill="#E9516A"/>
<path d="M125.509 226.227L124.895 225.501L130.903 220.422L133.196 192.568L134.145 192.646L131.819 220.894L125.509 226.227Z" fill="#21111D"/>
<path d="M117.229 255.747L111.735 255.625C104.41 254.492 99.7059 250.86 97.37 244.524C95.3352 239.03 95.0341 231.414 96.4014 220.568L97.3456 220.688C94.56 242.79 98.7699 252.634 111.849 254.679L117.25 254.795L117.229 255.747Z" fill="#21111D"/>
<path d="M231.658 194.195L230.867 186.329L199.558 157.931C197.263 155.848 192.805 155.821 192.76 155.821V154.869C192.963 154.869 197.631 154.896 200.199 157.225L231.778 185.873L232.604 194.099L231.658 194.195Z" fill="#21111D"/>
<path d="M231.675 186.423L230.971 185.78L258.743 155.336L259 155.377C259.146 155.401 273.827 157.969 281.227 174.056L280.363 174.463C273.707 159.991 261.032 156.785 259.093 156.374L231.675 186.423Z" fill="#21111D"/>
<path d="M169.374 290.752C169.091 290.752 168.815 290.752 168.54 290.752V289.8C180.427 289.928 201.664 287.425 204.928 287.032L203.748 197.2L204.7 197.188L205.9 287.863L205.477 287.916C205.243 287.952 182.433 290.752 169.374 290.752Z" fill="#21111D"/>
<path d="M149.324 119.303C149.324 119.303 155.835 115.097 162.456 116.165C164.326 116.477 166.052 117.364 167.394 118.702C168.736 120.04 169.627 121.764 169.944 123.633L170.589 127.37L149.922 122.475C149.922 122.475 147.126 124.44 147.293 123.96C147.46 123.48 149.324 119.303 149.324 119.303Z" fill="#FE9F73"/>
<path d="M169.869 123.211L172.591 138.98C172.591 138.98 173.798 144.574 168.99 146.13L171.208 153.488C171.613 154.814 171.544 156.24 171.01 157.521C170.477 158.801 169.513 159.854 168.286 160.5C166.863 161.237 165.335 161.75 163.756 162.022C158.122 162.995 154.339 159.295 153.505 157.265C152.671 155.234 152.337 144.895 152.337 144.895L151.31 139.963L148.632 120.633L169.869 123.211Z" fill="#FE9F73"/>
<path d="M157.434 131.389C157.373 131.389 157.313 131.367 157.267 131.326C157.221 131.282 157.194 131.223 157.192 131.159C157.189 131.096 157.212 131.034 157.255 130.988C157.288 130.953 160.511 127.545 163.54 129.907C163.568 129.925 163.592 129.949 163.61 129.976C163.629 130.004 163.641 130.035 163.647 130.068C163.652 130.1 163.651 130.134 163.643 130.166C163.635 130.198 163.62 130.228 163.6 130.254C163.58 130.28 163.554 130.302 163.525 130.317C163.496 130.333 163.464 130.343 163.431 130.345C163.398 130.348 163.365 130.344 163.333 130.333C163.302 130.322 163.274 130.304 163.249 130.282C160.559 128.192 157.723 131.183 157.605 131.313C157.56 131.36 157.499 131.387 157.434 131.389Z" fill="#4C222E"/>
<path d="M167.771 128.434C167.737 128.441 167.703 128.441 167.669 128.433C167.636 128.426 167.604 128.411 167.578 128.389C167.553 128.37 167.532 128.347 167.516 128.32C167.5 128.293 167.49 128.263 167.486 128.232C167.482 128.2 167.485 128.169 167.493 128.139C167.501 128.109 167.515 128.08 167.535 128.056C167.612 127.954 169.447 125.596 171.102 126.513C171.157 126.544 171.198 126.596 171.216 126.657C171.233 126.718 171.226 126.783 171.195 126.839C171.165 126.894 171.113 126.934 171.053 126.952C170.992 126.969 170.927 126.961 170.872 126.93C169.576 126.21 167.928 128.324 167.911 128.355C167.875 128.397 167.826 128.425 167.771 128.434Z" fill="#4C222E"/>
<path d="M162.46 133.126C162.484 133.265 162.466 133.408 162.408 133.537C162.351 133.666 162.256 133.775 162.137 133.85C162.017 133.925 161.878 133.963 161.737 133.959C161.596 133.956 161.459 133.91 161.344 133.829C161.229 133.747 161.14 133.633 161.089 133.502C161.039 133.37 161.028 133.226 161.059 133.088C161.091 132.951 161.162 132.825 161.264 132.728C161.366 132.631 161.495 132.566 161.634 132.542C161.727 132.526 161.822 132.528 161.913 132.549C162.005 132.569 162.092 132.608 162.168 132.662C162.245 132.717 162.31 132.785 162.361 132.865C162.411 132.944 162.445 133.033 162.46 133.126Z" fill="black"/>
<path d="M169.826 131.128C169.85 131.267 169.833 131.411 169.775 131.541C169.718 131.67 169.623 131.78 169.503 131.855C169.383 131.931 169.244 131.969 169.102 131.966C168.96 131.962 168.823 131.916 168.707 131.835C168.591 131.753 168.503 131.638 168.452 131.506C168.401 131.374 168.391 131.229 168.422 131.091C168.453 130.953 168.525 130.827 168.628 130.73C168.731 130.632 168.86 130.568 169 130.544C169.093 130.528 169.188 130.53 169.279 130.551C169.371 130.571 169.458 130.61 169.534 130.664C169.611 130.718 169.676 130.787 169.727 130.867C169.777 130.946 169.811 131.035 169.826 131.128Z" fill="black"/>
<path d="M149.281 119.057C149.281 119.057 143.269 119.801 142.656 125.279C142.044 130.757 145.098 133.07 145.419 134.616C145.741 136.163 146.496 146.825 153.721 144.778L152.72 127.116L148.968 120.66L149.281 119.057Z" fill="#4C222E"/>
<path d="M156.602 133.884C156.746 134.72 156.64 135.58 156.296 136.355C155.951 137.13 155.385 137.786 154.668 138.24C153.951 138.693 153.115 138.924 152.267 138.902C151.419 138.881 150.596 138.609 149.903 138.12C149.21 137.631 148.677 136.947 148.372 136.155C148.068 135.364 148.004 134.499 148.191 133.672C148.377 132.844 148.805 132.09 149.42 131.506C150.035 130.921 150.809 130.532 151.645 130.388C152.766 130.194 153.918 130.454 154.847 131.109C155.777 131.765 156.408 132.763 156.602 133.884Z" fill="#FE9F73"/>
<path d="M152.511 137.257C152.127 137.313 151.735 137.242 151.395 137.056C151.054 136.869 150.784 136.577 150.624 136.223C150.262 135.483 150.392 134.681 150.958 134.189C151.258 133.92 151.631 133.747 152.03 133.692C152.429 133.638 152.835 133.705 153.196 133.884C152.973 133.47 152.606 133.152 152.165 132.99C151.253 132.675 150.278 133.194 150.268 133.194C150.255 133.201 150.239 133.206 150.224 133.208C150.208 133.21 150.192 133.208 150.177 133.204C150.162 133.199 150.148 133.192 150.136 133.182C150.124 133.171 150.115 133.159 150.108 133.145C150.1 133.131 150.095 133.116 150.093 133.101C150.092 133.085 150.093 133.07 150.097 133.055C150.102 133.04 150.109 133.026 150.119 133.014C150.129 133.002 150.141 132.992 150.154 132.984C150.199 132.962 151.229 132.418 152.24 132.766C152.824 132.97 153.276 133.422 153.585 134.12L153.758 134.51L153.406 134.264C153.357 134.229 152.185 133.426 151.123 134.368C150.888 134.59 150.733 134.883 150.683 135.203C150.633 135.522 150.69 135.849 150.846 136.132C150.981 136.44 151.214 136.695 151.508 136.858C151.802 137.022 152.141 137.084 152.474 137.035H152.498C152.529 137.031 152.56 137.039 152.585 137.057C152.61 137.075 152.627 137.103 152.633 137.133C152.638 137.163 152.632 137.195 152.615 137.221C152.598 137.246 152.571 137.265 152.541 137.271L152.511 137.257Z" fill="#F07162"/>
<path d="M156.734 143.316C156.734 143.316 158.692 152.691 170.626 151.557L168.998 146.13C168.998 146.13 161.616 148.983 156.734 143.316Z" fill="#F07162"/>
<path d="M165.765 137.447C165.741 137.451 165.716 137.447 165.693 137.436C165.671 137.425 165.653 137.408 165.641 137.386C165.633 137.372 165.628 137.357 165.627 137.341C165.625 137.325 165.626 137.309 165.631 137.294C165.636 137.279 165.643 137.265 165.653 137.252C165.663 137.24 165.676 137.23 165.69 137.223L167.908 136.039L166.209 130.63C166.204 130.616 166.202 130.6 166.203 130.584C166.204 130.569 166.209 130.553 166.216 130.54C166.223 130.526 166.233 130.513 166.245 130.503C166.257 130.494 166.271 130.486 166.286 130.482C166.301 130.477 166.317 130.475 166.333 130.476C166.348 130.477 166.364 130.481 166.378 130.489C166.392 130.496 166.404 130.506 166.414 130.518C166.425 130.53 166.432 130.544 166.437 130.559L168.195 136.157L165.802 137.435L165.765 137.447Z" fill="#F07162"/>
<path d="M152.388 146.24L151.835 138.147L153.845 138.025L155.221 145.985L152.388 146.24Z" fill="#FE9F73"/>
<path d="M152.763 127.36C152.763 127.36 170.524 123.197 170.905 118.802C171.285 114.406 167.039 115.025 167.039 115.025C167.039 115.025 166.799 108.921 161.683 111.621C156.568 114.321 146.485 115.829 144.528 121.341C142.571 126.853 152.763 127.36 152.763 127.36Z" fill="#4C222E"/>
<path d="M152.226 126.302L152.893 130.168C154.087 131.565 154.757 133.333 154.79 135.17C154.79 135.17 155.958 135.373 155.992 134.443C156.027 133.514 153.793 127.399 155.789 125.875C157.785 124.351 151.327 124.247 151.154 124.365C150.981 124.483 147.682 126.964 148.146 126.807C148.61 126.65 152.226 126.302 152.226 126.302Z" fill="#4C222E"/>
<path d="M197.297 236.302C201.647 232.47 197.093 231.825 197.093 231.825C199.218 229.528 198.721 228.458 197.944 227.959C197.658 227.785 197.336 227.68 197.003 227.653C196.67 227.626 196.335 227.677 196.025 227.802C194.025 228.58 187.929 230.971 184.205 232.686C181.56 232.499 182.4 228.034 183.595 225.747C184.205 224.569 184.248 222.622 181.375 224.581C179.027 226.185 175.496 231.459 175.496 231.459L160.738 230.035L162.938 250.372C162.938 250.372 179.786 250.138 182.323 250.12C184.86 250.101 193.364 247.206 195.932 244.972C200.589 240.917 197.659 240.699 197.659 240.699C202.095 236.06 197.297 236.302 197.297 236.302Z" fill="#FE9F73"/>
<path d="M191.765 235.182C191.692 235.188 191.62 235.167 191.562 235.124C191.503 235.082 191.462 235.019 191.445 234.949C191.428 234.878 191.437 234.804 191.47 234.74C191.502 234.675 191.557 234.624 191.624 234.596C193.807 233.695 196.886 231.595 196.915 231.573C196.981 231.527 197.064 231.51 197.143 231.525C197.223 231.54 197.293 231.586 197.339 231.653C197.384 231.72 197.402 231.802 197.386 231.882C197.371 231.961 197.325 232.032 197.258 232.077C197.13 232.165 194.096 234.234 191.852 235.16C191.824 235.172 191.795 235.179 191.765 235.182Z" fill="#F07162"/>
<path d="M192.067 239.027C191.991 239.032 191.917 239.009 191.859 238.962C191.8 238.915 191.76 238.848 191.747 238.774C191.735 238.7 191.75 238.624 191.79 238.56C191.83 238.496 191.892 238.45 191.965 238.429C193.795 237.897 195.534 237.092 197.125 236.042C197.158 236.017 197.195 235.999 197.235 235.988C197.275 235.978 197.317 235.976 197.358 235.982C197.399 235.988 197.438 236.003 197.473 236.025C197.509 236.047 197.539 236.075 197.563 236.11C197.586 236.144 197.603 236.182 197.611 236.223C197.619 236.263 197.619 236.305 197.611 236.346C197.602 236.386 197.586 236.425 197.562 236.458C197.538 236.492 197.508 236.521 197.473 236.543C195.829 237.642 194.025 238.48 192.126 239.027C192.106 239.03 192.086 239.03 192.067 239.027Z" fill="#F07162"/>
<path d="M193.087 243.379C193.018 243.384 192.949 243.365 192.891 243.325C192.834 243.286 192.792 243.228 192.772 243.161C192.76 243.123 192.756 243.083 192.76 243.043C192.764 243.003 192.776 242.965 192.795 242.93C192.814 242.894 192.84 242.863 192.87 242.838C192.901 242.813 192.937 242.794 192.975 242.783C195.354 242.068 197.438 240.498 197.452 240.483C197.484 240.459 197.52 240.441 197.558 240.43C197.597 240.42 197.638 240.417 197.677 240.423C197.717 240.428 197.755 240.441 197.79 240.461C197.825 240.481 197.855 240.508 197.879 240.54C197.928 240.605 197.949 240.687 197.938 240.767C197.927 240.848 197.885 240.92 197.82 240.97C197.731 241.037 195.625 242.622 193.14 243.367C193.123 243.372 193.105 243.376 193.087 243.379Z" fill="#F07162"/>
<path d="M138.841 221.137L169.391 223.092C169.391 223.092 172.394 232.562 168.78 251.76C168.43 253.624 167.694 256.81 167.694 256.81C167.694 256.81 152.614 258.013 150.248 253.115C148.762 250.038 152.01 236.754 152.01 236.754L138.841 221.137Z" fill="#E9516A"/>
<path d="M168.064 257.298L117.226 255.747L117.254 254.795L167.328 256.323C168.042 253.36 172.618 233.424 169.053 223.547L131.331 221.132L131.392 220.182L169.727 222.636L169.834 222.92C174 233.715 168.4 255.985 168.158 256.927L168.064 257.298Z" fill="#21111D"/>
<path d="M164.227 139.376C164.296 139.356 168.703 138.904 168.703 138.904C168.703 138.904 168.296 140.77 166.668 140.939C165.04 141.108 164.227 139.376 164.227 139.376Z" fill="#FBFDFA"/>
<path d="M260.3 120.037C260.3 120.037 247.875 125.364 253.194 137.308C258.151 148.444 268.601 143.111 271.291 141.766C273.981 140.421 260.3 120.037 260.3 120.037Z" fill="#91D3E2"/>
<path d="M274.482 143.224C274.482 143.224 280.037 152.598 281.401 160.672C282.672 168.2 284.046 169.147 286.713 168.182C289.381 167.218 295.565 163.811 294.979 161.156C294.393 158.501 289.564 145.366 283.039 139.368C276.513 133.369 274.482 143.224 274.482 143.224Z" fill="#52B6C6"/>
<path d="M292.866 84.9785C292.866 84.9785 275.615 106.327 269.952 112.906L267.511 120.027L275.094 136.828L282.936 138.383L318.577 136L316.783 132.407L306.072 117L297.729 98.4263L293.617 86.7386L292.866 84.9785Z" fill="#52B6C6"/>
<path d="M269.953 112.905C269.953 112.905 271.117 128.573 282.945 138.378C282.945 138.378 283.724 139.371 282.866 140.352L276.914 143.695C276.914 143.695 274.232 145.539 270.594 141.954C266.956 138.368 259.981 129.993 259.767 118.743C259.767 118.743 259.641 115.715 262.986 114.256L267.398 112.138C267.398 112.138 269.373 111.263 269.953 112.905Z" fill="#D4EBF2"/>
<path d="M292.866 84.9783C292.866 84.9783 297.343 79.3746 300.598 78.5973C303.854 77.82 308.217 81.2425 311.244 84.1786C314.272 87.1148 323.441 99.3702 326.446 108.496C329.451 117.622 332.904 130.848 328.794 133.636C324.684 136.423 318.594 135.996 318.594 135.996C318.594 135.996 309.588 131.662 300.078 113.223C290.567 94.7838 292.866 84.9783 292.866 84.9783Z" fill="#91D3E2"/>
<path d="M325.717 135.02C325.717 135.02 329.113 126.848 321.556 109.266C309.655 81.593 297.953 80.0547 297.953 80.0547C297.953 80.0547 291.743 88.092 306.658 113.927C318.937 135.217 325.717 135.02 325.717 135.02Z" fill="#3B9DA8"/>
<path d="M301.016 102.886C302.683 106.671 304.564 110.358 306.65 113.929C307.84 115.992 308.978 117.85 310.064 119.53C313.004 117.534 317.489 113.308 313.332 106.75C309.482 100.664 303.972 101.714 301.016 102.886Z" fill="#D4EBF2"/>
<path d="M286.204 168.481C285.35 168.711 284.703 168.665 284.153 168.343C282.9 167.613 282.064 165.397 281.27 160.694C280.192 154.301 276.515 147.149 274.942 144.3C273.53 144.258 272.093 143.558 270.669 142.217C266.209 144.382 262.371 144.905 259.26 143.775C256.615 142.813 254.529 140.656 253.064 137.362C251.05 132.843 251.302 128.741 253.811 125.174C255.75 122.414 258.511 120.789 259.689 120.18C259.657 119.7 259.634 119.218 259.624 118.756C259.624 118.727 259.535 115.624 262.923 114.147L267.33 112.029C267.377 112.009 268.4 111.565 269.23 111.923C269.565 112.069 269.834 112.335 269.983 112.668C275.719 105.984 292.583 85.1172 292.754 84.9056C292.925 84.694 297.294 79.2551 300.547 78.4798C303.85 77.6904 308.227 81.0966 311.317 84.0938C314.408 87.091 323.536 99.3057 326.554 108.466C329.85 118.477 332.927 130.991 328.851 133.756C324.826 136.485 318.852 136.155 318.575 136.137L283.171 138.505C283.344 138.815 283.42 139.169 283.388 139.523C286.823 142.801 289.649 147.898 291.42 151.605C293.454 155.852 294.795 159.732 295.104 161.13C295.442 162.656 293.68 164.3 292.142 165.403C290.475 166.59 288.665 167.564 286.756 168.3C286.565 168.376 286.379 168.435 286.204 168.481ZM270.728 141.901L270.795 141.964C272.209 143.324 273.632 144.022 275.021 144.038H275.099L275.135 144.103C276.694 146.919 280.426 154.167 281.531 160.65C282.3 165.203 283.124 167.436 284.286 168.115C284.882 168.463 285.594 168.445 286.668 168.056C289.224 167.132 295.418 163.73 294.85 161.183C294.543 159.797 293.204 155.943 291.188 151.715C289.417 148.01 286.589 142.911 283.162 139.661L283.112 139.614L283.124 139.545C283.168 139.161 283.068 138.774 282.843 138.459L282.69 138.255L282.937 138.237L318.586 135.866C318.645 135.866 324.69 136.259 328.702 133.53C330.483 132.322 330.967 128.936 330.141 123.466C329.531 119.448 328.243 114.426 326.304 108.539C323.31 99.4176 314.211 87.2354 311.145 84.2728C308.078 81.3102 303.805 77.9651 300.621 78.7261L300.521 78.7505C297.361 79.5969 293.013 85.0053 292.97 85.0582C292.797 85.2719 275.652 106.486 270.052 112.989L269.906 113.16L269.829 112.957C269.777 112.783 269.688 112.622 269.569 112.485C269.45 112.348 269.302 112.238 269.137 112.163C268.414 111.85 267.46 112.263 267.45 112.267L263.043 114.383C259.82 115.789 259.893 118.626 259.899 118.746C259.899 119.244 259.932 119.751 259.968 120.258V120.345L259.891 120.384C257.97 121.358 248.626 126.748 253.308 137.272C254.733 140.497 256.768 142.607 259.354 143.543C262.406 144.656 266.211 144.123 270.638 141.958L270.728 141.901Z" fill="#1D1D1B"/>
<path d="M270.612 142.152C266.318 138.102 263.087 133.058 261.202 127.465C259.81 123.29 259.708 120.29 259.706 120.26H259.969C259.969 120.288 260.072 123.257 261.454 127.398C263.326 132.947 266.533 137.951 270.793 141.969L270.612 142.152Z" fill="#1D1D1B"/>
<path d="M282.858 138.479C280.008 136.002 277.545 133.113 275.551 129.907C273.938 127.305 272.633 124.525 271.66 121.623C269.98 116.646 269.829 112.941 269.829 112.904H270.092C270.092 112.941 270.248 116.616 271.923 121.56C273.461 126.118 276.639 132.721 283.041 138.284L282.858 138.479Z" fill="#1D1D1B"/>
<path d="M276.035 144.064C275.473 144.215 275.103 144.288 275.046 144.298L274.995 144.04C275.056 144.04 281.014 142.847 283.134 139.498L283.356 139.638C281.689 142.273 277.856 143.576 276.035 144.064Z" fill="#1D1D1B"/>
<path d="M325.652 135.182C325.271 135.286 324.024 135.386 321.613 133.554C318.982 131.556 314.351 126.746 307.227 115.186C303.705 109.469 301.017 104.064 299.241 99.124C297.816 95.1664 296.972 91.4957 296.726 88.2116C296.307 82.5997 297.77 80.0969 297.833 79.9932L298.057 80.1275C298.042 80.1519 296.571 82.6852 296.99 88.2279C297.381 93.3494 299.509 102.162 307.451 115.048C314.491 126.473 319.074 131.265 321.678 133.273C324.49 135.443 325.646 134.913 325.658 134.901L325.778 135.135C325.738 135.155 325.696 135.171 325.652 135.182Z" fill="#1D1D1B"/>
<path d="M266.565 119.4L264.256 122.923L264.475 123.067L266.784 119.544L266.565 119.4Z" fill="#1D1D1B"/>
<path d="M264.879 117.969L262.57 121.492L262.79 121.636L265.099 118.113L264.879 117.969Z" fill="#1D1D1B"/>
<path d="M289.652 96.9303L287.343 100.453L287.562 100.597L289.871 97.0742L289.652 96.9303Z" fill="#1D1D1B"/>
<path d="M287.966 95.5006L285.657 99.0234L285.877 99.1673L288.186 95.6445L287.966 95.5006Z" fill="#1D1D1B"/>
<path d="M274.642 148.447L283.461 148.873L283.876 150.997L284.432 152.836L283.642 154.183L277.794 154.753L274.28 152.667L274.642 148.447Z" fill="#FE9F73"/>
<path d="M273.211 155.833C273.116 155.785 273.038 155.71 272.987 155.617C272.935 155.524 272.913 155.418 272.922 155.312C272.922 155.026 273.099 154.804 273.307 154.816L282.746 153.758C283.639 153.801 284.394 152.924 284.463 151.76C284.51 151.165 284.367 150.571 284.056 150.063C283.937 149.848 283.767 149.666 283.561 149.533C283.355 149.399 283.12 149.317 282.876 149.294L274.188 148.86C273.984 148.846 273.813 148.61 273.817 148.325C273.821 148.04 273.992 147.816 274.202 147.827L282.876 148.276C283.531 148.309 284.16 148.716 284.602 149.393C285.062 150.135 285.276 151.004 285.212 151.876C285.11 153.579 284.02 154.865 282.73 154.802L273.288 155.86C273.262 155.854 273.236 155.845 273.211 155.833Z" fill="#F07162"/>
<path d="M294.645 146.492C295.321 147.994 294.69 149.194 294.442 149.314L286.834 153.036C285.912 153.485 284.669 152.914 284.032 151.664C283.332 150.297 283.602 148.742 284.595 148.256L292.171 144.553C292.171 144.553 293.967 144.99 294.645 146.492Z" fill="#FE9F73"/>
<path d="M296.647 150.77C297.345 152.261 297.162 153.783 296.92 153.911L288.822 158.138C287.91 158.614 286.665 158.068 286.01 156.829C285.291 155.474 285.538 153.907 286.518 153.395L294.824 149.061C294.824 149.061 295.951 149.28 296.647 150.77Z" fill="#FE9F73"/>
<path d="M295.288 149.395C295.353 149.317 295.393 149.221 295.402 149.119C295.412 149.018 295.39 148.916 295.341 148.827C295.227 148.577 294.991 148.447 294.81 148.536L286.636 152.583C285.865 152.96 284.86 152.474 284.351 151.477C284.082 150.971 283.98 150.393 284.062 149.826C284.087 149.593 284.167 149.37 284.298 149.175C284.428 148.98 284.603 148.819 284.809 148.707L292.305 145.045C292.484 144.955 292.539 144.682 292.425 144.434C292.311 144.186 292.075 144.054 291.896 144.143L284.398 147.806C283.832 148.083 283.435 148.679 283.307 149.434C283.187 150.262 283.335 151.106 283.728 151.845C284.475 153.306 285.932 154.024 287.047 153.473L295.223 149.426C295.245 149.418 295.267 149.407 295.288 149.395Z" fill="#F07162"/>
<path d="M291.759 141.535C292.479 143.014 292.258 144.546 292.013 144.67L283.893 148.815C282.997 149.271 281.775 148.764 281.111 147.562C280.352 146.184 280.598 144.577 281.602 144.064L289.185 140.198C290.023 139.769 291.34 140.676 291.759 141.535Z" fill="#FE9F73"/>
<path d="M292.262 145.04C292.326 144.96 292.365 144.864 292.374 144.762C292.383 144.661 292.361 144.559 292.311 144.47C292.195 144.22 291.957 144.093 291.778 144.185L283.667 148.372C282.902 148.761 281.897 148.291 281.378 147.298C281.105 146.794 280.999 146.216 281.075 145.648C281.097 145.414 281.175 145.189 281.303 144.992C281.43 144.794 281.603 144.631 281.808 144.515L289.247 140.722C289.337 140.651 289.398 140.55 289.419 140.438C289.44 140.326 289.419 140.21 289.361 140.111C289.245 139.863 289.007 139.735 288.827 139.826L281.388 143.619C280.829 143.906 280.438 144.51 280.318 145.278C280.207 146.108 280.362 146.952 280.762 147.689C281.521 149.142 282.982 149.84 284.086 149.276L292.199 145.088C292.222 145.075 292.244 145.059 292.262 145.04Z" fill="#F07162"/>
<path d="M296.811 154.206C296.878 154.125 296.919 154.026 296.928 153.922C296.936 153.818 296.913 153.714 296.86 153.624C296.742 153.377 296.502 153.255 296.327 153.351L288.506 157.624C287.738 158.031 286.837 157.624 286.316 156.635C286.041 156.132 285.932 155.555 286.005 154.987C286.025 154.752 286.101 154.526 286.227 154.327C286.353 154.129 286.526 153.963 286.729 153.845L295.035 149.509C295.212 149.42 295.261 149.141 295.145 148.899C295.029 148.657 294.789 148.525 294.612 148.618L286.306 152.952C285.746 153.243 285.362 153.854 285.246 154.623C285.14 155.454 285.299 156.298 285.702 157.034C286.465 158.477 287.824 159.103 288.931 158.525L296.759 154.252C296.778 154.239 296.796 154.223 296.811 154.206Z" fill="#F07162"/>
<path d="M298.077 155.885C298.738 157.269 298.582 158.693 298.358 158.815L290.872 162.885C290.032 163.342 288.87 162.85 288.249 161.704C287.57 160.447 287.783 158.98 288.691 158.487L296.368 154.322C296.368 154.322 297.416 154.503 298.077 155.885Z" fill="#FE9F73"/>
<path d="M298.419 158.945C298.485 158.864 298.525 158.766 298.533 158.662C298.542 158.558 298.518 158.455 298.466 158.365C298.348 158.119 298.11 157.995 297.933 158.09L290.447 162.16C289.753 162.536 288.819 162.125 288.343 161.224C288.086 160.765 287.982 160.236 288.044 159.714C288.06 159.498 288.127 159.29 288.241 159.106C288.354 158.922 288.51 158.767 288.695 158.656L296.372 154.491C296.545 154.397 296.594 154.118 296.476 153.88C296.358 153.642 296.118 153.51 295.943 153.606L288.265 157.771C287.742 158.054 287.384 158.633 287.283 159.362C287.19 160.148 287.348 160.944 287.734 161.635C288.467 162.992 289.848 163.619 290.876 163.059L298.362 158.99C298.383 158.977 298.402 158.962 298.419 158.945Z" fill="#F07162"/>
<path d="M211.262 276.68H116.57V282.381H211.262V276.68Z" fill="#230C1E"/>
<path d="M219.329 282.381H112.487V301.013H219.329V282.381Z" fill="#5B2750"/>
<path d="M448.528 269.792C446.208 269.792 444.491 269.123 443.335 267.757C440.57 264.502 442.603 258.753 444.794 254.515C447.199 249.863 449.596 246.172 451.916 243.562C456.692 238.176 460.462 238.343 462.771 239.429C470.097 242.866 473.641 247.125 473.326 252.085C472.856 259.486 463.478 265.816 454.964 268.567C452.453 269.377 450.313 269.786 448.528 269.792ZM460.069 242.801C457.105 242.801 452.744 247.792 448.317 256.338C445.84 261.128 445.549 264.239 446.361 265.195C446.67 265.562 448.117 266.62 453.747 264.788C461.174 262.392 469.049 256.89 469.37 251.833C469.62 247.878 465.006 244.856 461.089 243.017C460.769 242.869 460.421 242.795 460.069 242.801Z" fill="#ED2B47"/>
<path d="M438.238 269.752C436.453 269.752 434.311 269.359 431.794 268.564C423.264 265.863 413.849 259.588 413.336 252.192C412.993 247.231 416.519 242.952 423.817 239.473C426.127 238.372 429.889 238.185 434.697 243.542C437.033 246.147 439.451 249.817 441.884 254.455C444.1 258.681 446.157 264.409 443.418 267.68C442.273 269.064 440.557 269.752 438.238 269.752ZM425.523 243.052C421.616 244.914 417.017 247.964 417.292 251.917C417.642 256.972 425.549 262.427 432.99 264.783C438.631 266.567 440.071 265.509 440.378 265.143C441.192 264.181 440.877 261.074 438.372 256.296C433.358 246.733 428.436 241.664 425.523 243.052Z" fill="#ED2B47"/>
<path d="M485.857 267.631L402.151 267.879L402.372 342.284L486.078 342.035L485.857 267.631Z" fill="#FEC786"/>
<path d="M488.354 267.624L399.655 267.887L399.721 290.061L488.42 289.798L488.354 267.624Z" fill="#F7597F"/>
<path d="M399.184 290.609L399.119 267.917C399.119 267.85 399.132 267.783 399.158 267.72C399.183 267.658 399.221 267.601 399.268 267.553C399.316 267.505 399.373 267.466 399.435 267.44C399.497 267.414 399.564 267.401 399.632 267.4C399.769 267.4 399.9 267.455 399.997 267.551C400.094 267.648 400.148 267.778 400.149 267.915L400.21 289.573L488.394 289.319C488.526 289.327 488.649 289.385 488.739 289.481C488.829 289.577 488.879 289.703 488.879 289.835C488.879 289.966 488.829 290.093 488.739 290.188C488.649 290.284 488.526 290.342 488.394 290.35L399.184 290.609Z" fill="black"/>
<path d="M402.346 342.828C402.279 342.829 402.212 342.815 402.149 342.79C402.087 342.764 402.03 342.726 401.982 342.679C401.934 342.631 401.896 342.575 401.871 342.512C401.845 342.45 401.831 342.383 401.831 342.316L401.679 290.085C401.679 289.948 401.733 289.817 401.829 289.72C401.926 289.624 402.057 289.569 402.193 289.568C402.33 289.568 402.46 289.622 402.557 289.718C402.653 289.815 402.708 289.945 402.708 290.081L402.859 342.311C402.859 342.379 402.847 342.446 402.821 342.509C402.795 342.572 402.758 342.629 402.71 342.677C402.662 342.725 402.606 342.763 402.543 342.789C402.481 342.815 402.414 342.828 402.346 342.828Z" fill="black"/>
<path d="M486.006 326.914C485.87 326.914 485.739 326.86 485.642 326.764C485.546 326.667 485.492 326.536 485.492 326.4L485.386 289.843C485.386 289.706 485.44 289.575 485.536 289.478C485.633 289.38 485.764 289.325 485.901 289.324C486.037 289.324 486.168 289.378 486.265 289.475C486.362 289.571 486.417 289.702 486.417 289.839L486.523 326.398C486.523 326.534 486.469 326.665 486.373 326.762C486.276 326.859 486.145 326.914 486.008 326.914H486.006Z" fill="black"/>
<path d="M481.34 277.892C481.203 277.892 481.072 277.838 480.975 277.742L475.63 272.408C475.533 272.312 475.479 272.181 475.479 272.044C475.478 271.976 475.492 271.909 475.518 271.846C475.543 271.784 475.581 271.727 475.629 271.679C475.677 271.631 475.734 271.593 475.796 271.567C475.859 271.541 475.926 271.527 475.994 271.527C476.13 271.527 476.262 271.581 476.359 271.678L481.704 277.011C481.777 277.083 481.826 277.175 481.847 277.275C481.867 277.375 481.857 277.479 481.818 277.574C481.779 277.668 481.712 277.749 481.627 277.806C481.542 277.863 481.442 277.893 481.34 277.892Z" fill="black"/>
<path d="M479.842 282.673C479.774 282.674 479.707 282.661 479.644 282.635C479.582 282.609 479.525 282.571 479.477 282.523L474.132 277.192C474.035 277.095 473.981 276.964 473.98 276.827C473.98 276.69 474.034 276.559 474.131 276.462C474.228 276.365 474.359 276.311 474.496 276.311C474.632 276.31 474.764 276.365 474.86 276.461L480.206 281.794C480.278 281.866 480.327 281.958 480.347 282.058C480.367 282.158 480.357 282.261 480.318 282.356C480.279 282.45 480.213 282.53 480.128 282.587C480.043 282.643 479.943 282.673 479.842 282.673Z" fill="black"/>
<path d="M487.894 306.792L487.883 302.975L399.473 303.237L399.484 307.054L487.894 306.792Z" fill="#ED2B47"/>
<path d="M445.47 267.752L441.652 267.764L441.873 342.169L445.69 342.157L445.47 267.752Z" fill="#ED2B47"/>
<g style="mix-blend-mode:multiply" opacity="0.5">
<path d="M485.896 289.511L458.508 289.592L458.664 342.121L486.051 342.04L485.896 289.511Z" fill="#F7597F"/>
</g>
<g style="mix-blend-mode:multiply" opacity="0.5">
<path d="M488.352 267.625L457.576 267.717L457.642 289.892L488.418 289.8L488.352 267.625Z" fill="#F7597F"/>
</g>
<path d="M371.591 282.3C369.198 282.3 367.428 281.608 366.238 280.204C363.389 276.839 365.481 270.924 367.741 266.553C370.222 261.757 372.692 257.958 375.085 255.26C380.009 249.709 383.887 249.88 386.276 251.001C393.819 254.544 397.479 258.937 397.156 264.05C396.672 271.679 387.004 278.202 378.233 281.036C375.64 281.873 373.435 282.294 371.591 282.3ZM383.488 254.475C380.436 254.475 375.927 259.621 371.371 268.431C368.82 273.367 368.523 276.57 369.357 277.561C369.676 277.937 371.168 279.02 376.971 277.154C384.628 274.682 392.745 269.015 393.076 263.798C393.335 259.728 388.575 256.605 384.53 254.709C384.206 254.555 383.851 254.475 383.492 254.475H383.488Z" fill="#FEC369"/>
<path d="M360.986 284.06C359.155 284.06 356.941 283.653 354.345 282.839C345.55 280.056 335.847 273.587 335.318 265.963C334.963 260.849 338.598 256.438 346.122 252.851C348.503 251.717 352.381 251.522 357.338 257.046C359.747 259.73 362.239 263.515 364.746 268.295C367.031 272.653 369.16 278.556 366.327 281.928C365.145 283.344 363.379 284.052 360.986 284.06ZM347.88 256.538C343.853 258.457 339.112 261.6 339.395 265.676C339.757 270.885 347.907 276.509 355.578 278.938C361.393 280.77 362.878 279.687 363.194 279.309C364.026 278.316 363.707 275.113 361.126 270.189C355.958 260.337 350.883 255.105 347.88 256.538Z" fill="#FEC369"/>
<path d="M418.141 274.009L315.228 274.314L315.431 342.806L418.345 342.501L418.141 274.009Z" fill="#7FC6A6"/>
<path d="M421.21 273.999L312.157 274.322L312.196 287.292L421.248 286.968L421.21 273.999Z" fill="#47B580"/>
<path d="M315.4 341.461C315.242 341.458 315.091 341.394 314.979 341.283C314.867 341.171 314.802 341.021 314.799 340.863L314.645 287.308C314.643 287.228 314.657 287.149 314.687 287.075C314.716 287.001 314.76 286.934 314.815 286.877C314.871 286.82 314.938 286.775 315.011 286.744C315.084 286.713 315.163 286.697 315.243 286.697C315.402 286.697 315.554 286.76 315.666 286.872C315.778 286.985 315.841 287.137 315.841 287.295L315.998 340.848C315.998 341.008 315.935 341.162 315.823 341.276C315.711 341.39 315.559 341.456 315.4 341.459V341.461Z" fill="black"/>
<path d="M311.576 287.919L311.537 274.347C311.537 274.187 311.6 274.034 311.712 273.919C311.823 273.805 311.976 273.74 312.135 273.736C312.297 273.736 312.452 273.801 312.567 273.915C312.681 274.03 312.746 274.185 312.746 274.347L312.782 286.716L421.235 286.403C421.376 286.429 421.502 286.503 421.594 286.613C421.685 286.722 421.735 286.86 421.735 287.003C421.735 287.146 421.685 287.284 421.594 287.393C421.502 287.503 421.376 287.577 421.235 287.603L311.576 287.919Z" fill="black"/>
<path d="M418.281 330.197C418.123 330.194 417.972 330.13 417.86 330.019C417.748 329.907 417.684 329.756 417.681 329.598L417.557 287.011C417.557 286.851 417.619 286.698 417.731 286.583C417.843 286.469 417.995 286.404 418.155 286.4C418.315 286.4 418.468 286.463 418.582 286.575C418.696 286.687 418.762 286.839 418.765 286.999L418.889 329.586C418.889 329.746 418.827 329.899 418.715 330.014C418.603 330.128 418.451 330.193 418.291 330.197H418.281Z" fill="black"/>
<path d="M402.28 328.064C402.162 328.064 402.047 328.029 401.948 327.965L393.362 322.267C393.235 322.177 393.148 322.041 393.12 321.888C393.091 321.735 393.123 321.577 393.209 321.447C393.295 321.317 393.427 321.226 393.579 321.192C393.731 321.158 393.89 321.185 394.023 321.266L402.612 326.963C402.713 327.038 402.789 327.142 402.829 327.262C402.868 327.381 402.87 327.51 402.834 327.631C402.797 327.751 402.725 327.858 402.626 327.935C402.527 328.013 402.406 328.058 402.28 328.064Z" fill="black"/>
<path d="M401.254 332.152C401.136 332.151 401.021 332.116 400.922 332.052L392.336 326.354C392.203 326.267 392.111 326.13 392.079 325.974C392.048 325.819 392.079 325.657 392.167 325.524C392.255 325.392 392.391 325.3 392.547 325.268C392.703 325.236 392.865 325.268 392.997 325.355L401.586 331.053C401.687 331.127 401.763 331.232 401.803 331.351C401.842 331.471 401.844 331.599 401.808 331.72C401.771 331.841 401.699 331.947 401.6 332.024C401.501 332.102 401.38 332.147 401.254 332.154V332.152Z" fill="black"/>
<path d="M419.354 310.057L419.344 306.543L313.404 306.857L313.415 310.371L419.354 310.057Z" fill="#FEC369"/>
<path d="M368.032 274.159L364.518 274.17L364.721 342.662L368.235 342.651L368.032 274.159Z" fill="#FEC369"/>
<g style="mix-blend-mode:multiply" opacity="0.5">
<path d="M418.18 286.98L385.025 287.078L385.19 342.6L418.344 342.502L418.18 286.98Z" fill="#4CB7D8"/>
</g>
<g style="mix-blend-mode:multiply" opacity="0.5">
<path d="M421.21 273.999L383.938 274.109L383.976 287.081L421.249 286.97L421.21 273.999Z" fill="#3AA1C9"/>
</g>
<path d="M438.535 48.0925C438.537 51.7604 437.815 55.3925 436.413 58.7815C435.01 62.1705 432.953 65.2498 430.36 67.8437C427.766 70.4375 424.687 72.495 421.299 73.8986C417.91 75.3021 414.278 76.0243 410.61 76.0237H410.393C409.278 76.0162 408.165 75.9414 407.06 75.7999C406.765 75.7653 406.474 75.7226 406.183 75.6758C400.914 74.8316 395.997 72.496 392.014 68.9454C388.032 65.3947 385.149 60.7776 383.707 55.6401C382.266 50.5027 382.326 45.0599 383.881 39.9556C385.436 34.8513 388.42 30.299 392.48 26.8374C396.541 23.3757 401.508 21.1495 406.794 20.422C412.08 19.6945 417.464 20.4962 422.308 22.7323C427.153 24.9684 431.256 28.5454 434.131 33.0399C437.007 37.5345 438.535 42.7587 438.535 48.0946V48.0925Z" fill="#E9516A"/>
<path d="M405.34 45.3568C405.34 45.3568 406.534 56.0902 408.137 56.198C409.741 56.3059 407.03 68.8766 402.782 62.7093C401.292 60.5524 401.358 46.4312 404.912 43.4116C408.467 40.392 405.34 45.3568 405.34 45.3568Z" fill="#2F0E1B"/>
<path d="M404.758 42.6734C404.758 42.6734 403.283 52.8126 404.611 54.6175C404.611 54.6175 405.261 55.5779 406.85 55.6348L406.726 61.5947L413.89 60.7808L414.13 43.8332C414.13 43.8332 412.083 39.6213 412.083 39.7922C412.083 39.9631 404.758 42.6734 404.758 42.6734Z" fill="#FE9F73"/>
<path d="M406.939 51.1237C406.962 51.1237 406.98 51.1034 406.986 51.0728C406.989 51.0579 406.988 51.0424 406.982 51.0285C406.975 51.0146 406.965 51.003 406.952 50.9955C406.656 50.9019 406.477 50.3851 406.427 50.2182C406.836 49.9293 407.116 49.4908 407.206 48.9974C407.288 48.4624 407.212 47.9151 406.988 47.4225C406.986 47.4161 406.983 47.4103 406.978 47.4057C406.973 47.4011 406.967 47.3979 406.961 47.3964C406.954 47.3949 406.948 47.3953 406.941 47.3974C406.935 47.3994 406.929 47.4032 406.925 47.4082C406.914 47.4201 406.907 47.4351 406.905 47.4511C406.903 47.4671 406.906 47.4834 406.913 47.4978C407.117 47.9579 407.188 48.4664 407.116 48.9648C407.072 49.1992 406.981 49.4223 406.849 49.6208C406.717 49.8194 406.546 49.9893 406.347 50.1206L406.311 50.147L406.323 50.202C406.323 50.2345 406.526 50.9874 406.933 51.1156L406.939 51.1237Z" fill="#FB554B"/>
<path d="M406.815 57.6466L406.844 55.6118C406.844 55.6118 410.275 55.4592 412.395 54.1631C412.395 54.1692 409.503 56.8734 406.815 57.6466Z" fill="#FB554B"/>
<path d="M411.676 47.76C411.709 47.7603 411.741 47.748 411.765 47.7254C411.778 47.7135 411.787 47.6993 411.794 47.6835C411.801 47.6678 411.804 47.6509 411.804 47.6339C411.804 47.6168 411.801 47.5999 411.794 47.5842C411.787 47.5685 411.778 47.5543 411.765 47.5423C411.749 47.526 410.113 45.8026 408.577 47.0051C408.564 47.0156 408.552 47.0285 408.544 47.0433C408.536 47.058 408.53 47.0742 408.528 47.0911C408.526 47.1079 408.527 47.1249 408.532 47.1413C408.537 47.1576 408.544 47.1729 408.555 47.1862C408.565 47.1996 408.578 47.2108 408.593 47.2191C408.607 47.2275 408.624 47.2329 408.641 47.2349C408.657 47.237 408.674 47.2358 408.691 47.2312C408.707 47.2267 408.722 47.219 408.736 47.2086C410.085 46.1546 411.515 47.6542 411.584 47.7193C411.596 47.7319 411.61 47.742 411.626 47.749C411.642 47.756 411.659 47.7598 411.676 47.76Z" fill="#2F0E1B"/>
<path d="M406.35 47.4155C406.368 47.4157 406.386 47.412 406.403 47.4046C406.42 47.3973 406.435 47.3864 406.447 47.3728C406.459 47.3602 406.468 47.3454 406.473 47.3293C406.479 47.3133 406.482 47.2962 406.481 47.2791C406.48 47.262 406.475 47.2453 406.468 47.23C406.46 47.2146 406.45 47.2009 406.437 47.1897C406.39 47.147 405.249 46.1438 404.508 46.7604C404.495 46.7713 404.484 46.7848 404.476 46.8C404.467 46.8153 404.462 46.8319 404.461 46.8491C404.459 46.8663 404.461 46.8837 404.466 46.9002C404.471 46.9168 404.479 46.9322 404.49 46.9455C404.501 46.9589 404.514 46.9699 404.529 46.9781C404.545 46.9862 404.561 46.9913 404.579 46.993C404.596 46.9947 404.613 46.993 404.63 46.988C404.646 46.983 404.662 46.9748 404.675 46.9638C405.245 46.4897 406.254 47.3708 406.264 47.3871C406.289 47.406 406.319 47.416 406.35 47.4155Z" fill="#2F0E1B"/>
<path d="M409.078 48.4479C409.077 48.5196 409.097 48.5901 409.136 48.6504C409.175 48.7106 409.231 48.758 409.297 48.7864C409.362 48.8149 409.435 48.8232 409.506 48.8102C409.576 48.7973 409.641 48.7637 409.693 48.7137C409.744 48.6637 409.78 48.5996 409.795 48.5294C409.809 48.4593 409.803 48.3863 409.777 48.3197C409.75 48.2531 409.704 48.1959 409.645 48.1553C409.586 48.1148 409.516 48.0927 409.444 48.0918C409.397 48.091 409.35 48.0996 409.306 48.1171C409.262 48.1346 409.221 48.1606 409.187 48.1937C409.153 48.2268 409.126 48.2663 409.107 48.3099C409.089 48.3536 409.079 48.4005 409.078 48.4479Z" fill="#010103"/>
<path d="M404.852 48.399C404.85 48.4708 404.87 48.5414 404.908 48.602C404.947 48.6625 405.003 48.7102 405.069 48.7389C405.134 48.7677 405.207 48.7763 405.278 48.7636C405.349 48.7509 405.414 48.7174 405.466 48.6675C405.517 48.6176 405.553 48.5535 405.568 48.4833C405.583 48.4131 405.577 48.34 405.55 48.2733C405.524 48.2066 405.478 48.1492 405.419 48.1086C405.36 48.0679 405.29 48.0458 405.218 48.0449C405.123 48.0439 405.031 48.0804 404.962 48.1467C404.893 48.213 404.854 48.3036 404.852 48.399Z" fill="#010103"/>
<path d="M408.718 51.7256C408.677 51.7256 406.166 52.0023 406.166 52.0023C406.166 52.0023 406.62 52.9953 407.554 52.8935C408.488 52.7918 408.718 51.7256 408.718 51.7256Z" fill="#FBFDFA"/>
<path d="M407.865 42.8596L409.605 40.4443C409.605 40.4443 406.809 42.1942 407.041 42.2655C407.273 42.3367 407.865 42.8596 407.865 42.8596Z" fill="#FC8759"/>
<path d="M413.084 41.7148C413.084 41.7148 412.585 45.4975 403.52 46.2605C403.52 46.2605 401.416 40.6649 407.997 38.795C414.577 36.925 415.173 41.9672 415.039 41.9224C414.905 41.8776 413.084 41.7148 413.084 41.7148Z" fill="#2F0E1B"/>
<path d="M411.717 43.8353C411.717 43.8353 413.164 46.3279 413.941 48.1205C413.941 48.1205 411.143 63.9571 417.241 63.0699L418.332 63.0537C423.726 62.9804 419.992 51.307 419.901 45.1111C419.844 41.2308 415.133 37.2915 412.069 39.6559C409.005 42.0203 411.717 43.8353 411.717 43.8353Z" fill="#2F0E1B"/>
<path d="M412.618 50.0549C412.613 50.4554 412.726 50.8485 412.944 51.1846C413.162 51.5206 413.474 51.7845 413.842 51.9429C414.21 52.1012 414.617 52.1469 415.011 52.0741C415.404 52.0014 415.768 51.8135 416.055 51.5341C416.342 51.2548 416.54 50.8966 416.623 50.5049C416.706 50.1132 416.672 49.7056 416.523 49.3335C416.375 48.9615 416.12 48.6418 415.79 48.4149C415.46 48.188 415.07 48.0641 414.669 48.0588C414.404 48.0548 414.14 48.1033 413.892 48.2015C413.645 48.2997 413.42 48.4457 413.23 48.6311C413.039 48.8166 412.887 49.0378 412.782 49.2821C412.677 49.5264 412.622 49.7891 412.618 50.0549Z" fill="#FE9F73"/>
<path d="M414.773 51.3327C414.958 51.3312 415.138 51.2692 415.285 51.1561C415.432 51.0429 415.538 50.8849 415.587 50.706C415.648 50.5373 415.65 50.3532 415.593 50.1831C415.537 50.013 415.425 49.8668 415.276 49.7679C415.12 49.6653 414.937 49.6106 414.751 49.6106C414.564 49.6106 414.381 49.6653 414.226 49.7679C414.303 49.5703 414.447 49.4061 414.633 49.304C414.914 49.1806 415.231 49.1647 415.524 49.2592C415.532 49.2633 415.541 49.2655 415.55 49.2658C415.559 49.2661 415.569 49.2644 415.577 49.2609C415.586 49.2574 415.593 49.2522 415.6 49.2455C415.606 49.2388 415.611 49.2309 415.614 49.2222C415.617 49.2135 415.618 49.2043 415.617 49.1952C415.616 49.186 415.614 49.1771 415.609 49.1691C415.605 49.1611 415.599 49.1541 415.591 49.1486C415.584 49.1431 415.575 49.1392 415.567 49.1372C415.24 49.0284 414.885 49.0473 414.572 49.1901C414.436 49.2679 414.319 49.3736 414.227 49.5003C414.135 49.6269 414.072 49.7715 414.04 49.9246L413.981 50.1505L414.148 49.9877C414.287 49.8528 414.467 49.768 414.659 49.7466C414.851 49.7252 415.045 49.7685 415.21 49.8697C415.335 49.9546 415.427 50.0784 415.474 50.2216C415.52 50.3649 415.518 50.5195 415.467 50.6612C415.426 50.8146 415.336 50.9503 415.21 51.047C415.084 51.1438 414.93 51.1963 414.771 51.1963C414.762 51.1947 414.752 51.1951 414.743 51.1975C414.733 51.2 414.725 51.2044 414.718 51.2105C414.71 51.2166 414.704 51.2243 414.7 51.2329C414.696 51.2415 414.694 51.2509 414.694 51.2604C414.694 51.27 414.696 51.2794 414.7 51.288C414.704 51.2966 414.71 51.3043 414.718 51.3104C414.725 51.3165 414.733 51.3209 414.743 51.3234C414.752 51.3258 414.762 51.3262 414.771 51.3245L414.773 51.3327Z" fill="#FB554B"/>
<path d="M404.351 40.9473C404.351 40.9473 401.209 44.2619 401.93 53.7948L404.095 44.3901L404.351 40.9473Z" fill="#2F0E1B"/>
<path d="M414.275 75.7827C413.06 75.943 411.837 76.0232 410.612 76.0228H410.394C409.28 76.0152 408.167 75.9405 407.062 75.799L407.222 75.1193L409.717 64.6363L410.394 61.7978L410.549 61.1426L410.822 59.999H422.715C423.979 59.999 425.718 60.8292 425.792 60.8658C427.407 61.7265 429.887 63.3686 432.439 65.5214C427.941 71.164 421.429 74.8422 414.275 75.7827Z" fill="#7FC6A6"/>
<path d="M410.392 59.9971V76.0208C409.278 76.0133 408.165 75.9385 407.059 75.797C406.764 75.7624 406.473 75.7197 406.182 75.6729C399.165 74.5479 392.842 70.7894 388.5 65.1633C390.708 63.5779 393.019 62.1415 395.418 60.8639C395.491 60.8272 397.231 59.9971 398.493 59.9971H410.392Z" fill="#7FC6A6"/>
<path d="M403.502 59.9941H418.559C418.559 59.9941 415.839 64.7046 410.64 64.6843C408.245 64.6761 405.695 63.7991 403.502 59.9941Z" fill="#FE9F73"/>
<path d="M393.147 65.9753C393.183 65.9754 393.219 65.9668 393.251 65.9501C393.284 65.9335 393.311 65.9093 393.332 65.8797C395.023 63.4502 396.466 63.438 396.464 63.438C396.52 63.4326 396.572 63.4066 396.61 63.3651C396.647 63.3235 396.668 63.2693 396.668 63.2131C396.668 63.1569 396.647 63.1028 396.61 63.0612C396.572 63.0196 396.52 62.9936 396.464 62.9883C396.38 62.9883 394.765 63.0249 392.962 65.6152C392.945 65.6391 392.933 65.6663 392.926 65.695C392.92 65.7237 392.919 65.7534 392.924 65.7823C392.929 65.8113 392.94 65.839 392.956 65.8637C392.972 65.8885 392.993 65.9098 393.017 65.9265C393.053 65.9575 393.099 65.9748 393.147 65.9753Z" fill="#0D060E"/>
<path d="M393.628 68.2584C393.67 68.2588 393.712 68.2472 393.748 68.2248C393.784 68.2025 393.813 68.1704 393.831 68.1323C395.127 65.5278 396.562 65.2694 396.576 65.2673C396.635 65.2578 396.687 65.2256 396.722 65.1776C396.757 65.1296 396.772 65.0697 396.763 65.0109C396.759 64.9821 396.749 64.9543 396.734 64.9293C396.719 64.9042 396.7 64.8824 396.676 64.865C396.653 64.8476 396.626 64.835 396.598 64.8279C396.569 64.8208 396.54 64.8194 396.511 64.8237C396.444 64.8237 394.843 65.0923 393.43 67.9329C393.413 67.9674 393.406 68.0056 393.408 68.044C393.409 68.0824 393.421 68.1197 393.442 68.1523C393.462 68.1849 393.49 68.2117 393.524 68.2303C393.558 68.2489 393.595 68.2586 393.634 68.2584H393.628Z" fill="#0D060E"/>
<path d="M410.61 77.0023H410.374C409.224 76.9936 408.075 76.9161 406.933 76.7703C406.653 76.7357 406.354 76.695 406.028 76.6421C398.621 75.4611 391.959 71.4593 387.438 65.4754C382.916 59.4914 380.886 51.9898 381.773 44.5423C382.66 37.0948 386.394 30.2794 392.195 25.5244C397.995 20.7694 405.41 18.4437 412.887 19.0347C420.364 19.6256 427.322 23.0874 432.303 28.6946C437.284 34.3018 439.901 41.6192 439.607 49.1135C439.313 56.6078 436.129 63.6974 430.724 68.8967C425.318 74.096 418.11 77.0015 410.61 77.0043V77.0023ZM410.61 21.1379C395.757 21.1379 383.656 33.2305 383.656 48.0924C383.655 54.5006 385.938 60.6994 390.094 65.5771C394.25 70.4548 400.008 73.6923 406.335 74.7091C406.638 74.7579 406.913 74.7966 407.176 74.8271C408.245 74.9642 409.321 75.0369 410.399 75.0448C410.478 75.0448 410.543 75.0448 410.602 75.0448C411.785 75.0455 412.966 74.9687 414.139 74.8149C420.618 73.9569 426.565 70.7737 430.873 65.8579C435.18 60.942 437.555 54.6285 437.555 48.0924C437.563 33.2305 425.472 21.1379 410.61 21.1379Z" fill="white"/>
<path d="M437.573 200.033C437.579 204.215 436.766 208.358 435.18 212.228C435.142 212.315 435.107 212.403 435.07 212.49L435.046 212.545C433.591 215.983 431.548 219.142 429.009 221.879L428.783 222.117C428.704 222.204 428.622 222.286 428.539 222.371C423.855 227.212 417.77 230.459 411.142 231.657C404.513 232.854 397.677 231.939 391.596 229.043C390.813 228.669 390.046 228.262 389.296 227.822C389.17 227.749 389.044 227.676 388.918 227.598C388.577 227.395 388.238 227.185 387.9 226.968L387.561 226.742C385.249 225.193 383.148 223.351 381.31 221.262C380.642 220.505 380.012 219.718 379.418 218.902C376.441 214.798 374.477 210.047 373.687 205.039C372.897 200.031 373.304 194.907 374.873 190.086C376.443 185.265 379.131 180.884 382.718 177.3C386.304 173.717 390.688 171.033 395.511 169.468C400.333 167.903 405.457 167.501 410.465 168.295C415.472 169.09 420.221 171.058 424.322 174.038C428.424 177.019 431.761 180.928 434.063 185.446C436.365 189.963 437.565 194.961 437.565 200.031L437.573 200.033Z" fill="#FEC786"/>
<path d="M395.247 185.227C395.247 185.227 392.789 179.57 399.264 174.89C405.738 170.21 406.736 178.237 409.234 179C411.733 179.763 416.246 178.895 417.88 183.575C419.514 188.255 418.543 191.673 421.166 192.426C423.789 193.179 432.357 199.942 430.034 208.675C427.71 217.409 419.192 216.837 419.192 216.837C419.192 216.837 385.702 217.875 383.543 209.143C381.384 200.412 384.66 196.683 388.944 193.791C391.57 192.025 396.832 190.576 395.247 185.227Z" fill="#2D0F28"/>
<path d="M398.681 187.992C398.681 187.992 395.723 199.869 397.491 202.736C397.491 202.736 398.344 204.252 400.71 204.525L399.982 212.053L410.622 213.071L413.01 188.363L398.681 187.992Z" fill="#FE9F73"/>
<path d="M401.246 197.79C401.268 197.791 401.29 197.785 401.309 197.773C401.327 197.76 401.341 197.742 401.348 197.721C401.355 197.696 401.353 197.669 401.341 197.647C401.329 197.624 401.309 197.606 401.285 197.599C400.674 197.395 400.353 196.599 400.267 196.337C401.201 195.948 401.801 195.385 402.054 194.66C402.461 193.48 401.804 192.312 401.775 192.263C401.761 192.242 401.74 192.227 401.716 192.221C401.692 192.216 401.666 192.219 401.644 192.232C401.622 192.244 401.606 192.265 401.599 192.289C401.592 192.313 401.595 192.339 401.606 192.361C401.606 192.373 402.251 193.503 401.869 194.599C401.629 195.289 401.036 195.82 400.113 196.192L400.031 196.223L400.054 196.308C400.068 196.357 400.4 197.529 401.23 197.788L401.246 197.79Z" fill="#FB554B"/>
<path d="M400.418 207.556L400.711 204.524C400.711 204.524 405.867 204.728 409.204 203.039C409.204 203.039 404.538 206.732 400.418 207.556Z" fill="#F07162"/>
<path d="M407.677 193.245C407.714 193.246 407.75 193.236 407.782 193.218C407.814 193.199 407.841 193.172 407.858 193.14C407.876 193.107 407.885 193.071 407.883 193.034C407.882 192.997 407.87 192.961 407.85 192.93C407.828 192.903 405.587 190.122 403.139 191.731C403.108 191.739 403.078 191.753 403.053 191.774C403.028 191.795 403.009 191.821 402.996 191.851C402.984 191.881 402.978 191.914 402.981 191.946C402.984 191.979 402.994 192.01 403.011 192.038C403.029 192.065 403.052 192.088 403.08 192.105C403.108 192.122 403.14 192.131 403.172 192.133C403.205 192.135 403.237 192.129 403.267 192.116C403.297 192.103 403.323 192.082 403.343 192.057C405.492 190.645 407.451 193.074 407.532 193.172C407.55 193.193 407.572 193.211 407.597 193.224C407.622 193.236 407.649 193.244 407.677 193.245Z" fill="#2F0E1B"/>
<path d="M400.981 192.178C401.009 192.181 401.037 192.178 401.064 192.168C401.09 192.159 401.114 192.144 401.134 192.125C401.168 192.087 401.187 192.038 401.187 191.988C401.187 191.937 401.168 191.888 401.134 191.85C401.067 191.779 399.484 190.137 398.298 190.969C398.257 191 398.229 191.046 398.221 191.096C398.212 191.147 398.223 191.199 398.251 191.242C398.282 191.282 398.327 191.309 398.377 191.318C398.427 191.326 398.479 191.316 398.521 191.289C399.433 190.65 400.837 192.103 400.851 192.119C400.886 192.154 400.932 192.175 400.981 192.178Z" fill="#2F0E1B"/>
<path d="M398.617 193.467C398.606 193.574 398.628 193.682 398.679 193.777C398.73 193.871 398.807 193.949 398.902 193.999C398.997 194.05 399.105 194.071 399.212 194.06C399.319 194.05 399.42 194.007 399.503 193.939C399.586 193.871 399.647 193.779 399.678 193.676C399.709 193.573 399.708 193.463 399.677 193.361C399.645 193.258 399.584 193.167 399.501 193.099C399.418 193.031 399.316 192.989 399.209 192.979C399.066 192.965 398.923 193.009 398.812 193.101C398.701 193.192 398.631 193.324 398.617 193.467Z" fill="#010103"/>
<path d="M403.995 193.903C403.984 194.01 404.006 194.118 404.057 194.212C404.108 194.307 404.185 194.385 404.28 194.435C404.375 194.486 404.483 194.507 404.59 194.496C404.697 194.485 404.798 194.443 404.881 194.375C404.964 194.306 405.025 194.215 405.056 194.112C405.087 194.009 405.086 193.899 405.055 193.796C405.023 193.693 404.962 193.602 404.879 193.534C404.795 193.466 404.694 193.425 404.587 193.415C404.444 193.401 404.301 193.445 404.19 193.536C404.079 193.628 404.009 193.76 403.995 193.903Z" fill="#010103"/>
<path d="M410.048 196.908C409.99 197.507 410.111 198.11 410.396 198.64C410.68 199.17 411.116 199.604 411.647 199.886C412.178 200.169 412.781 200.288 413.379 200.228C413.978 200.168 414.546 199.932 415.01 199.549C415.474 199.167 415.815 198.655 415.989 198.079C416.162 197.503 416.161 196.889 415.986 196.313C415.81 195.738 415.468 195.227 415.002 194.846C414.536 194.466 413.968 194.231 413.369 194.173C412.567 194.098 411.767 194.344 411.145 194.856C410.523 195.369 410.129 196.106 410.048 196.908Z" fill="#FE9F73"/>
<path d="M413.116 199.085C413.393 199.104 413.669 199.032 413.902 198.88C414.135 198.729 414.312 198.505 414.406 198.244C414.518 198 414.545 197.725 414.482 197.463C414.419 197.201 414.27 196.968 414.058 196.802C413.837 196.629 413.57 196.526 413.29 196.505C413.01 196.484 412.73 196.546 412.486 196.684C412.622 196.398 412.856 196.169 413.145 196.039C413.77 195.77 414.48 196.079 414.486 196.081C414.498 196.089 414.511 196.093 414.524 196.095C414.538 196.096 414.552 196.095 414.565 196.091C414.578 196.087 414.591 196.08 414.601 196.071C414.611 196.061 414.619 196.05 414.625 196.038C414.631 196.025 414.634 196.011 414.634 195.998C414.633 195.984 414.631 195.97 414.625 195.958C414.619 195.945 414.611 195.934 414.601 195.925C414.59 195.915 414.578 195.909 414.565 195.904C414.533 195.888 413.772 195.556 413.07 195.86C412.857 195.959 412.667 196.103 412.514 196.282C412.361 196.46 412.248 196.67 412.182 196.895L412.066 197.225L412.337 197.003C412.37 196.977 413.151 196.352 413.94 196.956C414.118 197.099 414.242 197.296 414.294 197.517C414.346 197.739 414.323 197.971 414.227 198.177C414.148 198.402 413.996 198.595 413.795 198.724C413.594 198.853 413.356 198.912 413.118 198.891C413.093 198.889 413.067 198.897 413.047 198.913C413.027 198.93 413.014 198.953 413.011 198.979C413.009 199.005 413.017 199.03 413.033 199.05C413.049 199.07 413.073 199.083 413.098 199.087L413.116 199.085Z" fill="#FB554B"/>
<path d="M398.683 187.992C398.683 187.992 400.054 183.421 406.339 183.515C412.625 183.609 413.011 188.36 413.011 188.36L405.757 189.115L399.147 188.008L398.683 187.992Z" fill="#FE9F73"/>
<path d="M399.061 184.045C399.061 184.045 402.57 188.216 407.686 187.841C407.686 187.841 408.772 194.149 412.441 194.218C416.11 194.288 414.95 185.579 414.95 185.579C414.95 185.579 408.41 182.15 407.979 182.107C407.548 182.065 400.369 180.938 400.369 180.938L399.061 184.045Z" fill="#2D0F28"/>
<path d="M400.159 199.037C400.216 199.023 403.852 198.646 403.852 198.646C403.852 198.646 403.515 200.191 402.163 200.333C400.812 200.476 400.159 199.037 400.159 199.037Z" fill="#FBFDFA"/>
<path d="M430.213 210.644C431.919 211 433.558 211.623 435.07 212.49L435.045 212.545C433.59 215.983 431.547 219.141 429.008 221.878L428.782 222.116C428.703 222.204 428.621 222.285 428.538 222.371C423.854 227.211 417.769 230.459 411.141 231.656C404.513 232.853 397.676 231.939 391.595 229.043C390.812 228.668 390.046 228.261 389.296 227.822C389.169 227.749 389.043 227.675 388.917 227.598C388.577 227.394 388.237 227.184 387.9 226.967L387.56 226.741C385.249 225.192 383.147 223.35 381.309 221.262C380.642 220.505 380.011 219.718 379.417 218.901C378.123 217.12 377.016 215.211 376.112 213.204C377.699 212.144 380.815 211.356 384.369 210.775C387.129 210.323 390.15 209.993 392.928 209.757C395.823 209.509 398.454 209.364 400.243 209.281C401.724 209.214 402.627 209.189 402.627 209.189C402.627 209.189 406.259 209.208 410.97 209.326C413.098 209.379 415.446 209.454 417.79 209.556H417.807C419.599 209.635 421.382 209.731 423.052 209.845C425.524 210.016 427.751 210.229 429.389 210.5L429.765 210.563H429.806C429.905 210.581 430.009 210.598 430.093 210.618L430.213 210.644Z" fill="#ED2B47"/>
<path d="M435.18 212.227C435.141 212.314 435.107 212.402 435.07 212.489L435.046 212.544C434.458 212.234 433.845 211.972 433.215 211.761C431.921 211.355 430.602 211.039 429.265 210.815C427.535 210.509 425.522 210.254 423.226 210.05C423.18 210.045 423.138 210.023 423.109 209.988C423.08 209.953 423.065 209.908 423.069 209.862C423.068 209.856 423.068 209.849 423.069 209.842C423.078 209.8 423.102 209.763 423.136 209.738C423.17 209.712 423.212 209.7 423.254 209.704C425.594 209.907 427.649 210.178 429.407 210.493C429.534 210.514 429.66 210.538 429.782 210.56H429.823L430.213 210.636C431.264 210.837 432.301 211.101 433.32 211.425C433.961 211.641 434.583 211.909 435.18 212.227Z" fill="#010103"/>
<path d="M392.936 209.756C392.936 209.756 405.16 221.942 417.825 209.553C417.825 209.557 403.354 207.929 392.936 209.756Z" fill="#FE9F73"/>
<path d="M405.44 232.206H405.165C403.842 232.196 402.521 232.107 401.209 231.94C400.886 231.901 400.542 231.852 400.166 231.793C391.582 230.445 383.853 225.827 378.6 218.907C373.346 211.986 370.975 203.301 371.984 194.671C372.993 186.041 377.304 178.137 384.012 172.615C390.721 167.093 399.306 164.382 407.969 165.051C416.632 165.72 424.7 169.716 430.481 176.202C436.263 182.688 439.309 191.16 438.982 199.842C438.655 208.525 434.979 216.744 428.726 222.776C422.472 228.808 414.126 232.186 405.438 232.2L405.44 232.206ZM405.44 167.938C388.348 167.938 374.43 181.85 374.43 198.948C374.43 206.32 377.057 213.451 381.838 219.063C386.619 224.674 393.243 228.399 400.522 229.569C400.87 229.624 401.185 229.669 401.488 229.705C402.719 229.863 403.957 229.946 405.198 229.956H405.44C409.512 229.956 413.545 229.154 417.307 227.596C421.07 226.037 424.488 223.753 427.368 220.873C430.247 217.993 432.531 214.574 434.089 210.812C435.647 207.049 436.448 203.016 436.447 198.944C436.447 181.852 422.538 167.938 405.44 167.938Z" fill="white"/>
<path d="M461.935 130.45C461.925 137.314 464.517 143.926 469.189 148.955L469.38 149.158C469.447 149.231 469.516 149.3 469.583 149.374C472.195 152.079 475.338 154.213 478.816 155.641C482.294 157.07 486.03 157.762 489.789 157.674C493.547 157.586 497.247 156.719 500.654 155.129C504.061 153.539 507.101 151.26 509.583 148.436C510.148 147.795 510.682 147.129 511.184 146.436C513.709 142.96 515.375 138.936 516.046 134.693C516.718 130.45 516.375 126.108 515.047 122.022C513.719 117.937 511.442 114.224 508.404 111.187C505.365 108.15 501.651 105.876 497.565 104.549C493.479 103.223 489.137 102.883 484.894 103.556C480.652 104.23 476.628 105.898 473.154 108.425C469.68 110.951 466.852 114.264 464.904 118.093C462.955 121.921 461.941 126.157 461.943 130.452L461.935 130.45Z" fill="#7FC6A6"/>
<path d="M494.683 143.143C494.683 143.143 494.886 143.532 495.244 144.218C495.376 144.468 495.527 144.757 495.696 145.08C496.274 146.183 497.059 147.689 497.961 149.417L498.197 149.868C499.029 151.464 499.949 153.228 500.88 155.022C504.197 153.434 507.158 151.194 509.587 148.434C510.153 147.793 510.687 147.127 511.189 146.434C510.858 146.109 510.488 145.828 510.086 145.597C506.065 143.32 498.488 143.121 495.726 143.127C495.069 143.129 494.683 143.143 494.683 143.143Z" fill="#5B2750"/>
<path d="M509.586 148.435C508.309 146.579 506.728 145.297 504.774 145.026C502.634 144.729 499.223 144.465 495.742 144.249L495.243 144.219C490.291 143.919 485.31 143.718 483.727 143.659L483.212 143.639L483.092 143.669C482.663 143.781 481.238 144.137 481.8 143.873C476.196 144.862 472.21 146.878 469.388 149.163C469.455 149.236 469.524 149.305 469.591 149.379C472.203 152.084 475.346 154.218 478.824 155.646C482.302 157.075 486.038 157.767 489.797 157.679C493.555 157.591 497.255 156.724 500.662 155.134C504.069 153.544 507.109 151.265 509.591 148.441L509.586 148.435Z" fill="#5B2750"/>
<path d="M488.757 154.48C488.535 154.503 488.309 154.523 488.077 154.539C488.014 154.543 487.952 154.522 487.904 154.481C487.857 154.439 487.828 154.38 487.823 154.317C487.821 154.286 487.825 154.255 487.835 154.225C487.845 154.195 487.86 154.168 487.881 154.144C487.902 154.121 487.927 154.101 487.955 154.087C487.983 154.073 488.013 154.065 488.045 154.063C497.925 153.369 499.761 146.128 499.775 146.064C499.787 146.004 499.822 145.951 499.872 145.916C499.923 145.881 499.985 145.866 500.045 145.876C500.106 145.885 500.161 145.918 500.198 145.967C500.235 146.015 500.252 146.077 500.245 146.138C500.235 146.211 498.412 153.481 488.757 154.48Z" fill="#0D060E"/>
<path d="M483.137 143.373C476.648 144.283 472.2 146.537 469.19 148.954L469.382 149.158C469.449 149.231 469.518 149.3 469.585 149.373C472.499 147.046 476.792 144.869 483.047 143.967L483.481 143.906C483.543 143.898 483.6 143.869 483.644 143.824C483.689 143.78 483.717 143.722 483.725 143.66C483.728 143.635 483.728 143.61 483.725 143.585C483.714 143.509 483.674 143.441 483.614 143.395C483.553 143.349 483.477 143.329 483.401 143.338L483.137 143.373Z" fill="#0D060E"/>
<path d="M480.858 122.121L480.534 134.604C480.534 134.604 480.262 138.615 483.761 139.207L482.966 144.544C482.819 145.507 483.012 146.491 483.513 147.326C484.014 148.161 484.79 148.796 485.709 149.12C486.772 149.489 487.886 149.691 489.011 149.718C493.024 149.822 495.276 146.87 495.651 145.372C496.025 143.875 495.207 136.659 495.207 136.659L495.421 133.129L495.319 119.425L480.858 122.121Z" fill="#FE9F73"/>
<path d="M491.988 136.008C491.988 136.008 491.582 142.723 483.172 143.144L483.758 139.206C483.758 139.206 489.17 140.442 491.988 136.008Z" fill="#F07162"/>
<path d="M490.374 128.918C490.395 128.919 490.416 128.916 490.436 128.909C490.456 128.901 490.475 128.89 490.49 128.876C490.506 128.86 490.518 128.842 490.527 128.822C490.535 128.801 490.54 128.78 490.54 128.758C490.54 128.736 490.535 128.714 490.527 128.694C490.518 128.673 490.506 128.655 490.49 128.64C490.468 128.615 488.229 126.198 486.083 127.842C486.048 127.869 486.025 127.909 486.019 127.953C486.013 127.997 486.025 128.041 486.052 128.076C486.079 128.111 486.119 128.134 486.163 128.14C486.207 128.145 486.251 128.134 486.286 128.107C488.189 126.656 490.152 128.774 490.244 128.866C490.26 128.883 490.28 128.898 490.303 128.907C490.325 128.916 490.35 128.92 490.374 128.918Z" fill="#2D0F28"/>
<path d="M496.181 127.319L492.553 127.978L491.884 128.635C491.884 128.635 492.352 122.594 493.064 121.422C493.776 120.25 496.181 127.319 496.181 127.319Z" fill="#2F0E1B"/>
<path d="M483.503 127.736C483.527 127.737 483.551 127.733 483.573 127.724C483.595 127.714 483.615 127.7 483.631 127.681C483.647 127.666 483.659 127.648 483.667 127.627C483.676 127.607 483.68 127.585 483.68 127.563C483.68 127.542 483.676 127.52 483.667 127.5C483.659 127.479 483.647 127.461 483.631 127.445C483.566 127.386 482.003 125.98 480.974 126.819C480.946 126.848 480.929 126.886 480.927 126.926C480.925 126.966 480.937 127.006 480.962 127.037C480.987 127.069 481.022 127.091 481.062 127.099C481.101 127.106 481.142 127.099 481.177 127.079C481.991 126.422 483.383 127.69 483.397 127.69C483.425 127.718 483.463 127.735 483.503 127.736Z" fill="#2D0F28"/>
<path d="M486.975 129.506C486.972 129.606 486.999 129.704 487.052 129.788C487.105 129.872 487.181 129.939 487.272 129.979C487.363 130.02 487.464 130.032 487.562 130.016C487.66 129.999 487.751 129.953 487.823 129.885C487.895 129.816 487.945 129.728 487.967 129.631C487.989 129.534 487.982 129.433 487.946 129.34C487.911 129.247 487.848 129.167 487.767 129.109C487.686 129.052 487.589 129.02 487.49 129.018C487.424 129.016 487.358 129.027 487.296 129.051C487.235 129.074 487.179 129.11 487.131 129.155C487.083 129.2 487.044 129.255 487.018 129.315C486.991 129.375 486.976 129.44 486.975 129.506Z" fill="#010103"/>
<path d="M481.654 128.867C481.651 128.967 481.678 129.065 481.73 129.149C481.783 129.233 481.86 129.3 481.951 129.34C482.042 129.381 482.143 129.394 482.241 129.377C482.339 129.36 482.43 129.315 482.502 129.246C482.574 129.178 482.624 129.089 482.646 128.992C482.668 128.895 482.661 128.794 482.625 128.701C482.589 128.608 482.527 128.528 482.446 128.471C482.364 128.413 482.268 128.381 482.168 128.379C482.036 128.376 481.907 128.426 481.811 128.517C481.714 128.609 481.658 128.735 481.654 128.867Z" fill="#010103"/>
<path d="M491.123 129.441C491.109 130.036 491.271 130.622 491.589 131.124C491.908 131.627 492.368 132.024 492.912 132.265C493.456 132.506 494.059 132.58 494.645 132.479C495.232 132.377 495.775 132.104 496.206 131.694C496.637 131.284 496.937 130.755 497.067 130.175C497.198 129.594 497.154 128.988 496.94 128.433C496.727 127.878 496.353 127.398 495.867 127.055C495.381 126.712 494.804 126.52 494.21 126.505C493.814 126.494 493.42 126.562 493.051 126.704C492.681 126.846 492.344 127.059 492.057 127.332C491.77 127.605 491.54 127.932 491.38 128.294C491.219 128.656 491.132 129.045 491.123 129.441Z" fill="#FE9F73"/>
<path d="M494.615 131.204C494.888 131.204 495.153 131.115 495.37 130.951C495.588 130.787 495.746 130.556 495.822 130.295C495.915 130.047 495.922 129.776 495.842 129.525C495.762 129.273 495.6 129.055 495.382 128.907C495.147 128.752 494.87 128.671 494.589 128.674C494.307 128.676 494.032 128.762 493.799 128.921C493.913 128.611 494.136 128.354 494.426 128.197C495.036 127.885 495.757 128.142 495.765 128.144C495.775 128.148 495.786 128.15 495.797 128.149C495.808 128.149 495.819 128.146 495.829 128.142C495.839 128.137 495.848 128.131 495.855 128.123C495.863 128.115 495.869 128.105 495.873 128.095C495.88 128.074 495.879 128.051 495.869 128.031C495.86 128.011 495.843 127.995 495.822 127.987C495.789 127.975 495.018 127.702 494.351 128.046C494.149 128.159 493.974 128.313 493.837 128.499C493.7 128.684 493.604 128.897 493.555 129.122L493.474 129.413L493.693 129.21C493.724 129.182 494.456 128.504 495.291 129.051C495.477 129.181 495.615 129.369 495.682 129.586C495.749 129.803 495.742 130.036 495.661 130.248C495.599 130.476 495.463 130.677 495.275 130.82C495.087 130.964 494.858 131.041 494.621 131.041H494.603C494.583 131.044 494.564 131.055 494.551 131.07C494.538 131.086 494.531 131.105 494.531 131.126C494.531 131.146 494.538 131.166 494.551 131.181C494.564 131.197 494.583 131.207 494.603 131.21L494.615 131.204Z" fill="#FB554B"/>
<path d="M485.117 132.846C485.137 132.847 485.157 132.841 485.173 132.828C485.189 132.816 485.2 132.798 485.204 132.778C485.208 132.758 485.204 132.737 485.194 132.72C485.183 132.702 485.167 132.689 485.147 132.683L483.485 132.085L484.114 128.154C484.117 128.132 484.111 128.11 484.098 128.092C484.085 128.074 484.066 128.062 484.045 128.058C484.034 128.056 484.022 128.056 484.012 128.059C484.001 128.061 483.991 128.066 483.982 128.072C483.973 128.079 483.965 128.087 483.96 128.096C483.954 128.106 483.95 128.116 483.949 128.127L483.3 132.203L485.092 132.846C485.101 132.847 485.109 132.847 485.117 132.846Z" fill="#FB554B"/>
<path d="M486.372 134.507C486.321 134.495 483.063 134.334 483.063 134.334C483.063 134.334 483.438 135.693 484.649 135.758C485.859 135.823 486.372 134.507 486.372 134.507Z" fill="#FBFDFA"/>
<path d="M496.182 127.319C496.182 127.319 497.352 121.486 495.612 119.253C493.872 117.021 483.674 112.931 482.398 113.992C481.123 115.052 482.335 116.411 482.335 116.411C482.335 116.411 478.233 114.976 477.204 118.621C476.174 122.265 485.025 124.053 490.377 122.475C492.789 123.412 494.828 125.114 496.182 127.319Z" fill="#2F0E1B"/>
<path d="M489.212 159.375H488.98C487.86 159.367 486.741 159.292 485.629 159.149C485.354 159.117 485.064 159.076 484.746 159.025C477.497 157.873 470.975 153.96 466.547 148.106C462.12 142.252 460.13 134.911 460.995 127.622C461.86 120.333 465.513 113.662 471.188 109.007C476.862 104.352 484.119 102.074 491.436 102.65C498.754 103.227 505.564 106.614 510.439 112.101C515.315 117.587 517.877 124.748 517.59 132.083C517.302 139.417 514.187 146.356 508.897 151.444C503.607 156.532 496.552 159.375 489.212 159.377V159.375ZM489.212 104.937C482.25 104.947 475.575 107.718 470.652 112.642C465.729 117.566 462.96 124.241 462.952 131.204C462.951 137.448 465.175 143.489 469.225 148.242C473.275 152.995 478.886 156.15 485.051 157.141C485.346 157.188 485.615 157.226 485.865 157.257C486.907 157.387 487.957 157.455 489.007 157.46H489.21C490.362 157.46 491.513 157.385 492.655 157.235C498.97 156.398 504.766 153.295 508.964 148.504C513.161 143.713 515.475 137.56 515.475 131.19C515.477 116.72 503.694 104.937 489.212 104.937Z" fill="white"/>
<path d="M331.259 98.1409L330.363 96.5355L338.189 92.1709L339.084 93.7763L331.259 98.1409ZM346.91 89.4117L346.015 87.8063L353.84 83.4417L354.736 85.0472L346.91 89.4117ZM362.563 80.6826L361.668 79.0772L369.494 74.7126L370.389 76.316L362.563 80.6826ZM378.215 71.9514L377.32 70.346L385.145 65.9814L386.041 67.5869L378.215 71.9514Z" fill="white"/>
<path d="M472.608 108.841L467.81 102.395L469.286 101.298L474.084 107.742L472.608 108.841ZM462.461 95.2078L457.112 88.021L458.585 86.9223L463.936 94.1111L462.461 95.2078ZM451.76 80.8302L446.411 73.6414L447.884 72.5426L453.235 79.7314L451.76 80.8302ZM441.059 66.4525L435.71 59.2637L437.185 58.167L442.535 65.3558L441.059 66.4525Z" fill="white"/>
<path d="M435.509 184.209L434.316 182.809L441.133 176.994L442.325 178.392L435.509 184.209ZM449.142 172.575L447.949 171.177L454.766 165.359L455.96 166.759L449.142 172.575ZM462.775 160.942L461.58 159.544L468.397 153.727L469.591 155.124L462.775 160.942Z" fill="white"/>
<path d="M461.163 128.279L456.609 127.604L456.88 125.787L461.434 126.462L461.163 128.279ZM447.746 126.29L438.883 124.975L439.151 123.158L448.017 124.47L447.746 126.29ZM430.017 123.657L421.154 122.342L421.424 120.525L430.288 121.839L430.017 123.657ZM412.286 121.032L403.421 119.717L403.691 117.898L412.555 119.213L412.286 121.032ZM394.557 118.403L385.694 117.088L385.962 115.269L394.828 116.584L394.557 118.403ZM376.828 115.774L367.965 114.459L368.236 112.64L377.099 113.955L376.828 115.774ZM359.102 113.145L350.238 111.83L350.507 110.011L359.382 111.326L359.102 113.145ZM341.373 110.516L332.523 109.21L332.792 107.391L341.657 108.705L341.373 110.516Z" fill="white"/>
<path d="M538.849 222.016C538.858 227.909 536.632 233.586 532.621 237.903L532.458 238.078L532.281 238.262C530.038 240.584 527.338 242.417 524.352 243.643C521.365 244.869 518.157 245.463 514.929 245.386C511.701 245.31 508.524 244.565 505.599 243.199C502.674 241.832 500.064 239.874 497.934 237.448C497.45 236.905 496.992 236.333 496.561 235.732C494.395 232.747 492.966 229.292 492.392 225.649C491.817 222.006 492.113 218.279 493.255 214.773C494.396 211.266 496.352 208.079 498.961 205.473C501.57 202.867 504.759 200.915 508.267 199.777C511.775 198.639 515.502 198.348 519.145 198.926C522.787 199.505 526.24 200.937 529.223 203.106C532.206 205.275 534.633 208.119 536.306 211.406C537.979 214.692 538.85 218.328 538.849 222.016Z" fill="#52B6C6"/>
<path d="M510.731 232.924L510.248 233.847L509.86 234.588L507.917 238.31L507.713 238.698L505.408 243.124C502.561 241.759 500.018 239.835 497.932 237.465C497.448 236.923 496.99 236.351 496.559 235.75C496.842 235.471 497.16 235.229 497.505 235.032C500.964 233.076 507.461 232.905 509.833 232.909C510.399 232.903 510.731 232.924 510.731 232.924Z" fill="#DCF4FF"/>
<path d="M497.932 237.456C499.03 235.865 500.388 234.764 502.064 234.53C503.896 234.276 506.83 234.05 509.821 233.865L510.248 233.838C514.501 233.582 518.778 233.409 520.137 233.356L520.579 233.34L520.682 233.366C521.053 233.462 522.274 233.773 521.791 233.543C526.603 234.394 530.026 236.125 532.455 238.079L532.278 238.262C530.036 240.585 527.336 242.417 524.349 243.643C521.363 244.87 518.154 245.463 514.927 245.387C511.699 245.31 508.522 244.565 505.597 243.199C502.672 241.833 500.062 239.874 497.932 237.448V237.456Z" fill="#DCF4FF"/>
<path d="M515.819 242.651C516.011 242.671 516.204 242.688 516.401 242.702C516.428 242.704 516.455 242.7 516.481 242.692C516.506 242.683 516.53 242.67 516.55 242.652C516.571 242.634 516.587 242.612 516.599 242.588C516.611 242.564 516.618 242.537 516.619 242.511C516.621 242.484 516.618 242.457 516.609 242.432C516.601 242.406 516.587 242.383 516.57 242.362C516.552 242.342 516.531 242.326 516.507 242.314C516.483 242.302 516.457 242.295 516.43 242.293C507.947 241.697 506.37 235.487 506.358 235.423C506.348 235.371 506.318 235.324 506.275 235.293C506.231 235.262 506.177 235.25 506.124 235.259C506.072 235.267 506.025 235.296 505.993 235.338C505.962 235.381 505.948 235.434 505.955 235.487C505.963 235.55 507.53 241.792 515.819 242.651Z" fill="#0D060E"/>
<path d="M520.643 233.112C526.215 233.894 530.034 235.831 532.618 237.904L532.455 238.079L532.278 238.262C529.775 236.264 526.088 234.396 520.719 233.621L520.348 233.57C520.297 233.562 520.25 233.538 520.214 233.501C520.177 233.465 520.153 233.418 520.145 233.367C520.142 233.346 520.142 233.324 520.145 233.303C520.156 233.24 520.191 233.183 520.243 233.145C520.295 233.107 520.36 233.091 520.424 233.1L520.643 233.112Z" fill="#0D060E"/>
<path d="M515.329 239.363C512.211 239.4 509.698 235.927 509.816 231.747L510.128 225.781L519.972 225.73L520.432 231.79C520.721 236.043 518.501 239.327 515.329 239.363Z" fill="#FE9F73"/>
<path d="M510.01 229.932C511.772 234.205 519.455 233.819 520.234 229.597L519.972 225.73L510.128 225.781L510.01 229.932Z" fill="#F07162"/>
<path d="M521 219.389C521.003 219.924 521.164 220.447 521.464 220.891C521.764 221.335 522.189 221.679 522.685 221.882C523.181 222.084 523.726 222.135 524.251 222.028C524.775 221.92 525.257 221.66 525.633 221.279C526.01 220.898 526.265 220.415 526.367 219.889C526.469 219.363 526.412 218.819 526.205 218.325C525.997 217.831 525.648 217.41 525.201 217.115C524.754 216.819 524.23 216.663 523.694 216.666C523.338 216.668 522.987 216.74 522.659 216.878C522.331 217.015 522.033 217.217 521.783 217.469C521.533 217.722 521.335 218.022 521.201 218.351C521.066 218.68 520.998 219.033 521 219.389Z" fill="#FE9F73"/>
<path d="M523.918 221.045C524.165 221.037 524.403 220.95 524.596 220.795C524.789 220.64 524.926 220.426 524.986 220.186C525.064 219.96 525.063 219.713 524.984 219.487C524.904 219.261 524.751 219.068 524.549 218.939C524.337 218.807 524.09 218.74 523.84 218.746C523.59 218.753 523.348 218.833 523.143 218.976C523.239 218.71 523.426 218.487 523.67 218.345C524.044 218.172 524.468 218.143 524.862 218.263C524.884 218.27 524.908 218.268 524.929 218.258C524.949 218.247 524.965 218.229 524.972 218.207C524.979 218.184 524.977 218.16 524.966 218.14C524.956 218.119 524.937 218.104 524.915 218.097C524.476 217.962 524.002 217.996 523.586 218.192C523.407 218.3 523.252 218.445 523.132 218.617C523.013 218.789 522.932 218.985 522.895 219.191L522.821 219.492L523.041 219.273C523.068 219.246 523.702 218.622 524.465 219.086C524.634 219.196 524.761 219.359 524.827 219.55C524.892 219.74 524.893 219.947 524.828 220.138C524.778 220.344 524.661 220.528 524.495 220.661C524.33 220.794 524.124 220.868 523.912 220.872C523.889 220.872 523.867 220.881 523.851 220.897C523.834 220.913 523.825 220.935 523.824 220.958C523.824 220.969 523.826 220.98 523.83 220.991C523.834 221.001 523.841 221.011 523.849 221.019C523.857 221.027 523.866 221.034 523.877 221.038C523.887 221.043 523.899 221.045 523.91 221.045H523.918Z" fill="#F07162"/>
<path d="M522.995 217.489C524.135 202.979 501.516 196.924 507.144 222.106C510.04 232.992 523.508 231.637 522.995 217.489Z" fill="#FE9F73"/>
<path d="M508.26 219.452C508.263 219.988 508.107 220.512 507.812 220.959C507.516 221.406 507.095 221.755 506.601 221.963C506.107 222.17 505.563 222.227 505.037 222.125C504.511 222.023 504.027 221.767 503.646 221.39C503.266 221.013 503.005 220.532 502.898 220.007C502.791 219.482 502.842 218.937 503.045 218.441C503.248 217.946 503.593 217.521 504.037 217.221C504.481 216.922 505.004 216.76 505.54 216.758C506.258 216.755 506.948 217.037 507.458 217.542C507.968 218.047 508.256 218.734 508.26 219.452Z" fill="#FE9F73"/>
<path d="M505.361 221.141C505.114 221.135 504.875 221.049 504.681 220.896C504.487 220.743 504.348 220.531 504.284 220.292C504.205 220.066 504.203 219.819 504.28 219.592C504.358 219.365 504.509 219.17 504.71 219.039C504.92 218.905 505.166 218.837 505.415 218.841C505.665 218.845 505.908 218.923 506.114 219.063C506.016 218.798 505.827 218.576 505.58 218.437C505.205 218.269 504.781 218.245 504.388 218.367C504.377 218.373 504.365 218.375 504.352 218.376C504.34 218.376 504.328 218.374 504.316 218.369C504.305 218.364 504.295 218.357 504.286 218.348C504.278 218.338 504.272 218.328 504.268 218.316C504.264 218.304 504.262 218.292 504.264 218.279C504.265 218.267 504.269 218.255 504.275 218.244C504.281 218.234 504.29 218.224 504.3 218.217C504.31 218.21 504.321 218.205 504.333 218.203C504.771 218.062 505.247 218.092 505.664 218.286C505.845 218.391 506.001 218.534 506.122 218.705C506.243 218.875 506.326 219.07 506.366 219.275L506.443 219.576L506.221 219.358C506.193 219.332 505.552 218.715 504.797 219.187C504.63 219.3 504.504 219.464 504.441 219.655C504.377 219.846 504.378 220.053 504.445 220.243C504.497 220.449 504.616 220.632 504.783 220.763C504.951 220.894 505.156 220.966 505.369 220.968C505.392 220.967 505.414 220.976 505.431 220.991C505.447 221.007 505.457 221.028 505.458 221.051C505.459 221.063 505.457 221.074 505.453 221.085C505.448 221.096 505.442 221.105 505.434 221.114C505.426 221.122 505.417 221.129 505.406 221.133C505.396 221.138 505.384 221.14 505.373 221.141H505.361Z" fill="#F07162"/>
<path d="M512.241 217.71C512.241 217.819 512.21 217.926 512.15 218.018C512.089 218.109 512.003 218.181 511.902 218.224C511.801 218.266 511.69 218.278 511.583 218.257C511.475 218.236 511.376 218.184 511.298 218.107C511.22 218.03 511.167 217.932 511.145 217.824C511.123 217.717 511.134 217.606 511.175 217.504C511.216 217.403 511.287 217.316 511.378 217.255C511.469 217.193 511.576 217.161 511.685 217.16C511.758 217.16 511.83 217.173 511.897 217.201C511.964 217.228 512.025 217.268 512.077 217.32C512.129 217.371 512.17 217.431 512.198 217.498C512.226 217.565 512.24 217.637 512.241 217.71Z" fill="#010103"/>
<path d="M517.945 217.79C517.946 217.899 517.979 218.006 518.04 218.097C518.101 218.188 518.188 218.258 518.289 218.3C518.39 218.341 518.501 218.352 518.609 218.33C518.716 218.308 518.814 218.255 518.892 218.178C518.969 218.1 519.021 218.001 519.042 217.894C519.063 217.786 519.052 217.675 519.009 217.574C518.967 217.473 518.896 217.387 518.805 217.327C518.713 217.266 518.606 217.234 518.497 217.234C518.424 217.234 518.352 217.249 518.285 217.277C518.218 217.305 518.157 217.346 518.105 217.397C518.054 217.449 518.014 217.51 517.986 217.578C517.959 217.645 517.945 217.717 517.945 217.79Z" fill="#010103"/>
<path d="M520.776 216.814C520.67 216.816 520.566 216.779 520.485 216.711C519.185 215.618 517.313 216.236 517.295 216.243C517.239 216.262 517.18 216.27 517.121 216.266C517.062 216.263 517.004 216.247 516.951 216.222C516.898 216.196 516.85 216.16 516.811 216.115C516.772 216.071 516.742 216.02 516.723 215.964C516.704 215.908 516.695 215.849 516.699 215.79C516.703 215.731 516.718 215.673 516.744 215.62C516.77 215.567 516.806 215.52 516.85 215.48C516.894 215.441 516.946 215.411 517.002 215.392C517.097 215.357 519.368 214.596 521.071 216.021C521.141 216.08 521.192 216.159 521.216 216.248C521.239 216.337 521.235 216.431 521.204 216.518C521.173 216.604 521.116 216.679 521.041 216.732C520.966 216.785 520.876 216.814 520.784 216.814H520.776Z" fill="#2D0F28"/>
<path d="M509.504 216.829C509.436 216.83 509.37 216.816 509.309 216.787C509.248 216.759 509.194 216.717 509.152 216.664C509.114 216.618 509.087 216.566 509.07 216.509C509.053 216.452 509.047 216.393 509.053 216.334C509.059 216.276 509.077 216.219 509.105 216.167C509.133 216.115 509.171 216.069 509.217 216.031C510.932 214.631 513.191 215.421 513.286 215.46C513.396 215.502 513.485 215.585 513.534 215.692C513.583 215.799 513.588 215.92 513.548 216.031C513.509 216.142 513.427 216.232 513.322 216.284C513.216 216.335 513.095 216.343 512.983 216.306C512.963 216.306 511.101 215.655 509.784 216.729C509.705 216.794 509.606 216.83 509.504 216.829Z" fill="#2D0F28"/>
<path d="M513.53 223.564C513.583 223.564 516.882 223.467 516.882 223.467C516.882 223.467 516.475 224.832 515.254 224.869C514.033 224.905 513.53 223.564 513.53 223.564Z" fill="#FBFDFA"/>
<path d="M523.034 206.675C521.15 203.25 508.661 201.657 505.963 206.552C505.383 207.606 505.474 216.179 505.914 216.885C506.353 217.591 507.338 217.882 507.338 217.882C507.338 217.882 507.417 210.917 507.826 210.001C508.235 209.086 510.618 207.222 512.384 208.76C513.308 209.574 513.977 209.684 514.419 209.617C514.826 209.743 515.554 209.719 516.612 208.817C518.395 207.297 520.757 209.183 521.158 210.103C521.559 211.023 521.565 217.99 521.565 217.99C521.565 217.99 522.548 217.707 522.989 217.005C523.431 216.303 523.614 207.725 523.034 206.675Z" fill="#2D0F28"/>
<path d="M516.31 221.014C516.327 221.013 516.344 221.006 516.357 220.995C516.37 220.983 516.379 220.968 516.383 220.951C516.386 220.94 516.386 220.929 516.385 220.919C516.383 220.908 516.379 220.897 516.374 220.888C516.368 220.879 516.36 220.871 516.352 220.864C516.343 220.858 516.333 220.854 516.322 220.851L514.615 220.434L514.818 216.476C514.819 216.454 514.811 216.433 514.796 216.417C514.781 216.4 514.761 216.39 514.739 216.389C514.728 216.388 514.717 216.389 514.706 216.393C514.696 216.397 514.686 216.402 514.678 216.41C514.67 216.417 514.663 216.426 514.659 216.436C514.654 216.446 514.652 216.457 514.651 216.468L514.432 220.562L516.263 221.012C516.27 221.016 516.278 221.018 516.286 221.018C516.294 221.018 516.302 221.017 516.31 221.014Z" fill="#F07162"/>
<path d="M519.004 223.699C518.999 223.181 518.827 222.678 518.513 222.266C518.199 221.853 517.76 221.553 517.262 221.41C516.296 221.148 515.115 221.182 514.09 221.268C509.782 221.064 511.321 229.61 514.413 229.997C519.091 230.625 519.063 226.772 519.004 223.699ZM512.871 223.068C513.182 222.446 515.846 222.254 517.203 222.704C517.396 222.768 517.565 222.888 517.689 223.049C517.814 223.21 517.886 223.405 517.899 223.608C517.995 225.235 516.973 228.444 515.724 225.524L514.875 225.551C513.728 229.49 512.194 224.069 512.871 223.068Z" fill="#2D0F28"/>
<path d="M515.195 246.84H514.991C514.003 246.832 513.017 246.764 512.037 246.637C511.797 246.606 511.538 246.572 511.259 246.525C504.887 245.509 499.155 242.067 495.265 236.918C491.375 231.77 489.628 225.316 490.391 218.909C491.154 212.501 494.367 206.638 499.357 202.547C504.348 198.456 510.728 196.456 517.16 196.965C523.593 197.473 529.579 200.452 533.864 205.277C538.149 210.101 540.4 216.397 540.146 222.845C539.892 229.293 537.152 235.392 532.501 239.864C527.849 244.337 521.647 246.835 515.195 246.836V246.84ZM515.195 198.873C509.058 198.88 503.175 201.32 498.836 205.66C494.497 209.999 492.056 215.882 492.049 222.018C492.05 227.521 494.01 232.843 497.579 237.031C501.148 241.219 506.091 243.999 511.524 244.873C511.782 244.913 512.018 244.946 512.244 244.974C513.163 245.091 514.088 245.153 515.014 245.159H515.195C521.295 245.102 527.127 242.639 531.421 238.304C535.714 233.97 538.123 228.116 538.123 222.015C538.123 215.914 535.714 210.06 531.421 205.726C527.127 201.391 521.295 198.928 515.195 198.871V198.873Z" fill="white"/>
<path d="M490.334 222.936L483.758 222.678L483.829 220.847L490.407 221.105L490.334 222.936ZM474.803 222.326L465.85 221.974L465.921 220.142L474.874 220.495L474.803 222.326ZM456.897 221.62L447.944 221.268L448.015 219.436L456.968 219.788L456.897 221.62ZM438.991 220.916L430.038 220.564L430.109 218.732L439.062 219.084L438.991 220.916Z" fill="white"/>
<path d="M510.232 197.962L508.69 189.917L510.496 189.571L512.039 197.616L510.232 197.962ZM507.003 181.116L505.316 172.316L507.121 171.97L508.81 180.77L507.003 181.116ZM503.629 163.515L501.942 154.713L503.747 154.367L505.434 163.168L503.629 163.515Z" fill="white"/>
<path d="M150.087 341.824C147.568 339.307 127.934 304.066 114.34 322.19C114.34 322.19 92.1267 271.089 63.9961 281.088C63.9961 281.088 46.0597 291.465 59.0883 317.335C59.0883 317.335 15.6644 314.568 16.2301 341.815L150.087 341.824Z" fill="#7FC6A6"/>
<path d="M85.1184 290.745C85.1793 290.746 85.2388 290.727 85.2886 290.692C85.3384 290.657 85.376 290.607 85.396 290.55C85.416 290.492 85.4174 290.43 85.4001 290.371C85.3828 290.313 85.3476 290.261 85.2995 290.224C85.0085 289.994 78.1147 284.618 71.811 283.861C71.7338 283.852 71.6562 283.874 71.5951 283.922C71.5341 283.97 71.4946 284.041 71.4854 284.118C71.4763 284.195 71.4981 284.273 71.5462 284.334C71.5943 284.395 71.6647 284.434 71.7418 284.443C77.8787 285.18 84.8681 290.629 84.9373 290.684C84.9893 290.724 85.0529 290.745 85.1184 290.745Z" fill="#7FC6A6"/>
<path d="M85.1189 294.136C85.1794 294.136 85.2384 294.117 85.2877 294.082C85.337 294.047 85.3742 293.997 85.3943 293.94C85.4144 293.883 85.4163 293.821 85.3998 293.763C85.3833 293.705 85.3491 293.653 85.3021 293.615C85.2553 293.578 80.5305 289.782 74.5015 288.024C74.4638 288.01 74.4237 288.004 74.3837 288.006C74.3436 288.009 74.3045 288.019 74.2687 288.038C74.2329 288.056 74.2013 288.081 74.1757 288.112C74.1501 288.143 74.1312 288.179 74.12 288.217C74.1088 288.256 74.1057 288.296 74.1108 288.336C74.1159 288.376 74.1291 288.414 74.1496 288.449C74.1701 288.483 74.1975 288.513 74.23 288.536C74.2625 288.56 74.2996 288.577 74.3388 288.585C80.2497 290.311 84.889 294.032 84.9338 294.079C84.9875 294.118 85.0526 294.138 85.1189 294.136Z" fill="#7FC6A6"/>
<path d="M551.593 341.559H5.86523V342.828H551.593V341.559Z" fill="#223749"/>
<path d="M328.721 287.825C336.497 280.049 336.497 267.443 328.721 259.667C320.946 251.892 308.339 251.892 300.564 259.667C292.789 267.443 292.789 280.049 300.564 287.825C308.339 295.6 320.946 295.6 328.721 287.825Z" fill="white"/>
<path d="M310.943 283.888L303.435 273.445C303.351 273.328 303.29 273.194 303.257 273.053C303.224 272.912 303.219 272.766 303.242 272.623C303.265 272.48 303.317 272.344 303.393 272.22C303.469 272.097 303.569 271.99 303.686 271.906C303.804 271.821 303.937 271.761 304.078 271.728C304.219 271.694 304.365 271.689 304.508 271.713C304.651 271.736 304.788 271.787 304.911 271.863C305.034 271.94 305.141 272.04 305.226 272.157L311.025 280.225L325.524 261.829C325.613 261.711 325.724 261.613 325.851 261.539C325.978 261.465 326.118 261.417 326.264 261.398C326.41 261.379 326.558 261.389 326.699 261.428C326.841 261.468 326.973 261.535 327.089 261.626C327.204 261.716 327.3 261.83 327.371 261.958C327.442 262.087 327.487 262.228 327.503 262.375C327.518 262.521 327.504 262.668 327.462 262.809C327.42 262.95 327.35 263.081 327.256 263.194L310.943 283.888Z" fill="#5AB3BF"/>
</svg>
