<svg width="21" height="21" viewBox="0 0 21 21" fill="none" xmlns="http://www.w3.org/2000/svg">
<path d="M11.1064 3.19599L12.9214 6.8432C13.0551 7.10744 13.3103 7.29095 13.6046 7.33173L17.6812 7.92546C17.9193 7.9589 18.1354 8.08449 18.2813 8.27615C18.4256 8.46536 18.4876 8.70514 18.4525 8.94084C18.424 9.13657 18.3319 9.31763 18.1908 9.45627L15.2369 12.3197C15.0208 12.5195 14.923 12.8156 14.9752 13.1051L15.7024 17.1308C15.7799 17.6168 15.4578 18.0752 14.9752 18.1673C14.7762 18.1991 14.5724 18.1657 14.393 18.0744L10.7567 16.1798C10.4868 16.0436 10.168 16.0436 9.89813 16.1798L6.26177 18.0744C5.81497 18.3117 5.26136 18.1502 5.01269 17.7098C4.92056 17.5345 4.88794 17.3346 4.91811 17.1397L5.64538 13.1133C5.69756 12.8246 5.59891 12.5269 5.38366 12.3271L2.42973 9.46525C2.07833 9.12597 2.06773 8.56731 2.40609 8.2158C2.41343 8.20846 2.42158 8.2003 2.42973 8.19215C2.56997 8.04942 2.75423 7.9589 2.95317 7.93524L7.02981 7.3407C7.32332 7.2991 7.57852 7.11723 7.71305 6.85136L9.46274 3.19599C9.61847 2.88281 9.94134 2.68789 10.2919 2.69605H10.4012C10.7053 2.73275 10.9703 2.92114 11.1064 3.19599Z" fill="white"/>
<path opacity="0.3" d="M11.1064 3.19599L12.9214 6.8432C13.0551 7.10744 13.3103 7.29095 13.6046 7.33173L17.6812 7.92546C17.9193 7.9589 18.1354 8.08449 18.2813 8.27615C18.4256 8.46536 18.4876 8.70514 18.4525 8.94084C18.424 9.13657 18.3319 9.31763 18.1908 9.45627L15.2369 12.3197C15.0208 12.5195 14.923 12.8156 14.9752 13.1051L15.7024 17.1308C15.7799 17.6168 15.4578 18.0752 14.9752 18.1673C14.7762 18.1991 14.5724 18.1657 14.393 18.0744L10.7567 16.1798C10.4868 16.0436 10.168 16.0436 9.89813 16.1798L6.26177 18.0744C5.81497 18.3117 5.26136 18.1502 5.01269 17.7098C4.92056 17.5345 4.88794 17.3346 4.91811 17.1397L5.64538 13.1133C5.69756 12.8246 5.59891 12.5269 5.38366 12.3271L2.42973 9.46525C2.07833 9.12597 2.06773 8.56731 2.40609 8.2158C2.41343 8.20846 2.42158 8.2003 2.42973 8.19215C2.56997 8.04942 2.75423 7.9589 2.95317 7.93524L7.02981 7.3407C7.32332 7.2991 7.57852 7.11723 7.71305 6.85136L9.46274 3.19599C9.61847 2.88281 9.94134 2.68789 10.2919 2.69605H10.4012C10.7053 2.73275 10.9703 2.92114 11.1064 3.19599Z" fill="#FEBA00"/>
<path d="M10.3041 16.0782C10.1462 16.0831 9.99237 16.1256 9.85401 16.2014L6.23544 18.0917C5.79268 18.303 5.26283 18.139 5.01459 17.7156C4.92262 17.5426 4.88925 17.3444 4.92018 17.1502L5.64292 13.1323C5.69175 12.8402 5.59409 12.5433 5.38166 12.3377L2.42641 9.47662C2.07562 9.13316 2.06911 8.56943 2.41257 8.21781C2.41746 8.21291 2.42153 8.20883 2.42641 8.20476C2.5664 8.06607 2.74708 7.97469 2.9416 7.94614L7.02166 7.3457C7.3171 7.30817 7.57348 7.12379 7.7037 6.8562L9.47718 3.15483C9.64565 2.85624 9.96877 2.67839 10.3106 2.69715C10.3041 2.93945 10.3041 15.9134 10.3041 16.0782Z" fill="#FEBA00"/>
</svg>
