<svg width="50" height="50" viewBox="0 0 50 50" fill="none" xmlns="http://www.w3.org/2000/svg">
<g clip-path="url(#clip0_482_17396)">
<path d="M0 25C0 11.1927 11.1927 0 25 0C38.8073 0 50 11.1927 50 25C50 38.8073 38.8073 50 25 50C11.1927 50 0 38.8073 0 25Z" fill="#F37021"/>
<path d="M2.5 25C2.5 12.5729 12.5729 2.5 25 2.5C37.4271 2.5 47.5 12.5729 47.5 25C47.5 37.4271 37.4271 47.5 25 47.5C12.5729 47.5 2.5 37.4271 2.5 25Z" fill="url(#paint0_radial_482_17396)"/>
<path fill-rule="evenodd" clip-rule="evenodd" d="M30.9871 15.7084C30.9871 14.4459 31.86 13.7021 32.9933 13.7021C34.1912 13.7021 34.9996 14.5105 34.9996 15.7084C34.9996 17.0021 34.1579 17.7146 32.961 17.7146C31.7954 17.7146 30.9871 17.0021 30.9871 15.7084ZM15.1402 35.6771L16.6923 29.7959H22.9725L24.5902 35.7084C24.6225 35.8376 24.7204 35.8751 24.8819 35.8751H28.1183C28.2798 35.8751 28.3121 35.7782 28.2798 35.6167L22.0329 14.448C22.0006 14.2855 21.936 14.2532 21.8058 14.2532H17.6975C17.6006 14.2532 17.536 14.3178 17.536 14.448C17.5037 15.4188 17.4381 15.7251 17.3412 16.0813L11.7746 35.5834C11.7423 35.8105 11.7746 35.8751 11.9683 35.8751H14.8485C15.0423 35.8751 15.1079 35.8365 15.1402 35.6751V35.6771ZM21.5433 24.2292C21.786 25.1563 22.0048 25.9876 22.1621 26.6084H17.535L17.5871 26.4105C18.3881 23.4001 19.3892 19.6386 19.8006 17.3896H19.8319C20.1787 19.0303 20.9371 21.9209 21.5433 24.2292ZM31.4329 19.9396C31.2715 19.9396 31.2069 20.0053 31.2069 20.1667V35.6167C31.2069 35.7782 31.2715 35.8761 31.4652 35.8761H34.51C34.7048 35.8761 34.7371 35.8105 34.7371 35.649V20.1667C34.7371 20.0053 34.6725 19.9396 34.51 19.9396H31.4329Z" fill="#FF7F18"/>
</g>
<defs>
<radialGradient id="paint0_radial_482_17396" cx="0" cy="0" r="1" gradientUnits="userSpaceOnUse" gradientTransform="translate(20.4406 17.4896) scale(29.3383)">
<stop stop-color="#1C0A00" stop-opacity="0.85"/>
<stop offset="0.767" stop-color="#1C0A00"/>
</radialGradient>
<clipPath id="clip0_482_17396">
<rect width="50" height="50" fill="white"/>
</clipPath>
</defs>
</svg>
