<svg width="61" height="61" viewBox="0 0 61 61" fill="none" xmlns="http://www.w3.org/2000/svg">
<rect x="4.25" y="4" width="52.5" height="52.5" rx="6" fill="url(#paint0_radial_528_10548)"/>
<rect x="4.25" y="4" width="52.5" height="52.5" rx="6" fill="url(#paint1_radial_528_10548)"/>
<rect x="4.25" y="4" width="52.5" height="52.5" rx="6" fill="url(#paint2_radial_528_10548)"/>
<path d="M43.625 19.9375C43.625 21.4908 42.3658 22.75 40.8125 22.75C39.2592 22.75 38 21.4908 38 19.9375C38 18.3842 39.2592 17.125 40.8125 17.125C42.3658 17.125 43.625 18.3842 43.625 19.9375Z" fill="white"/>
<path fill-rule="evenodd" clip-rule="evenodd" d="M30.5 39.625C35.6777 39.625 39.875 35.4277 39.875 30.25C39.875 25.0723 35.6777 20.875 30.5 20.875C25.3223 20.875 21.125 25.0723 21.125 30.25C21.125 35.4277 25.3223 39.625 30.5 39.625ZM30.5 35.875C33.6066 35.875 36.125 33.3566 36.125 30.25C36.125 27.1434 33.6066 24.625 30.5 24.625C27.3934 24.625 24.875 27.1434 24.875 30.25C24.875 33.3566 27.3934 35.875 30.5 35.875Z" fill="white"/>
<path fill-rule="evenodd" clip-rule="evenodd" d="M11.75 29.5C11.75 23.1994 11.75 20.0491 12.9762 17.6426C14.0548 15.5258 15.7758 13.8048 17.8926 12.7262C20.2991 11.5 23.4494 11.5 29.75 11.5H31.25C37.5506 11.5 40.7009 11.5 43.1074 12.7262C45.2242 13.8048 46.9452 15.5258 48.0238 17.6426C49.25 20.0491 49.25 23.1994 49.25 29.5V31C49.25 37.3006 49.25 40.4509 48.0238 42.8574C46.9452 44.9742 45.2242 46.6952 43.1074 47.7738C40.7009 49 37.5506 49 31.25 49H29.75C23.4494 49 20.2991 49 17.8926 47.7738C15.7758 46.6952 14.0548 44.9742 12.9762 42.8574C11.75 40.4509 11.75 37.3006 11.75 31V29.5ZM29.75 15.25H31.25C34.4622 15.25 36.6458 15.2529 38.3336 15.3908C39.9777 15.5251 40.8184 15.7686 41.4049 16.0675C42.8161 16.7865 43.9635 17.9339 44.6825 19.3451C44.9814 19.9316 45.2249 20.7723 45.3592 22.4164C45.4971 24.1042 45.5 26.2878 45.5 29.5V31C45.5 34.2122 45.4971 36.3958 45.3592 38.0836C45.2249 39.7277 44.9814 40.5684 44.6825 41.1549C43.9635 42.5661 42.8161 43.7135 41.4049 44.4325C40.8184 44.7314 39.9777 44.9749 38.3336 45.1092C36.6458 45.2471 34.4622 45.25 31.25 45.25H29.75C26.5378 45.25 24.3542 45.2471 22.6664 45.1092C21.0223 44.9749 20.1816 44.7314 19.5951 44.4325C18.1839 43.7135 17.0365 42.5661 16.3175 41.1549C16.0186 40.5684 15.7751 39.7277 15.6408 38.0836C15.5029 36.3958 15.5 34.2122 15.5 31V29.5C15.5 26.2878 15.5029 24.1042 15.6408 22.4164C15.7751 20.7723 16.0186 19.9316 16.3175 19.3451C17.0365 17.9339 18.1839 16.7865 19.5951 16.0675C20.1816 15.7686 21.0223 15.5251 22.6664 15.3908C24.3542 15.2529 26.5378 15.25 29.75 15.25Z" fill="white"/>
<defs>
<radialGradient id="paint0_radial_528_10548" cx="0" cy="0" r="1" gradientUnits="userSpaceOnUse" gradientTransform="translate(23 43.375) rotate(-55.3758) scale(47.8493)">
<stop stop-color="#B13589"/>
<stop offset="0.79309" stop-color="#C62F94"/>
<stop offset="1" stop-color="#8A3AC8"/>
</radialGradient>
<radialGradient id="paint1_radial_528_10548" cx="0" cy="0" r="1" gradientUnits="userSpaceOnUse" gradientTransform="translate(21.125 58.375) rotate(-65.1363) scale(42.3642)">
<stop stop-color="#E0E8B7"/>
<stop offset="0.444662" stop-color="#FB8A2E"/>
<stop offset="0.71474" stop-color="#E2425C"/>
<stop offset="1" stop-color="#E2425C" stop-opacity="0"/>
</radialGradient>
<radialGradient id="paint2_radial_528_10548" cx="0" cy="0" r="1" gradientUnits="userSpaceOnUse" gradientTransform="translate(1.4375 5.875) rotate(-8.1301) scale(72.9204 15.5969)">
<stop offset="0.156701" stop-color="#406ADC"/>
<stop offset="0.467799" stop-color="#6A45BE"/>
<stop offset="1" stop-color="#6A45BE" stop-opacity="0"/>
</radialGradient>
</defs>
</svg>
