<svg width="20" height="21" viewBox="0 0 20 21" fill="none" xmlns="http://www.w3.org/2000/svg">
<path d="M7.2253 3.37832C8.97319 2.36273 11.1216 2.38048 12.8531 3.42482C14.5676 4.49044 15.6096 6.39225 15.5999 8.43806C15.56 10.4705 14.4426 12.3809 13.046 13.8578C12.2399 14.714 11.3381 15.4712 10.3591 16.1137C10.2582 16.172 10.1478 16.2111 10.0332 16.2289C9.92288 16.2242 9.81545 16.1916 9.7206 16.1341C8.22594 15.1686 6.91467 13.9361 5.84987 12.4961C4.95887 11.294 4.45267 9.84171 4.4 8.33644L4.40399 8.11746C4.47674 6.15262 5.53984 4.35765 7.2253 3.37832ZM10.7258 6.65673C10.0153 6.35469 9.19604 6.51879 8.65065 7.07238C8.10527 7.62598 7.94131 8.45989 8.23533 9.18473C8.52935 9.90958 9.22335 10.3824 9.99328 10.3824C10.4977 10.386 10.9826 10.184 11.3398 9.82129C11.6971 9.45861 11.8972 8.96542 11.8954 8.45161C11.8981 7.66733 11.4364 6.95876 10.7258 6.65673Z" fill="#1A1926"/>
<path d="M10 18.6288C12.2091 18.6288 14 18.2706 14 17.8288C14 17.387 12.2091 17.0288 10 17.0288C7.79086 17.0288 6 17.387 6 17.8288C6 18.2706 7.79086 18.6288 10 18.6288Z" fill="white"/>
<path opacity="0.4" d="M10 18.6288C12.2091 18.6288 14 18.2706 14 17.8288C14 17.387 12.2091 17.0288 10 17.0288C7.79086 17.0288 6 17.387 6 17.8288C6 18.2706 7.79086 18.6288 10 18.6288Z" fill="#1A1926"/>
</svg>
