<svg width="71" height="32" viewBox="0 0 71 32" fill="none" xmlns="http://www.w3.org/2000/svg">
<g clip-path="url(#clip0_482_17421)">
<path d="M44.5 15.9C44.4921 18.311 43.5308 20.6211 41.8259 22.3259C40.1211 24.0308 37.811 24.9921 35.4 25H31.9V21H35.4C36.7526 21 38.0498 20.4627 39.0062 19.5062C39.9627 18.5498 40.5 17.2526 40.5 15.9C40.5 14.5474 39.9627 13.2502 39.0062 12.2938C38.0498 11.3373 36.7526 10.8 35.4 10.8H31.9V6.8H35.4C37.811 6.80791 40.1211 7.7692 41.8259 9.47406C43.5308 11.1789 44.4921 13.489 44.5 15.9ZM25.1 6.8V14.2H18.8L16.5 18.2H29.1V6.8H25.1ZM70.5 12.5C70.5 15.8152 69.183 18.9946 66.8388 21.3388C64.4946 23.683 61.3152 25 58 25V31.8H47.2V26.5C45.7139 28.1868 43.8816 29.5333 41.8281 30.4479C39.7745 31.3625 37.5479 31.8237 35.3 31.8H25.1V25H17.1L13.1 31.8H0.5L19 0H35.4C37.6412 0.0189598 39.8544 0.499334 41.9017 1.41118C43.9491 2.32303 45.7867 3.64681 47.3 5.3V0H58.1C61.3995 0.0211466 64.5563 1.34807 66.8801 3.69056C69.2038 6.03305 70.5054 9.20045 70.5 12.5ZM35.4 27.8C37.6593 27.8055 39.8738 27.1694 41.7857 25.9656C43.6977 24.7618 45.2285 23.0398 46.2 21H51.3V27.8H54.1V21H58.1C59.2166 21.0013 60.3225 20.7824 61.3544 20.3557C62.3862 19.929 63.3238 19.3029 64.1133 18.5133C64.9029 17.7238 65.529 16.7862 65.9557 15.7544C66.3824 14.7225 66.6013 13.6166 66.6 12.5C66.5789 10.2349 65.6629 8.06999 64.0518 6.47762C62.4407 4.88526 60.2652 3.99462 58 4H51.2V14.2H47.2C46.7711 11.3727 45.3466 8.79149 43.1832 6.92141C41.0198 5.05133 38.2596 4.01531 35.4 4H21.4L7.5 27.8H10.8L14.8 21H29.1V27.8H35.4ZM58 6.8H54V10.8H58C58.2236 10.7987 58.4453 10.8417 58.6521 10.9267C58.859 11.0117 59.0469 11.1368 59.205 11.295C59.3632 11.4531 59.4883 11.641 59.5733 11.8479C59.6583 12.0547 59.7013 12.2764 59.7 12.5C59.6874 12.9469 59.5043 13.372 59.1881 13.6881C58.872 14.0043 58.4469 14.1874 58 14.2H54V18.2H58C59.5117 18.2 60.9616 17.5995 62.0305 16.5305C63.0995 15.4615 63.7 14.0117 63.7 12.5C63.6844 10.9931 63.0788 9.55235 62.0132 8.48675C60.9477 7.42116 59.5069 6.81562 58 6.8Z" fill="#D0271D"/>
<path d="M63.6 29.8C63.6 30.1164 63.5062 30.4258 63.3304 30.6889C63.1545 30.952 62.9047 31.1571 62.6123 31.2782C62.3199 31.3993 61.9982 31.431 61.6879 31.3693C61.3775 31.3075 61.0924 31.1551 60.8686 30.9314C60.6449 30.7076 60.4925 30.4225 60.4307 30.1121C60.369 29.8018 60.4007 29.4801 60.5218 29.1877C60.6429 28.8953 60.848 28.6455 61.1111 28.4696C61.3742 28.2938 61.6836 28.2 62 28.2C62.2109 28.1973 62.4201 28.2369 62.6155 28.3163C62.8108 28.3958 62.9882 28.5135 63.1374 28.6626C63.2865 28.8118 63.4042 28.9892 63.4837 29.1845C63.5631 29.3799 63.6027 29.5891 63.6 29.8ZM64 29.8C64 29.4044 63.8827 29.0178 63.6629 28.6889C63.4432 28.36 63.1308 28.1036 62.7654 27.9522C62.3999 27.8009 61.9978 27.7613 61.6098 27.8384C61.2219 27.9156 60.8655 28.1061 60.5858 28.3858C60.3061 28.6655 60.1156 29.0219 60.0384 29.4098C59.9613 29.7978 60.0009 30.1999 60.1522 30.5654C60.3036 30.9308 60.56 31.2432 60.8889 31.4629C61.2178 31.6827 61.6044 31.8 62 31.8C62.5304 31.8 63.0391 31.5893 63.4142 31.2142C63.7893 30.8391 64 30.3304 64 29.8Z" fill="#D0271D"/>
<path d="M62.1 28.9C62.2061 28.9 62.3078 28.9421 62.3828 29.0172C62.4578 29.0922 62.5 29.1939 62.5 29.3C62.5 29.4061 62.4578 29.5078 62.3828 29.5828C62.3078 29.6579 62.2061 29.7 62.1 29.7H61.7V28.9H62.1ZM62.6 28.8C62.4633 28.6745 62.2855 28.6034 62.1 28.6H61.3V31H61.6V30.1H62L62.5 31H62.9L62.3 30C62.4 30 62.5 29.9 62.6 29.8C62.6795 29.6827 62.715 29.541 62.7 29.4C62.7429 29.301 62.7563 29.1917 62.7386 29.0852C62.7208 28.9788 62.6727 28.8797 62.6 28.8Z" fill="#D0271D"/>
</g>
<defs>
<clipPath id="clip0_482_17421">
<rect width="70" height="32" fill="white" transform="translate(0.5)"/>
</clipPath>
</defs>
</svg>
