<svg width="31" height="26" viewBox="0 0 31 26" fill="none" xmlns="http://www.w3.org/2000/svg">
<path d="M4.43816 4.02273L4.43763 4.02323C3.16997 5.20858 2.3334 7.03109 2.33324 9.46373L4.43816 4.02273ZM4.43816 4.02273C5.72225 2.82083 7.55263 2.15723 9.6403 2.1559L4.43816 4.02273ZM29.092 9.46475L29.092 9.46457C29.0922 7.01715 28.232 5.21273 26.9556 4.02599L26.9551 4.0255C25.6628 2.82278 23.8589 2.15668 21.7841 2.15646L21.7837 2.15646C19.9501 2.15568 18.2411 3.33059 16.7667 4.83645L15.6957 5.93021L14.6239 4.83728C13.1483 3.3325 11.4625 2.15571 9.64083 2.1559L29.092 9.46475ZM29.092 9.46475C29.092 11.7332 27.4703 14.0398 24.6723 16.7032C22.8599 18.4286 20.7493 20.1157 18.553 21.8713C17.6105 22.6247 16.6522 23.3907 15.695 24.1778C14.7347 23.3887 13.7738 22.6221 12.8294 21.8687C10.6329 20.1164 8.52528 18.4351 6.72104 16.7064C3.93811 14.0401 2.33348 11.7086 2.33324 9.46391L29.092 9.46475Z" stroke="#6366F1" stroke-width="3"/>
</svg>
