<svg width="60" height="61" viewBox="0 0 60 61" fill="none" xmlns="http://www.w3.org/2000/svg">
<path d="M54.3573 20.3622C53.2154 17.6076 50.9011 14.6339 49.0845 13.6945C50.5632 16.6003 51.4185 19.5149 51.7455 21.6895C51.7455 21.6895 51.7455 21.7049 51.7509 21.7334C48.7793 14.3083 43.7395 11.3137 39.6238 4.79513C39.4149 4.4663 39.2071 4.13746 39.0037 3.78561C38.8889 3.58721 38.7959 3.40745 38.715 3.23755C38.5444 2.90795 38.4126 2.55961 38.3223 2.19953C38.323 2.18243 38.3174 2.16568 38.3065 2.15251C38.2956 2.13935 38.2802 2.13071 38.2633 2.12828C38.2471 2.12391 38.2302 2.12391 38.214 2.12828C38.2097 2.13027 38.2056 2.13285 38.202 2.13596C38.1954 2.13596 38.1889 2.14363 38.1823 2.14582L38.1933 2.13157C31.5905 6.00743 29.3506 13.1771 29.145 16.7647C26.5065 16.9455 23.9836 17.9192 21.9057 19.5587C21.6885 19.3746 21.4614 19.2027 21.2254 19.0435C20.6265 16.9426 20.6012 14.719 21.1521 12.6049C18.4517 13.8381 16.3518 15.7837 14.825 17.5057H14.8129C13.7706 16.1827 13.8439 11.819 13.903 10.9082C13.8909 10.8512 13.1264 11.3061 13.028 11.3751C12.1082 12.0327 11.2485 12.7707 10.4588 13.5805C9.56026 14.4935 8.73931 15.4802 8.00455 16.5301C6.31411 18.9311 5.11526 21.644 4.47732 24.512C4.46529 24.569 4.45435 24.6282 4.44232 24.6863C4.3931 24.9176 4.21483 26.0784 4.18311 26.3305V26.3886C3.9507 27.588 3.80595 28.8028 3.75 30.0233V30.1581C3.75 44.7058 15.5184 56.5 30.0342 56.5C43.0351 56.5 53.829 47.0405 55.9432 34.6149C55.9869 34.2784 56.023 33.9386 56.0624 33.5988C56.5852 29.0807 56.0044 24.3323 54.3573 20.3622ZM24.0614 40.9823C24.1839 41.0404 24.2998 41.105 24.4256 41.162L24.4431 41.173C24.3173 41.1116 24.1893 41.048 24.0625 40.9823H24.0614ZM51.7531 21.7454V21.7202V21.7487V21.7454Z" fill="url(#paint0_linear_528_10532)"/>
<path d="M54.357 20.3622C53.2152 17.6077 50.9009 14.634 49.0842 13.6946C50.563 16.6004 51.4182 19.5149 51.7453 21.6896V21.7433C54.2258 28.4823 52.874 35.3352 50.9272 39.5223C47.9151 46.0004 40.6233 52.6406 29.2082 52.3173C16.8853 51.9665 6.02142 42.7909 3.99258 30.783C3.6229 28.8878 3.99258 27.9265 4.17851 26.3887C3.95211 27.5736 3.8657 27.9167 3.75305 30.0234V30.1582C3.75305 44.7059 15.5214 56.5001 30.0372 56.5001C43.0382 56.5001 53.8321 47.0406 55.9462 34.615C55.99 34.2785 56.0261 33.9387 56.0654 33.5989C56.5849 29.0807 56.0042 24.3324 54.357 20.3622Z" fill="url(#paint1_radial_528_10532)"/>
<path d="M54.357 20.3622C53.2152 17.6077 50.9009 14.634 49.0842 13.6946C50.563 16.6004 51.4182 19.5149 51.7453 21.6896V21.7433C54.2258 28.4823 52.874 35.3352 50.9272 39.5223C47.9151 46.0004 40.6233 52.6406 29.2082 52.3173C16.8853 51.9665 6.02142 42.7909 3.99258 30.783C3.6229 28.8878 3.99258 27.9265 4.17851 26.3887C3.95211 27.5736 3.8657 27.9167 3.75305 30.0234V30.1582C3.75305 44.7059 15.5214 56.5001 30.0372 56.5001C43.0382 56.5001 53.8321 47.0406 55.9462 34.615C55.99 34.2785 56.0261 33.9387 56.0654 33.5989C56.5849 29.0807 56.0042 24.3324 54.357 20.3622Z" fill="url(#paint2_radial_528_10532)"/>
<path d="M41.5839 23.4576C41.6419 23.4982 41.6933 23.5387 41.7479 23.5793C41.0883 22.4054 40.2664 21.3308 39.3068 20.3874C31.1367 12.1994 37.1653 2.63252 38.1813 2.14584L38.1923 2.13159C31.5895 6.00745 29.3496 13.1771 29.144 16.7647C29.4502 16.7439 29.7554 16.7176 30.0671 16.7176C34.9943 16.7176 39.286 19.4338 41.5839 23.4576Z" fill="url(#paint3_radial_528_10532)"/>
<path d="M30.0834 25.0931C30.0407 25.7507 27.7308 28.0087 26.9225 28.0087C19.4481 28.0087 18.2352 32.5401 18.2352 32.5401C18.5633 36.3567 21.2166 39.4993 24.4267 41.1621C24.5732 41.2377 24.7209 41.3057 24.8642 41.3736C25.1212 41.4833 25.3793 41.5929 25.6363 41.6904C26.7372 42.0796 27.89 42.3012 29.0564 42.3481C42.1569 42.9641 44.6965 26.6495 35.2413 21.9121C37.6617 21.4901 40.1751 22.4668 41.5783 23.4544C39.2815 19.4305 34.9887 16.7144 30.0615 16.7144C29.7498 16.7144 29.4447 16.7407 29.1384 16.7615C26.5018 16.9446 23.9814 17.9193 21.9057 19.5588C22.3071 19.8997 22.7599 20.3535 23.7125 21.2939C25.4996 23.0609 30.0735 24.8793 30.0834 25.0931Z" fill="url(#paint4_radial_528_10532)"/>
<path d="M30.0834 25.0931C30.0407 25.7507 27.7308 28.0087 26.9225 28.0087C19.4481 28.0087 18.2352 32.5401 18.2352 32.5401C18.5633 36.3567 21.2166 39.4993 24.4267 41.1621C24.5732 41.2377 24.7209 41.3057 24.8642 41.3736C25.1212 41.4833 25.3793 41.5929 25.6363 41.6904C26.7372 42.0796 27.89 42.3012 29.0564 42.3481C42.1569 42.9641 44.6965 26.6495 35.2413 21.9121C37.6617 21.4901 40.1751 22.4668 41.5783 23.4544C39.2815 19.4305 34.9887 16.7144 30.0615 16.7144C29.7498 16.7144 29.4447 16.7407 29.1384 16.7615C26.5018 16.9446 23.9814 17.9193 21.9057 19.5588C22.3071 19.8997 22.7599 20.3535 23.7125 21.2939C25.4996 23.0609 30.0735 24.8793 30.0834 25.0931Z" fill="url(#paint5_radial_528_10532)"/>
<path d="M20.6839 18.6829C20.8972 18.821 21.0722 18.9372 21.2307 19.0436C20.6319 16.9426 20.6066 14.7191 21.1575 12.605C18.4571 13.8381 16.3571 15.7837 14.8303 17.5057C14.9539 17.5024 18.7666 17.4334 20.6839 18.6829Z" fill="url(#paint6_radial_528_10532)"/>
<path d="M3.9935 30.783C6.02234 42.791 16.8862 51.9665 29.2178 52.3173C40.6329 52.6406 47.9204 46.0004 50.9368 39.5223C52.8836 35.3341 54.2355 28.4823 51.7549 21.7434V21.6929C51.7549 21.6995 51.7549 21.7083 51.7604 21.7368C52.6922 27.8389 49.5959 33.7502 44.7551 37.7477C44.7501 37.7589 44.7454 37.7703 44.7409 37.7817C35.3076 45.4797 26.2812 42.4259 24.4536 41.1797C24.3267 41.1183 24.1988 41.0547 24.0719 40.9889C18.5716 38.3583 16.3 33.3326 16.7867 29.0259C12.1439 29.0259 10.5602 25.0997 10.5602 25.0997C10.5602 25.0997 14.7294 22.1204 20.2242 24.7116C25.3133 27.1121 30.0928 25.1008 30.0928 25.0997C30.083 24.8859 25.5091 23.062 23.7252 21.3005C22.7726 20.3601 22.3198 19.9063 21.9184 19.5654C21.7012 19.3813 21.4741 19.2093 21.2381 19.0502C21.0817 18.9406 20.91 18.831 20.6912 18.6896C18.774 17.44 14.9613 17.5091 14.8355 17.5124H14.8235C13.7811 16.1893 13.8544 11.8257 13.9135 10.9148C13.9015 10.8578 13.1369 11.3127 13.0385 11.3818C12.1188 12.0394 11.259 12.7774 10.4694 13.5872C9.57079 14.5002 8.74984 15.4868 8.01508 16.5368C6.32464 18.9377 5.1258 21.6506 4.48785 24.5187C4.46707 24.5691 3.53195 28.6609 3.9935 30.783Z" fill="url(#paint7_radial_528_10532)"/>
<path d="M39.3067 20.3874C40.2664 21.3308 41.0882 22.4054 41.7479 23.5793C41.8846 23.6821 42.016 23.7919 42.1416 23.9081C48.1002 29.4062 44.9831 37.1897 44.7458 37.7487C49.5865 33.7512 52.6829 27.8399 51.751 21.7378C48.7794 14.3083 43.7395 11.3137 39.6239 4.79513C39.415 4.4663 39.2072 4.13746 39.0038 3.78561C38.8889 3.58721 38.796 3.40745 38.715 3.23755C38.5445 2.90795 38.4127 2.55961 38.3224 2.19953C38.3231 2.18243 38.3174 2.16568 38.3065 2.15251C38.2956 2.13935 38.2802 2.13071 38.2633 2.12828C38.2472 2.12391 38.2302 2.12391 38.2141 2.12828C38.2098 2.13027 38.2057 2.13285 38.2021 2.13596C38.1955 2.13596 38.1889 2.14363 38.1824 2.14582C37.1652 2.6325 31.1367 12.1994 39.3067 20.3874Z" fill="url(#paint8_radial_528_10532)"/>
<path d="M42.1394 23.9026C42.0138 23.7864 41.8824 23.6767 41.7457 23.5738C41.6921 23.5332 41.6363 23.4927 41.5816 23.4521C40.1784 22.4656 37.665 21.4879 35.2446 21.9099C44.6987 26.6473 42.1602 42.9619 29.0597 42.3459C27.8933 42.299 26.7405 42.0773 25.6396 41.6882C25.3826 41.5917 25.1245 41.4854 24.8675 41.3714C24.7187 41.3035 24.5711 41.2355 24.43 41.1599L24.4475 41.1708C26.2751 42.4204 35.3015 45.4742 44.7348 37.7729C44.7348 37.7729 44.7402 37.7586 44.749 37.7389C44.9831 37.1897 48.1001 29.4062 42.1394 23.9026Z" fill="url(#paint9_radial_528_10532)"/>
<path d="M18.235 32.54C18.235 32.54 19.448 28.0087 26.9224 28.0087C27.7307 28.0087 30.0406 25.7485 30.0832 25.093C30.1259 24.4375 25.3037 27.1055 20.2147 24.705C14.7198 22.1138 10.5506 25.093 10.5506 25.093C10.5506 25.093 12.1343 29.0193 16.7771 29.0193C16.2904 33.3259 18.5621 38.3472 24.0623 40.9823C24.1848 41.0404 24.3008 41.1051 24.4266 41.1621C21.2165 39.5025 18.5664 36.3567 18.235 32.54Z" fill="url(#paint10_radial_528_10532)"/>
<path d="M54.3573 20.3622C53.2154 17.6076 50.9011 14.6339 49.0845 13.6945C50.5632 16.6003 51.4185 19.5149 51.7455 21.6895C51.7455 21.6895 51.7455 21.7049 51.7509 21.7334C48.7793 14.3083 43.7395 11.3137 39.6238 4.79513C39.4149 4.4663 39.2071 4.13746 39.0037 3.78561C38.8889 3.58721 38.7959 3.40745 38.715 3.23755C38.5444 2.90795 38.4126 2.55961 38.3223 2.19953C38.323 2.18243 38.3174 2.16568 38.3065 2.15251C38.2956 2.13935 38.2802 2.13071 38.2633 2.12828C38.2471 2.12391 38.2302 2.12391 38.214 2.12828C38.2097 2.13027 38.2056 2.13285 38.202 2.13596C38.1954 2.13596 38.1889 2.14363 38.1823 2.14582L38.1933 2.13157C31.5905 6.00743 29.3506 13.1771 29.145 16.7647C29.4512 16.7439 29.7563 16.7176 30.0681 16.7176C34.9952 16.7176 39.287 19.4337 41.5849 23.4576C40.1816 22.4711 37.6683 21.4933 35.2479 21.9153C44.702 26.6528 42.1634 42.9673 29.0629 42.3513C27.8965 42.3045 26.7437 42.0828 25.6429 41.6936C25.3859 41.5972 25.1277 41.4909 24.8707 41.3769C24.722 41.3089 24.5743 41.2409 24.4332 41.1653L24.4507 41.1763C24.3239 41.1149 24.1959 41.0513 24.069 40.9856C24.1915 41.0436 24.3075 41.1083 24.4332 41.1653C21.2166 39.5025 18.5666 36.3567 18.2352 32.54C18.2352 32.54 19.4481 28.0086 26.9225 28.0086C27.7308 28.0086 30.0407 25.7485 30.0834 25.093C30.0735 24.8792 25.4996 23.0553 23.7158 21.2938C22.7631 20.3534 22.3103 19.8996 21.9089 19.5587C21.6918 19.3746 21.4646 19.2027 21.2287 19.0435C20.6298 16.9426 20.6045 14.719 21.1554 12.6049C18.455 13.8381 16.3551 15.7837 14.8282 17.5057H14.8162C13.7739 16.1827 13.8472 11.819 13.9062 10.9082C13.8942 10.8512 13.1297 11.3061 13.0313 11.3751C12.1115 12.0327 11.2518 12.7707 10.4621 13.5805C9.56354 14.4935 8.74259 15.4802 8.00783 16.5301C6.31739 18.9311 5.11854 21.644 4.4806 24.512C4.46857 24.569 4.45763 24.6282 4.4456 24.6863C4.39639 24.9176 4.17327 26.0948 4.14264 26.3469C4.14264 26.3283 4.14264 26.3667 4.14264 26.3469C3.93785 27.5633 3.80673 28.791 3.75 30.0233V30.1581C3.75 44.7058 15.5184 56.5 30.0342 56.5C43.0351 56.5 53.829 47.0405 55.9432 34.6149C55.9869 34.2784 56.023 33.9386 56.0624 33.5988C56.5852 29.0807 56.0044 24.3323 54.3573 20.3622ZM51.7499 21.7148V21.7433V21.7148Z" fill="url(#paint11_linear_528_10532)"/>
<defs>
<linearGradient id="paint0_linear_528_10532" x1="50.8782" y1="10.5486" x2="7.15111" y2="52.6445" gradientUnits="userSpaceOnUse">
<stop offset="0.05" stop-color="#FFF44F"/>
<stop offset="0.11" stop-color="#FFE847"/>
<stop offset="0.22" stop-color="#FFC830"/>
<stop offset="0.37" stop-color="#FF980E"/>
<stop offset="0.4" stop-color="#FF8B16"/>
<stop offset="0.46" stop-color="#FF672A"/>
<stop offset="0.53" stop-color="#FF3647"/>
<stop offset="0.7" stop-color="#E31587"/>
</linearGradient>
<radialGradient id="paint1_radial_528_10532" cx="0" cy="0" r="1" gradientUnits="userSpaceOnUse" gradientTransform="translate(48.8611 8.1603) scale(54.7962 54.9164)">
<stop offset="0.13" stop-color="#FFBD4F"/>
<stop offset="0.19" stop-color="#FFAC31"/>
<stop offset="0.25" stop-color="#FF9D17"/>
<stop offset="0.28" stop-color="#FF980E"/>
<stop offset="0.4" stop-color="#FF563B"/>
<stop offset="0.47" stop-color="#FF3750"/>
<stop offset="0.71" stop-color="#F5156C"/>
<stop offset="0.78" stop-color="#EB0878"/>
<stop offset="0.86" stop-color="#E50080"/>
</radialGradient>
<radialGradient id="paint2_radial_528_10532" cx="0" cy="0" r="1" gradientUnits="userSpaceOnUse" gradientTransform="translate(28.8385 30.6109) scale(54.7962 54.9164)">
<stop offset="0.3" stop-color="#960E18"/>
<stop offset="0.35" stop-color="#B11927" stop-opacity="0.74"/>
<stop offset="0.43" stop-color="#DB293D" stop-opacity="0.34"/>
<stop offset="0.5" stop-color="#F5334B" stop-opacity="0.09"/>
<stop offset="0.53" stop-color="#FF3750" stop-opacity="0"/>
</radialGradient>
<radialGradient id="paint3_radial_528_10532" cx="0" cy="0" r="1" gradientUnits="userSpaceOnUse" gradientTransform="translate(35.446 -4.3026) scale(39.6975 39.7846)">
<stop offset="0.13" stop-color="#FFF44F"/>
<stop offset="0.25" stop-color="#FFDC3E"/>
<stop offset="0.51" stop-color="#FF9D12"/>
<stop offset="0.53" stop-color="#FF980E"/>
</radialGradient>
<radialGradient id="paint4_radial_528_10532" cx="0" cy="0" r="1" gradientUnits="userSpaceOnUse" gradientTransform="translate(22.7785 44.9557) scale(26.0906 26.1478)">
<stop offset="0.35" stop-color="#3A8EE6"/>
<stop offset="0.47" stop-color="#5C79F0"/>
<stop offset="0.67" stop-color="#9059FF"/>
<stop offset="1" stop-color="#C139E6"/>
</radialGradient>
<radialGradient id="paint5_radial_528_10532" cx="0" cy="0" r="1" gradientUnits="userSpaceOnUse" gradientTransform="translate(29.6257 24.0843) rotate(-13.9265) scale(13.8247 16.2722)">
<stop offset="0.21" stop-color="#9059FF" stop-opacity="0"/>
<stop offset="0.28" stop-color="#8C4FF3" stop-opacity="0.06"/>
<stop offset="0.75" stop-color="#7716A8" stop-opacity="0.45"/>
<stop offset="0.97" stop-color="#6E008B" stop-opacity="0.6"/>
</radialGradient>
<radialGradient id="paint6_radial_528_10532" cx="0" cy="0" r="1" gradientUnits="userSpaceOnUse" gradientTransform="translate(28.1463 5.9132) scale(18.7703 18.8115)">
<stop stop-color="#FFE226"/>
<stop offset="0.12" stop-color="#FFDB27"/>
<stop offset="0.3" stop-color="#FFC82A"/>
<stop offset="0.5" stop-color="#FFA930"/>
<stop offset="0.73" stop-color="#FF7E37"/>
<stop offset="0.79" stop-color="#FF7139"/>
</radialGradient>
<radialGradient id="paint7_radial_528_10532" cx="0" cy="0" r="1" gradientUnits="userSpaceOnUse" gradientTransform="translate(42.9013 -6.01794) scale(80.0829 80.2586)">
<stop offset="0.11" stop-color="#FFF44F"/>
<stop offset="0.46" stop-color="#FF980E"/>
<stop offset="0.62" stop-color="#FF5634"/>
<stop offset="0.72" stop-color="#FF3647"/>
<stop offset="0.9" stop-color="#E31587"/>
</radialGradient>
<radialGradient id="paint8_radial_528_10532" cx="0" cy="0" r="1" gradientUnits="userSpaceOnUse" gradientTransform="translate(35.1597 2.75077) rotate(84.2447) scale(58.4993 38.3518)">
<stop stop-color="#FFF44F"/>
<stop offset="0.06" stop-color="#FFE847"/>
<stop offset="0.17" stop-color="#FFC830"/>
<stop offset="0.3" stop-color="#FF980E"/>
<stop offset="0.36" stop-color="#FF8B16"/>
<stop offset="0.45" stop-color="#FF672A"/>
<stop offset="0.57" stop-color="#FF3647"/>
<stop offset="0.74" stop-color="#E31587"/>
</radialGradient>
<radialGradient id="paint9_radial_528_10532" cx="0" cy="0" r="1" gradientUnits="userSpaceOnUse" gradientTransform="translate(27.7046 12.8801) scale(49.9958 50.1056)">
<stop offset="0.14" stop-color="#FFF44F"/>
<stop offset="0.48" stop-color="#FF980E"/>
<stop offset="0.59" stop-color="#FF5634"/>
<stop offset="0.66" stop-color="#FF3647"/>
<stop offset="0.9" stop-color="#E31587"/>
</radialGradient>
<radialGradient id="paint10_radial_528_10532" cx="0" cy="0" r="1" gradientUnits="userSpaceOnUse" gradientTransform="translate(40.9023 15.8133) scale(54.7207 54.8408)">
<stop offset="0.09" stop-color="#FFF44F"/>
<stop offset="0.23" stop-color="#FFE141"/>
<stop offset="0.51" stop-color="#FFAF1E"/>
<stop offset="0.63" stop-color="#FF980E"/>
</radialGradient>
<linearGradient id="paint11_linear_528_10532" x1="50.3532" y1="10.3228" x2="13.1446" y2="47.4511" gradientUnits="userSpaceOnUse">
<stop offset="0.17" stop-color="#FFF44F" stop-opacity="0.8"/>
<stop offset="0.27" stop-color="#FFF44F" stop-opacity="0.63"/>
<stop offset="0.49" stop-color="#FFF44F" stop-opacity="0.22"/>
<stop offset="0.6" stop-color="#FFF44F" stop-opacity="0"/>
</linearGradient>
</defs>
</svg>
