<svg width="90" height="90" viewBox="0 0 90 90" fill="none" xmlns="http://www.w3.org/2000/svg">
<rect width="90" height="90" rx="14.4" fill="#FFD208"/>
<path d="M59.175 32.85H53.1V30.825C53.1 29.7509 52.6733 28.7208 51.9138 27.9612C51.1543 27.2017 50.1241 26.775 49.05 26.775H40.95C39.8759 26.775 38.8457 27.2017 38.0862 27.9612C37.3267 28.7208 36.9 29.7509 36.9 30.825V32.85H30.825C29.2138 32.85 27.6686 33.4901 26.5293 34.6294C25.39 35.7686 24.75 37.3138 24.75 38.925V57.15C24.75 58.7612 25.39 60.3064 26.5293 61.4457C27.6686 62.585 29.2138 63.225 30.825 63.225H59.175C60.7862 63.225 62.3314 62.585 63.4707 61.4457C64.61 60.3064 65.25 58.7612 65.25 57.15V38.925C65.25 37.3138 64.61 35.7686 63.4707 34.6294C62.3314 33.4901 60.7862 32.85 59.175 32.85ZM40.95 30.825H49.05V32.85H40.95V30.825ZM61.2 57.15C61.2 57.6871 60.9867 58.2022 60.6069 58.5819C60.2271 58.9617 59.7121 59.175 59.175 59.175H30.825C30.2879 59.175 29.7729 58.9617 29.3931 58.5819C29.0133 58.2022 28.8 57.6871 28.8 57.15V45.7898L38.277 49.05C38.492 49.0792 38.71 49.0792 38.925 49.05H51.075C51.2946 49.046 51.5126 49.0119 51.723 48.9488L61.2 45.7898V57.15ZM61.2 41.517L50.751 45H39.249L28.8 41.517V38.925C28.8 38.388 29.0133 37.8729 29.3931 37.4931C29.7729 37.1134 30.2879 36.9 30.825 36.9H59.175C59.7121 36.9 60.2271 37.1134 60.6069 37.4931C60.9867 37.8729 61.2 38.388 61.2 38.925V41.517Z" fill="white"/>
</svg>
