<svg width="50" height="50" viewBox="0 0 50 50" fill="none" xmlns="http://www.w3.org/2000/svg">
<g clip-path="url(#clip0_482_17380)">
<path d="M0 25C0 11.1927 11.1927 0 25 0C38.8073 0 50 11.1927 50 25C50 38.8073 38.8073 50 25 50C11.1927 50 0 38.8073 0 25Z" fill="#31C5F0"/>
<path d="M2.5 25C2.5 12.5729 12.5729 2.5 25 2.5C37.4271 2.5 47.5 12.5729 47.5 25C47.5 37.4271 37.4271 47.5 25 47.5C12.5729 47.5 2.5 37.4271 2.5 25Z" fill="url(#paint0_radial_482_17380)"/>
<path fill-rule="evenodd" clip-rule="evenodd" d="M12.5 14.4938C12.5 14.3625 12.7802 14.2646 12.9437 14.2646C14.2177 14.199 16.0885 14.1667 18.0479 14.1667C23.5375 14.1667 25.675 17.1719 25.675 21.0271C25.675 26.0583 22.026 28.2146 17.55 28.2146C17.1406 28.2146 16.876 28.2042 16.6365 28.1958C16.4293 28.1872 16.2219 28.1827 16.0146 28.1823V35.7896C16.0146 35.9531 15.949 36.0188 15.7854 36.0188H12.7292C12.5656 36.0188 12.5 35.9521 12.5 35.7896V14.4938ZM16.0146 25.0135C16.4719 25.0448 16.8312 25.0448 17.6156 25.0448C19.9344 25.0448 22.1135 24.2292 22.1135 21.0927C22.1135 18.5771 20.5552 17.3031 17.9094 17.3031C17.125 17.3031 16.374 17.3344 16.0135 17.3688V25.0125L16.0146 25.0135ZM30.9656 24.0979C30.9656 23.4448 31.4885 22.6604 33.0562 22.6604C34.3312 22.6604 35.6292 22.9875 36.5104 23.5104C36.7062 23.576 36.8042 23.4771 36.8042 23.3146V20.6021C36.8042 20.4719 36.7719 20.3083 36.6083 20.2104C35.9552 19.9167 34.7552 19.6552 33.0562 19.6552C29.5937 19.6552 27.601 21.7781 27.601 24.3271C27.601 26.6135 28.7771 27.9854 31.5865 29.325C33.5792 30.3708 34.0365 30.9917 34.0365 31.7104C34.0365 32.5927 33.3833 33.2458 31.8156 33.2458C30.5083 33.2458 29.0677 32.8865 27.826 32.0688C27.6958 31.9719 27.5969 32.0375 27.5969 32.2333V35.1406C27.5969 35.3042 27.6302 35.4021 27.7604 35.4677C28.6104 35.9573 30.0833 36.3167 31.8156 36.3167C35.0823 36.3167 37.5 34.6188 37.5 31.449C37.5 29.326 36.5208 27.8885 33.4167 26.3854C31.325 25.3073 30.9656 24.8167 30.9656 24.0979Z" fill="#31C5F0"/>
</g>
<defs>
<radialGradient id="paint0_radial_482_17380" cx="0" cy="0" r="1" gradientUnits="userSpaceOnUse" gradientTransform="translate(20.4406 17.4896) scale(29.3383)">
<stop stop-color="#0E0E17" stop-opacity="0.85"/>
<stop offset="0.767" stop-color="#0E0E17"/>
</radialGradient>
<clipPath id="clip0_482_17380">
<rect width="50" height="50" fill="white"/>
</clipPath>
</defs>
</svg>
