<svg width="17" height="17" viewBox="0 0 17 17" fill="none" xmlns="http://www.w3.org/2000/svg">
<path d="M8.97649 1.27717L10.8153 4.92963C10.9431 5.18366 11.1904 5.35968 11.4764 5.40035L15.5882 5.98609C16.3085 6.08877 16.5958 6.95621 16.0748 7.45394L13.0995 10.297C12.8928 10.4946 12.7982 10.7797 12.8472 11.0587L13.5495 15.0732C13.6726 15.7763 12.9196 16.3124 12.2755 15.9807L8.59799 14.0854C8.34226 13.9537 8.03653 13.9537 7.7808 14.0854L4.10325 15.9807C3.45915 16.3127 2.70623 15.7763 2.82933 15.0732L3.53158 11.0587C3.58055 10.7797 3.48601 10.4946 3.27925 10.297L0.30395 7.45394C-0.217042 6.95588 0.0703197 6.08844 0.790595 5.98609L4.90242 5.40035C5.18842 5.35968 5.43565 5.18366 5.56352 4.92963L7.4023 1.27717C7.72401 0.637427 8.65445 0.637427 8.97649 1.27717Z" fill="#FEBA00"/>
</svg>
