<svg width="806" height="390" viewBox="0 0 806 390" fill="none" xmlns="http://www.w3.org/2000/svg">
<rect width="806" height="390" rx="10" fill="white"/>
<path d="M44.1506 98.2727V107H42.8295V99.5938H42.7784L40.6903 100.957V99.696L42.8679 98.2727H44.1506ZM49.5497 107.145C48.8764 107.142 48.3011 106.964 47.8239 106.612C47.3466 106.26 46.9815 105.747 46.7287 105.074C46.4759 104.401 46.3494 103.589 46.3494 102.641C46.3494 101.695 46.4759 100.886 46.7287 100.216C46.9844 99.5455 47.3509 99.0341 47.8281 98.6818C48.3082 98.3295 48.8821 98.1534 49.5497 98.1534C50.2173 98.1534 50.7898 98.331 51.267 98.6861C51.7443 99.0384 52.1094 99.5497 52.3622 100.22C52.6179 100.888 52.7457 101.695 52.7457 102.641C52.7457 103.592 52.6193 104.405 52.3665 105.078C52.1136 105.749 51.7486 106.261 51.2713 106.616C50.794 106.969 50.2202 107.145 49.5497 107.145ZM49.5497 106.007C50.1406 106.007 50.6023 105.719 50.9347 105.142C51.2699 104.565 51.4375 103.732 51.4375 102.641C51.4375 101.916 51.3608 101.304 51.2074 100.804C51.0568 100.301 50.8395 99.9205 50.5554 99.6619C50.2741 99.4006 49.9389 99.2699 49.5497 99.2699C48.9616 99.2699 48.5 99.5597 48.1648 100.139C47.8295 100.719 47.6605 101.553 47.6577 102.641C47.6577 103.368 47.733 103.983 47.8835 104.486C48.0369 104.986 48.2543 105.365 48.5355 105.624C48.8168 105.879 49.1548 106.007 49.5497 106.007ZM57.2958 107.145C56.6225 107.142 56.0472 106.964 55.57 106.612C55.0927 106.26 54.7276 105.747 54.4748 105.074C54.2219 104.401 54.0955 103.589 54.0955 102.641C54.0955 101.695 54.2219 100.886 54.4748 100.216C54.7305 99.5455 55.0969 99.0341 55.5742 98.6818C56.0543 98.3295 56.6282 98.1534 57.2958 98.1534C57.9634 98.1534 58.5359 98.331 59.0131 98.6861C59.4904 99.0384 59.8555 99.5497 60.1083 100.22C60.364 100.888 60.4918 101.695 60.4918 102.641C60.4918 103.592 60.3654 104.405 60.1126 105.078C59.8597 105.749 59.4947 106.261 59.0174 106.616C58.5401 106.969 57.9663 107.145 57.2958 107.145ZM57.2958 106.007C57.8867 106.007 58.3484 105.719 58.6808 105.142C59.016 104.565 59.1836 103.732 59.1836 102.641C59.1836 101.916 59.1069 101.304 58.9535 100.804C58.8029 100.301 58.5856 99.9205 58.3015 99.6619C58.0202 99.4006 57.685 99.2699 57.2958 99.2699C56.7077 99.2699 56.2461 99.5597 55.9109 100.139C55.5756 100.719 55.4066 101.553 55.4038 102.641C55.4038 103.368 55.479 103.983 55.6296 104.486C55.783 104.986 56.0004 105.365 56.2816 105.624C56.5629 105.879 56.9009 106.007 57.2958 106.007ZM66.5589 105.364V104.903C66.5589 104.574 66.6271 104.273 66.7635 104C66.9027 103.724 67.1044 103.504 67.3686 103.339C67.6357 103.172 67.9581 103.088 68.3359 103.088C68.7223 103.088 69.0462 103.17 69.3075 103.335C69.5689 103.5 69.7663 103.72 69.8999 103.996C70.0362 104.271 70.1044 104.574 70.1044 104.903V105.364C70.1044 105.693 70.0362 105.996 69.8999 106.271C69.7635 106.544 69.5632 106.764 69.299 106.932C69.0376 107.097 68.7166 107.179 68.3359 107.179C67.9524 107.179 67.6286 107.097 67.3643 106.932C67.1001 106.764 66.8999 106.544 66.7635 106.271C66.6271 105.996 66.5589 105.693 66.5589 105.364ZM67.5518 104.903V105.364C67.5518 105.608 67.6101 105.83 67.7266 106.028C67.843 106.227 68.0462 106.327 68.3359 106.327C68.6229 106.327 68.8232 106.227 68.9368 106.028C69.0504 105.83 69.1072 105.608 69.1072 105.364V104.903C69.1072 104.659 69.0518 104.437 68.9411 104.239C68.8331 104.04 68.6314 103.94 68.3359 103.94C68.0518 103.94 67.8501 104.04 67.7308 104.239C67.6115 104.437 67.5518 104.659 67.5518 104.903ZM62.1697 100.369V99.9091C62.1697 99.5795 62.2379 99.277 62.3743 99.0014C62.5135 98.7259 62.7152 98.5057 62.9794 98.3409C63.2464 98.1761 63.5689 98.0938 63.9467 98.0938C64.3331 98.0938 64.657 98.1761 64.9183 98.3409C65.1797 98.5057 65.3771 98.7259 65.5107 99.0014C65.6442 99.277 65.7109 99.5795 65.7109 99.9091V100.369C65.7109 100.699 65.6428 101.001 65.5064 101.277C65.3729 101.55 65.174 101.77 64.9098 101.938C64.6484 102.102 64.3274 102.185 63.9467 102.185C63.5604 102.185 63.2351 102.102 62.9709 101.938C62.7095 101.77 62.5107 101.55 62.3743 101.277C62.2379 101.001 62.1697 100.699 62.1697 100.369ZM63.1669 99.9091V100.369C63.1669 100.614 63.2237 100.835 63.3374 101.034C63.4538 101.233 63.657 101.332 63.9467 101.332C64.2308 101.332 64.4297 101.233 64.5433 101.034C64.6598 100.835 64.718 100.614 64.718 100.369V99.9091C64.718 99.6648 64.6626 99.4432 64.5518 99.2443C64.4411 99.0455 64.2393 98.946 63.9467 98.946C63.6626 98.946 63.4609 99.0455 63.3416 99.2443C63.2251 99.4432 63.1669 99.6648 63.1669 99.9091ZM62.5746 107L68.5746 98.2727H69.593L63.593 107H62.5746Z" fill="#98A2B3"/>
<path d="M43.7884 152.119C43.1776 152.119 42.6378 152.014 42.169 151.804C41.7031 151.594 41.3381 151.304 41.0739 150.935C40.8097 150.565 40.679 150.145 40.6818 149.673C40.679 149.304 40.7543 148.964 40.9077 148.655C41.0639 148.342 41.2756 148.082 41.5426 147.875C41.8097 147.665 42.108 147.531 42.4375 147.474V147.423C42.0028 147.318 41.6548 147.085 41.3935 146.724C41.1321 146.364 41.0028 145.949 41.0057 145.48C41.0028 145.034 41.1207 144.636 41.3594 144.287C41.6009 143.935 41.9318 143.658 42.3523 143.456C42.7727 143.254 43.2514 143.153 43.7884 143.153C44.3196 143.153 44.794 143.256 45.2116 143.46C45.6321 143.662 45.9631 143.939 46.2045 144.291C46.446 144.641 46.5682 145.037 46.571 145.48C46.5682 145.949 46.4347 146.364 46.1705 146.724C45.9063 147.085 45.5625 147.318 45.1392 147.423V147.474C45.4659 147.531 45.7599 147.665 46.0213 147.875C46.2855 148.082 46.4957 148.342 46.652 148.655C46.8111 148.964 46.892 149.304 46.8949 149.673C46.892 150.145 46.7585 150.565 46.4943 150.935C46.2301 151.304 45.8636 151.594 45.3949 151.804C44.929 152.014 44.3935 152.119 43.7884 152.119ZM43.7884 151.041C44.1491 151.041 44.4616 150.982 44.7259 150.862C44.9901 150.74 45.1946 150.571 45.3395 150.355C45.4844 150.136 45.5582 149.881 45.5611 149.588C45.5582 149.284 45.4787 149.016 45.3224 148.783C45.169 148.55 44.9602 148.366 44.696 148.233C44.4318 148.099 44.1293 148.033 43.7884 148.033C43.4446 148.033 43.1392 148.099 42.8722 148.233C42.6051 148.366 42.3949 148.55 42.2415 148.783C42.0881 149.016 42.0128 149.284 42.0156 149.588C42.0128 149.881 42.0824 150.136 42.2244 150.355C42.3693 150.571 42.5753 150.74 42.8423 150.862C43.1094 150.982 43.4247 151.041 43.7884 151.041ZM43.7884 146.98C44.0781 146.98 44.3352 146.922 44.5597 146.805C44.7841 146.689 44.9602 146.527 45.0881 146.32C45.2188 146.112 45.2855 145.869 45.2884 145.591C45.2855 145.318 45.2202 145.08 45.0923 144.875C44.9673 144.67 44.7926 144.513 44.5682 144.402C44.3438 144.288 44.0838 144.232 43.7884 144.232C43.4872 144.232 43.223 144.288 42.9957 144.402C42.7713 144.513 42.5966 144.67 42.4716 144.875C42.3466 145.08 42.2855 145.318 42.2884 145.591C42.2855 145.869 42.348 146.112 42.4759 146.32C42.6037 146.527 42.7798 146.689 43.0043 146.805C43.2315 146.922 43.4929 146.98 43.7884 146.98ZM51.4599 152.145C50.7866 152.142 50.2113 151.964 49.734 151.612C49.2567 151.26 48.8917 150.747 48.6388 150.074C48.386 149.401 48.2596 148.589 48.2596 147.641C48.2596 146.695 48.386 145.886 48.6388 145.216C48.8945 144.545 49.261 144.034 49.7383 143.682C50.2184 143.33 50.7923 143.153 51.4599 143.153C52.1275 143.153 52.6999 143.331 53.1772 143.686C53.6545 144.038 54.0195 144.55 54.2724 145.22C54.5281 145.888 54.6559 146.695 54.6559 147.641C54.6559 148.592 54.5295 149.405 54.2766 150.078C54.0238 150.749 53.6587 151.261 53.1815 151.616C52.7042 151.969 52.1303 152.145 51.4599 152.145ZM51.4599 151.007C52.0508 151.007 52.5124 150.719 52.8448 150.142C53.18 149.565 53.3477 148.732 53.3477 147.641C53.3477 146.916 53.271 146.304 53.1175 145.804C52.967 145.301 52.7496 144.92 52.4656 144.662C52.1843 144.401 51.8491 144.27 51.4599 144.27C50.8718 144.27 50.4102 144.56 50.0749 145.139C49.7397 145.719 49.5707 146.553 49.5678 147.641C49.5678 148.368 49.6431 148.983 49.7937 149.486C49.9471 149.986 50.1644 150.365 50.4457 150.624C50.7269 150.879 51.065 151.007 51.4599 151.007ZM60.723 150.364V149.903C60.723 149.574 60.7912 149.273 60.9276 149C61.0668 148.724 61.2685 148.504 61.5327 148.339C61.7997 148.172 62.1222 148.088 62.5 148.088C62.8864 148.088 63.2102 148.17 63.4716 148.335C63.733 148.5 63.9304 148.72 64.0639 148.996C64.2003 149.271 64.2685 149.574 64.2685 149.903V150.364C64.2685 150.693 64.2003 150.996 64.0639 151.271C63.9276 151.544 63.7273 151.764 63.4631 151.932C63.2017 152.097 62.8807 152.179 62.5 152.179C62.1165 152.179 61.7926 152.097 61.5284 151.932C61.2642 151.764 61.0639 151.544 60.9276 151.271C60.7912 150.996 60.723 150.693 60.723 150.364ZM61.7159 149.903V150.364C61.7159 150.608 61.7741 150.83 61.8906 151.028C62.0071 151.227 62.2102 151.327 62.5 151.327C62.7869 151.327 62.9872 151.227 63.1009 151.028C63.2145 150.83 63.2713 150.608 63.2713 150.364V149.903C63.2713 149.659 63.2159 149.437 63.1051 149.239C62.9972 149.04 62.7955 148.94 62.5 148.94C62.2159 148.94 62.0142 149.04 61.8949 149.239C61.7756 149.437 61.7159 149.659 61.7159 149.903ZM56.3338 145.369V144.909C56.3338 144.58 56.402 144.277 56.5384 144.001C56.6776 143.726 56.8793 143.506 57.1435 143.341C57.4105 143.176 57.733 143.094 58.1108 143.094C58.4972 143.094 58.821 143.176 59.0824 143.341C59.3438 143.506 59.5412 143.726 59.6747 144.001C59.8082 144.277 59.875 144.58 59.875 144.909V145.369C59.875 145.699 59.8068 146.001 59.6705 146.277C59.5369 146.55 59.3381 146.77 59.0739 146.938C58.8125 147.102 58.4915 147.185 58.1108 147.185C57.7244 147.185 57.3991 147.102 57.1349 146.938C56.8736 146.77 56.6747 146.55 56.5384 146.277C56.402 146.001 56.3338 145.699 56.3338 145.369ZM57.331 144.909V145.369C57.331 145.614 57.3878 145.835 57.5014 146.034C57.6179 146.233 57.821 146.332 58.1108 146.332C58.3949 146.332 58.5938 146.233 58.7074 146.034C58.8239 145.835 58.8821 145.614 58.8821 145.369V144.909C58.8821 144.665 58.8267 144.443 58.7159 144.244C58.6051 144.045 58.4034 143.946 58.1108 143.946C57.8267 143.946 57.625 144.045 57.5057 144.244C57.3892 144.443 57.331 144.665 57.331 144.909ZM56.7386 152L62.7386 143.273H63.7571L57.7571 152H56.7386Z" fill="#98A2B3"/>
<path d="M43.8864 197.119C43.4972 197.114 43.1136 197.043 42.7358 196.906C42.3608 196.77 42.0199 196.543 41.7131 196.224C41.4063 195.906 41.1605 195.479 40.9759 194.942C40.794 194.405 40.7031 193.734 40.7031 192.93C40.7031 192.169 40.7784 191.493 40.929 190.902C41.0824 190.311 41.3026 189.812 41.5895 189.406C41.8764 188.997 42.223 188.686 42.6293 188.473C43.0355 188.26 43.4915 188.153 43.9972 188.153C44.517 188.153 44.9787 188.256 45.3821 188.46C45.7855 188.665 46.1122 188.947 46.3622 189.308C46.6151 189.669 46.7756 190.08 46.8438 190.54H45.544C45.456 190.176 45.2813 189.879 45.0199 189.649C44.7585 189.419 44.4176 189.304 43.9972 189.304C43.358 189.304 42.8594 189.582 42.5014 190.139C42.1463 190.696 41.9673 191.47 41.9645 192.462H42.0284C42.179 192.214 42.3636 192.004 42.5824 191.831C42.804 191.655 43.0511 191.52 43.3239 191.426C43.5994 191.33 43.8892 191.281 44.1932 191.281C44.6989 191.281 45.1563 191.405 45.5653 191.652C45.9773 191.896 46.3054 192.234 46.5497 192.666C46.794 193.098 46.9162 193.592 46.9162 194.149C46.9162 194.706 46.7898 195.21 46.5369 195.662C46.2869 196.114 45.9347 196.472 45.4801 196.736C45.0256 196.997 44.4943 197.125 43.8864 197.119ZM43.8821 196.011C44.2173 196.011 44.517 195.929 44.7812 195.764C45.0455 195.599 45.2543 195.378 45.4077 195.099C45.5611 194.821 45.6378 194.51 45.6378 194.166C45.6378 193.831 45.5625 193.526 45.4119 193.25C45.2642 192.974 45.0597 192.756 44.7983 192.594C44.5398 192.432 44.2443 192.351 43.9119 192.351C43.6591 192.351 43.4247 192.399 43.2088 192.496C42.9957 192.592 42.8082 192.726 42.6463 192.896C42.4844 193.067 42.3565 193.263 42.2628 193.484C42.1719 193.703 42.1264 193.935 42.1264 194.179C42.1264 194.506 42.2017 194.808 42.3523 195.087C42.5057 195.365 42.7145 195.589 42.9787 195.76C43.2457 195.928 43.5469 196.011 43.8821 196.011ZM51.5067 197.145C50.8335 197.142 50.2582 196.964 49.7809 196.612C49.3036 196.26 48.9386 195.747 48.6857 195.074C48.4329 194.401 48.3065 193.589 48.3065 192.641C48.3065 191.695 48.4329 190.886 48.6857 190.216C48.9414 189.545 49.3079 189.034 49.7852 188.682C50.2653 188.33 50.8391 188.153 51.5067 188.153C52.1744 188.153 52.7468 188.331 53.2241 188.686C53.7013 189.038 54.0664 189.55 54.3192 190.22C54.5749 190.888 54.7028 191.695 54.7028 192.641C54.7028 193.592 54.5763 194.405 54.3235 195.078C54.0707 195.749 53.7056 196.261 53.2283 196.616C52.7511 196.969 52.1772 197.145 51.5067 197.145ZM51.5067 196.007C52.0977 196.007 52.5593 195.719 52.8917 195.142C53.2269 194.565 53.3945 193.732 53.3945 192.641C53.3945 191.916 53.3178 191.304 53.1644 190.804C53.0138 190.301 52.7965 189.92 52.5124 189.662C52.2312 189.401 51.896 189.27 51.5067 189.27C50.9187 189.27 50.457 189.56 50.1218 190.139C49.7866 190.719 49.6175 191.553 49.6147 192.641C49.6147 193.368 49.69 193.983 49.8406 194.486C49.994 194.986 50.2113 195.365 50.4925 195.624C50.7738 195.879 51.1119 196.007 51.5067 196.007ZM60.7699 195.364V194.903C60.7699 194.574 60.8381 194.273 60.9744 194C61.1136 193.724 61.3153 193.504 61.5795 193.339C61.8466 193.172 62.169 193.088 62.5469 193.088C62.9332 193.088 63.2571 193.17 63.5185 193.335C63.7798 193.5 63.9773 193.72 64.1108 193.996C64.2472 194.271 64.3153 194.574 64.3153 194.903V195.364C64.3153 195.693 64.2472 195.996 64.1108 196.271C63.9744 196.544 63.7741 196.764 63.5099 196.932C63.2486 197.097 62.9276 197.179 62.5469 197.179C62.1634 197.179 61.8395 197.097 61.5753 196.932C61.3111 196.764 61.1108 196.544 60.9744 196.271C60.8381 195.996 60.7699 195.693 60.7699 195.364ZM61.7628 194.903V195.364C61.7628 195.608 61.821 195.83 61.9375 196.028C62.054 196.227 62.2571 196.327 62.5469 196.327C62.8338 196.327 63.0341 196.227 63.1477 196.028C63.2614 195.83 63.3182 195.608 63.3182 195.364V194.903C63.3182 194.659 63.2628 194.437 63.152 194.239C63.044 194.04 62.8423 193.94 62.5469 193.94C62.2628 193.94 62.0611 194.04 61.9418 194.239C61.8224 194.437 61.7628 194.659 61.7628 194.903ZM56.3807 190.369V189.909C56.3807 189.58 56.4489 189.277 56.5852 189.001C56.7244 188.726 56.9261 188.506 57.1903 188.341C57.4574 188.176 57.7798 188.094 58.1577 188.094C58.544 188.094 58.8679 188.176 59.1293 188.341C59.3906 188.506 59.5881 188.726 59.7216 189.001C59.8551 189.277 59.9219 189.58 59.9219 189.909V190.369C59.9219 190.699 59.8537 191.001 59.7173 191.277C59.5838 191.55 59.3849 191.77 59.1207 191.938C58.8594 192.102 58.5384 192.185 58.1577 192.185C57.7713 192.185 57.446 192.102 57.1818 191.938C56.9205 191.77 56.7216 191.55 56.5852 191.277C56.4489 191.001 56.3807 190.699 56.3807 190.369ZM57.3778 189.909V190.369C57.3778 190.614 57.4347 190.835 57.5483 191.034C57.6648 191.233 57.8679 191.332 58.1577 191.332C58.4418 191.332 58.6406 191.233 58.7543 191.034C58.8707 190.835 58.929 190.614 58.929 190.369V189.909C58.929 189.665 58.8736 189.443 58.7628 189.244C58.652 189.045 58.4503 188.946 58.1577 188.946C57.8736 188.946 57.6719 189.045 57.5526 189.244C57.4361 189.443 57.3778 189.665 57.3778 189.909ZM56.7855 197L62.7855 188.273H63.804L57.804 197H56.7855Z" fill="#98A2B3"/>
<path d="M40.6562 240.295V239.23L44.4276 233.273H45.267V234.841H44.7344L42.0369 239.111V239.179H47.206V240.295H40.6562ZM44.794 242V239.972L44.8026 239.486V233.273H46.0511V242H44.794ZM51.7294 242.145C51.0561 242.142 50.4808 241.964 50.0036 241.612C49.5263 241.26 49.1612 240.747 48.9084 240.074C48.6555 239.401 48.5291 238.589 48.5291 237.641C48.5291 236.695 48.6555 235.886 48.9084 235.216C49.1641 234.545 49.5305 234.034 50.0078 233.682C50.4879 233.33 51.0618 233.153 51.7294 233.153C52.397 233.153 52.9695 233.331 53.4467 233.686C53.924 234.038 54.2891 234.55 54.5419 235.22C54.7976 235.888 54.9254 236.695 54.9254 237.641C54.9254 238.592 54.799 239.405 54.5462 240.078C54.2933 240.749 53.9283 241.261 53.451 241.616C52.9737 241.969 52.3999 242.145 51.7294 242.145ZM51.7294 241.007C52.3203 241.007 52.782 240.719 53.1143 240.142C53.4496 239.565 53.6172 238.732 53.6172 237.641C53.6172 236.916 53.5405 236.304 53.3871 235.804C53.2365 235.301 53.0192 234.92 52.7351 234.662C52.4538 234.401 52.1186 234.27 51.7294 234.27C51.1413 234.27 50.6797 234.56 50.3445 235.139C50.0092 235.719 49.8402 236.553 49.8374 237.641C49.8374 238.368 49.9126 238.983 50.0632 239.486C50.2166 239.986 50.4339 240.365 50.7152 240.624C50.9964 240.879 51.3345 241.007 51.7294 241.007ZM60.9925 240.364V239.903C60.9925 239.574 61.0607 239.273 61.1971 239C61.3363 238.724 61.538 238.504 61.8022 238.339C62.0692 238.172 62.3917 238.088 62.7695 238.088C63.1559 238.088 63.4798 238.17 63.7411 238.335C64.0025 238.5 64.1999 238.72 64.3335 238.996C64.4698 239.271 64.538 239.574 64.538 239.903V240.364C64.538 240.693 64.4698 240.996 64.3335 241.271C64.1971 241.544 63.9968 241.764 63.7326 241.932C63.4712 242.097 63.1502 242.179 62.7695 242.179C62.386 242.179 62.0621 242.097 61.7979 241.932C61.5337 241.764 61.3335 241.544 61.1971 241.271C61.0607 240.996 60.9925 240.693 60.9925 240.364ZM61.9854 239.903V240.364C61.9854 240.608 62.0437 240.83 62.1602 241.028C62.2766 241.227 62.4798 241.327 62.7695 241.327C63.0565 241.327 63.2567 241.227 63.3704 241.028C63.484 240.83 63.5408 240.608 63.5408 240.364V239.903C63.5408 239.659 63.4854 239.437 63.3746 239.239C63.2667 239.04 63.065 238.94 62.7695 238.94C62.4854 238.94 62.2837 239.04 62.1644 239.239C62.0451 239.437 61.9854 239.659 61.9854 239.903ZM56.6033 235.369V234.909C56.6033 234.58 56.6715 234.277 56.8079 234.001C56.9471 233.726 57.1488 233.506 57.413 233.341C57.68 233.176 58.0025 233.094 58.3803 233.094C58.7667 233.094 59.0906 233.176 59.3519 233.341C59.6133 233.506 59.8107 233.726 59.9442 234.001C60.0778 234.277 60.1445 234.58 60.1445 234.909V235.369C60.1445 235.699 60.0763 236.001 59.94 236.277C59.8065 236.55 59.6076 236.77 59.3434 236.938C59.082 237.102 58.761 237.185 58.3803 237.185C57.994 237.185 57.6687 237.102 57.4045 236.938C57.1431 236.77 56.9442 236.55 56.8079 236.277C56.6715 236.001 56.6033 235.699 56.6033 235.369ZM57.6005 234.909V235.369C57.6005 235.614 57.6573 235.835 57.771 236.034C57.8874 236.233 58.0906 236.332 58.3803 236.332C58.6644 236.332 58.8633 236.233 58.9769 236.034C59.0934 235.835 59.1516 235.614 59.1516 235.369V234.909C59.1516 234.665 59.0962 234.443 58.9854 234.244C58.8746 234.045 58.6729 233.946 58.3803 233.946C58.0962 233.946 57.8945 234.045 57.7752 234.244C57.6587 234.443 57.6005 234.665 57.6005 234.909ZM57.0082 242L63.0082 233.273H64.0266L58.0266 242H57.0082Z" fill="#98A2B3"/>
<path d="M40.8395 287V286.045L43.7926 282.986C44.108 282.653 44.3679 282.362 44.5724 282.112C44.7798 281.859 44.9347 281.619 45.0369 281.392C45.1392 281.165 45.1903 280.923 45.1903 280.668C45.1903 280.378 45.1222 280.128 44.9858 279.918C44.8494 279.705 44.6634 279.541 44.4276 279.428C44.1918 279.311 43.9261 279.253 43.6307 279.253C43.3182 279.253 43.0455 279.317 42.8125 279.445C42.5795 279.572 42.4006 279.753 42.2756 279.986C42.1506 280.219 42.0881 280.491 42.0881 280.804H40.831C40.831 280.273 40.9531 279.808 41.1974 279.411C41.4418 279.013 41.777 278.705 42.2031 278.486C42.6293 278.264 43.1136 278.153 43.6562 278.153C44.2045 278.153 44.6875 278.263 45.1051 278.482C45.5256 278.697 45.8537 278.993 46.0895 279.368C46.3253 279.74 46.4432 280.161 46.4432 280.629C46.4432 280.953 46.3821 281.27 46.2599 281.58C46.1406 281.889 45.9318 282.234 45.6335 282.615C45.3352 282.993 44.9205 283.452 44.3892 283.991L42.6548 285.807V285.871H46.5838V287H40.8395ZM51.2372 287.145C50.5639 287.142 49.9886 286.964 49.5114 286.612C49.0341 286.26 48.669 285.747 48.4162 285.074C48.1634 284.401 48.0369 283.589 48.0369 282.641C48.0369 281.695 48.1634 280.886 48.4162 280.216C48.6719 279.545 49.0384 279.034 49.5156 278.682C49.9957 278.33 50.5696 278.153 51.2372 278.153C51.9048 278.153 52.4773 278.331 52.9545 278.686C53.4318 279.038 53.7969 279.55 54.0497 280.22C54.3054 280.888 54.4332 281.695 54.4332 282.641C54.4332 283.592 54.3068 284.405 54.054 285.078C53.8011 285.749 53.4361 286.261 52.9588 286.616C52.4815 286.969 51.9077 287.145 51.2372 287.145ZM51.2372 286.007C51.8281 286.007 52.2898 285.719 52.6222 285.142C52.9574 284.565 53.125 283.732 53.125 282.641C53.125 281.916 53.0483 281.304 52.8949 280.804C52.7443 280.301 52.527 279.92 52.2429 279.662C51.9616 279.401 51.6264 279.27 51.2372 279.27C50.6491 279.27 50.1875 279.56 49.8523 280.139C49.517 280.719 49.348 281.553 49.3452 282.641C49.3452 283.368 49.4205 283.983 49.571 284.486C49.7244 284.986 49.9418 285.365 50.223 285.624C50.5043 285.879 50.8423 286.007 51.2372 286.007ZM60.5004 285.364V284.903C60.5004 284.574 60.5685 284.273 60.7049 284C60.8441 283.724 61.0458 283.504 61.31 283.339C61.5771 283.172 61.8995 283.088 62.2773 283.088C62.6637 283.088 62.9876 283.17 63.2489 283.335C63.5103 283.5 63.7077 283.72 63.8413 283.996C63.9776 284.271 64.0458 284.574 64.0458 284.903V285.364C64.0458 285.693 63.9776 285.996 63.8413 286.271C63.7049 286.544 63.5046 286.764 63.2404 286.932C62.979 287.097 62.658 287.179 62.2773 287.179C61.8938 287.179 61.57 287.097 61.3058 286.932C61.0415 286.764 60.8413 286.544 60.7049 286.271C60.5685 285.996 60.5004 285.693 60.5004 285.364ZM61.4933 284.903V285.364C61.4933 285.608 61.5515 285.83 61.668 286.028C61.7844 286.227 61.9876 286.327 62.2773 286.327C62.5643 286.327 62.7646 286.227 62.8782 286.028C62.9918 285.83 63.0487 285.608 63.0487 285.364V284.903C63.0487 284.659 62.9933 284.437 62.8825 284.239C62.7745 284.04 62.5728 283.94 62.2773 283.94C61.9933 283.94 61.7915 284.04 61.6722 284.239C61.5529 284.437 61.4933 284.659 61.4933 284.903ZM56.1112 280.369V279.909C56.1112 279.58 56.1793 279.277 56.3157 279.001C56.4549 278.726 56.6566 278.506 56.9208 278.341C57.1879 278.176 57.5103 278.094 57.8881 278.094C58.2745 278.094 58.5984 278.176 58.8597 278.341C59.1211 278.506 59.3185 278.726 59.4521 279.001C59.5856 279.277 59.6523 279.58 59.6523 279.909V280.369C59.6523 280.699 59.5842 281.001 59.4478 281.277C59.3143 281.55 59.1154 281.77 58.8512 281.938C58.5898 282.102 58.2688 282.185 57.8881 282.185C57.5018 282.185 57.1765 282.102 56.9123 281.938C56.6509 281.77 56.4521 281.55 56.3157 281.277C56.1793 281.001 56.1112 280.699 56.1112 280.369ZM57.1083 279.909V280.369C57.1083 280.614 57.1651 280.835 57.2788 281.034C57.3952 281.233 57.5984 281.332 57.8881 281.332C58.1722 281.332 58.3711 281.233 58.4847 281.034C58.6012 280.835 58.6594 280.614 58.6594 280.369V279.909C58.6594 279.665 58.604 279.443 58.4933 279.244C58.3825 279.045 58.1808 278.946 57.8881 278.946C57.604 278.946 57.4023 279.045 57.283 279.244C57.1665 279.443 57.1083 279.665 57.1083 279.909ZM56.516 287L62.516 278.273H63.5344L57.5344 287H56.516Z" fill="#98A2B3"/>
<path d="M43.8778 332.145C43.2045 332.142 42.6293 331.964 42.152 331.612C41.6747 331.26 41.3097 330.747 41.0568 330.074C40.804 329.401 40.6776 328.589 40.6776 327.641C40.6776 326.695 40.804 325.886 41.0568 325.216C41.3125 324.545 41.679 324.034 42.1562 323.682C42.6364 323.33 43.2102 323.153 43.8778 323.153C44.5455 323.153 45.1179 323.331 45.5952 323.686C46.0724 324.038 46.4375 324.55 46.6903 325.22C46.946 325.888 47.0739 326.695 47.0739 327.641C47.0739 328.592 46.9474 329.405 46.6946 330.078C46.4418 330.749 46.0767 331.261 45.5994 331.616C45.1222 331.969 44.5483 332.145 43.8778 332.145ZM43.8778 331.007C44.4688 331.007 44.9304 330.719 45.2628 330.142C45.598 329.565 45.7656 328.732 45.7656 327.641C45.7656 326.916 45.6889 326.304 45.5355 325.804C45.3849 325.301 45.1676 324.92 44.8835 324.662C44.6023 324.401 44.267 324.27 43.8778 324.27C43.2898 324.27 42.8281 324.56 42.4929 325.139C42.1577 325.719 41.9886 326.553 41.9858 327.641C41.9858 328.368 42.0611 328.983 42.2116 329.486C42.3651 329.986 42.5824 330.365 42.8636 330.624C43.1449 330.879 43.483 331.007 43.8778 331.007Z" fill="#98A2B3"/>
<path d="M102.304 352.273H103.872V358.409C103.869 358.972 103.75 359.456 103.514 359.862C103.278 360.266 102.949 360.577 102.526 360.795C102.105 361.011 101.615 361.119 101.055 361.119C100.544 361.119 100.084 361.028 99.6747 360.847C99.2685 360.662 98.946 360.389 98.7074 360.028C98.4688 359.668 98.3494 359.219 98.3494 358.682H99.9219C99.9247 358.918 99.9759 359.121 100.075 359.291C100.178 359.462 100.318 359.592 100.497 359.683C100.676 359.774 100.882 359.82 101.115 359.82C101.368 359.82 101.582 359.767 101.759 359.662C101.935 359.554 102.068 359.395 102.159 359.185C102.253 358.974 102.301 358.716 102.304 358.409V352.273ZM106.708 361H105.021L108.093 352.273H110.045L113.121 361H111.434L109.103 354.062H109.035L106.708 361ZM106.763 357.578H111.366V358.848H106.763V357.578ZM121.443 352.273V361H120.037L115.924 355.055H115.852V361H114.271V352.273H115.686L119.794 358.222H119.87V352.273H121.443Z" fill="#475467"/>
<path d="M155.861 361V352.273H161.452V353.598H157.442V355.967H161.068V357.293H157.442V361H155.861ZM162.892 361V352.273H168.568V353.598H164.473V355.967H168.274V357.293H164.473V359.675H168.602V361H162.892ZM170.181 361V352.273H173.522C174.153 352.273 174.677 352.372 175.094 352.571C175.515 352.767 175.829 353.036 176.036 353.376C176.246 353.717 176.352 354.104 176.352 354.536C176.352 354.891 176.283 355.195 176.147 355.447C176.011 355.697 175.827 355.901 175.597 356.057C175.367 356.213 175.11 356.325 174.826 356.393V356.479C175.136 356.496 175.433 356.591 175.717 356.764C176.004 356.935 176.238 357.176 176.42 357.489C176.602 357.801 176.692 358.179 176.692 358.622C176.692 359.074 176.583 359.48 176.364 359.841C176.146 360.199 175.816 360.482 175.376 360.689C174.935 360.896 174.381 361 173.714 361H170.181ZM171.762 359.679H173.462C174.036 359.679 174.45 359.57 174.702 359.351C174.958 359.129 175.086 358.845 175.086 358.499C175.086 358.24 175.022 358.007 174.894 357.8C174.766 357.589 174.585 357.425 174.349 357.305C174.113 357.183 173.832 357.122 173.505 357.122H171.762V359.679ZM171.762 355.984H173.326C173.599 355.984 173.844 355.935 174.063 355.835C174.282 355.733 174.454 355.589 174.579 355.405C174.707 355.217 174.771 354.996 174.771 354.74C174.771 354.402 174.651 354.124 174.413 353.905C174.177 353.686 173.826 353.577 173.36 353.577H171.762V355.984Z" fill="#475467"/>
<path d="M210.861 352.273H212.795L215.386 358.597H215.489L218.08 352.273H220.014V361H218.497V355.004H218.416L216.004 360.974H214.871L212.459 354.991H212.378V361H210.861V352.273ZM222.857 361H221.169L224.241 352.273H226.193L229.27 361H227.582L225.251 354.062H225.183L222.857 361ZM222.912 357.578H227.514V358.848H222.912V357.578ZM230.419 361V352.273H233.692C234.363 352.273 234.925 352.389 235.38 352.622C235.837 352.855 236.182 353.182 236.415 353.602C236.651 354.02 236.769 354.507 236.769 355.064C236.769 355.624 236.65 356.109 236.411 356.521C236.175 356.93 235.827 357.247 235.367 357.472C234.907 357.693 234.341 357.804 233.671 357.804H231.34V356.491H233.458C233.85 356.491 234.171 356.437 234.421 356.33C234.671 356.219 234.855 356.058 234.975 355.848C235.097 355.635 235.158 355.374 235.158 355.064C235.158 354.754 235.097 354.49 234.975 354.271C234.853 354.05 234.667 353.882 234.417 353.768C234.167 353.652 233.844 353.594 233.449 353.594H232V361H230.419ZM234.928 357.045L237.088 361H235.324L233.202 357.045H234.928Z" fill="#475467"/>
<path d="M270.982 361H269.294L272.366 352.273H274.318L277.395 361H275.707L273.376 354.062H273.308L270.982 361ZM271.037 357.578H275.639V358.848H271.037V357.578ZM278.544 361V352.273H281.817C282.488 352.273 283.05 352.398 283.505 352.648C283.962 352.898 284.307 353.241 284.54 353.679C284.776 354.114 284.894 354.608 284.894 355.162C284.894 355.722 284.776 356.219 284.54 356.653C284.304 357.088 283.956 357.43 283.496 357.68C283.036 357.928 282.469 358.051 281.796 358.051H279.627V356.751H281.583C281.975 356.751 282.296 356.683 282.546 356.547C282.796 356.411 282.98 356.223 283.1 355.984C283.222 355.746 283.283 355.472 283.283 355.162C283.283 354.852 283.222 354.58 283.1 354.344C282.98 354.108 282.794 353.925 282.542 353.794C282.292 353.661 281.969 353.594 281.574 353.594H280.125V361H278.544ZM286.267 361V352.273H289.54C290.21 352.273 290.773 352.389 291.227 352.622C291.685 352.855 292.03 353.182 292.263 353.602C292.499 354.02 292.616 354.507 292.616 355.064C292.616 355.624 292.497 356.109 292.259 356.521C292.023 356.93 291.675 357.247 291.214 357.472C290.754 357.693 290.189 357.804 289.518 357.804H287.188V356.491H289.305C289.697 356.491 290.018 356.437 290.268 356.33C290.518 356.219 290.703 356.058 290.822 355.848C290.945 355.635 291.006 355.374 291.006 355.064C291.006 354.754 290.945 354.49 290.822 354.271C290.7 354.05 290.514 353.882 290.264 353.768C290.014 353.652 289.692 353.594 289.297 353.594H287.848V361H286.267ZM290.776 357.045L292.936 361H291.172L289.05 357.045H290.776Z" fill="#475467"/>
<path d="M328.861 352.273H330.795L333.386 358.597H333.489L336.08 352.273H338.014V361H336.497V355.004H336.416L334.004 360.974H332.871L330.459 354.991H330.378V361H328.861V352.273ZM340.857 361H339.169L342.241 352.273H344.193L347.27 361H345.582L343.251 354.062H343.183L340.857 361ZM340.912 357.578H345.514V358.848H340.912V357.578ZM346.932 352.273H348.718L350.853 356.134H350.938L353.073 352.273H354.858L351.684 357.744V361H350.107V357.744L346.932 352.273Z" fill="#475467"/>
<path d="M391.304 352.273H392.872V358.409C392.869 358.972 392.75 359.456 392.514 359.862C392.278 360.266 391.949 360.577 391.526 360.795C391.105 361.011 390.615 361.119 390.055 361.119C389.544 361.119 389.084 361.028 388.675 360.847C388.268 360.662 387.946 360.389 387.707 360.028C387.469 359.668 387.349 359.219 387.349 358.682H388.922C388.925 358.918 388.976 359.121 389.075 359.291C389.178 359.462 389.318 359.592 389.497 359.683C389.676 359.774 389.882 359.82 390.115 359.82C390.368 359.82 390.582 359.767 390.759 359.662C390.935 359.554 391.068 359.395 391.159 359.185C391.253 358.974 391.301 358.716 391.304 358.409V352.273ZM400.089 352.273H401.67V357.974C401.67 358.599 401.522 359.149 401.227 359.624C400.934 360.098 400.522 360.469 399.991 360.736C399.46 361 398.839 361.132 398.129 361.132C397.415 361.132 396.793 361 396.262 360.736C395.731 360.469 395.319 360.098 395.026 359.624C394.734 359.149 394.587 358.599 394.587 357.974V352.273H396.168V357.842C396.168 358.206 396.248 358.53 396.407 358.814C396.569 359.098 396.796 359.321 397.089 359.483C397.381 359.642 397.728 359.722 398.129 359.722C398.529 359.722 398.876 359.642 399.168 359.483C399.464 359.321 399.691 359.098 399.85 358.814C400.009 358.53 400.089 358.206 400.089 357.842V352.273ZM410.56 352.273V361H409.154L405.042 355.055H404.969V361H403.388V352.273H404.803L408.911 358.222H408.988V352.273H410.56Z" fill="#475467"/>
<path d="M446.304 352.273H447.872V358.409C447.869 358.972 447.75 359.456 447.514 359.862C447.278 360.266 446.949 360.577 446.526 360.795C446.105 361.011 445.615 361.119 445.055 361.119C444.544 361.119 444.084 361.028 443.675 360.847C443.268 360.662 442.946 360.389 442.707 360.028C442.469 359.668 442.349 359.219 442.349 358.682H443.922C443.925 358.918 443.976 359.121 444.075 359.291C444.178 359.462 444.318 359.592 444.497 359.683C444.676 359.774 444.882 359.82 445.115 359.82C445.368 359.82 445.582 359.767 445.759 359.662C445.935 359.554 446.068 359.395 446.159 359.185C446.253 358.974 446.301 358.716 446.304 358.409V352.273ZM455.089 352.273H456.67V357.974C456.67 358.599 456.522 359.149 456.227 359.624C455.934 360.098 455.522 360.469 454.991 360.736C454.46 361 453.839 361.132 453.129 361.132C452.415 361.132 451.793 361 451.262 360.736C450.731 360.469 450.319 360.098 450.026 359.624C449.734 359.149 449.587 358.599 449.587 357.974V352.273H451.168V357.842C451.168 358.206 451.248 358.53 451.407 358.814C451.569 359.098 451.796 359.321 452.089 359.483C452.381 359.642 452.728 359.722 453.129 359.722C453.529 359.722 453.876 359.642 454.168 359.483C454.464 359.321 454.691 359.098 454.85 358.814C455.009 358.53 455.089 358.206 455.089 357.842V352.273ZM458.388 361V352.273H459.969V359.675H463.813V361H458.388Z" fill="#475467"/>
<path d="M498.982 361H497.294L500.366 352.273H502.318L505.395 361H503.707L501.376 354.062H501.308L498.982 361ZM499.037 357.578H503.639V358.848H499.037V357.578ZM512.046 352.273H513.627V357.974C513.627 358.599 513.479 359.149 513.184 359.624C512.891 360.098 512.479 360.469 511.948 360.736C511.417 361 510.796 361.132 510.086 361.132C509.373 361.132 508.75 361 508.219 360.736C507.688 360.469 507.276 360.098 506.983 359.624C506.691 359.149 506.544 358.599 506.544 357.974V352.273H508.125V357.842C508.125 358.206 508.205 358.53 508.364 358.814C508.526 359.098 508.753 359.321 509.046 359.483C509.338 359.642 509.685 359.722 510.086 359.722C510.486 359.722 510.833 359.642 511.125 359.483C511.421 359.321 511.648 359.098 511.807 358.814C511.966 358.53 512.046 358.206 512.046 357.842V352.273ZM521.192 355.06C521.121 354.83 521.023 354.624 520.898 354.442C520.776 354.257 520.628 354.099 520.455 353.969C520.284 353.838 520.088 353.74 519.866 353.675C519.645 353.607 519.403 353.572 519.142 353.572C518.673 353.572 518.256 353.69 517.889 353.926C517.523 354.162 517.234 354.509 517.024 354.966C516.817 355.42 516.713 355.974 516.713 356.628C516.713 357.287 516.817 357.845 517.024 358.303C517.232 358.76 517.52 359.108 517.889 359.347C518.259 359.582 518.688 359.7 519.176 359.7C519.619 359.7 520.003 359.615 520.327 359.445C520.653 359.274 520.905 359.033 521.081 358.72C521.257 358.405 521.345 358.036 521.345 357.612L521.703 357.668H519.334V356.432H522.875V357.48C522.875 358.227 522.716 358.874 522.398 359.419C522.08 359.964 521.642 360.385 521.085 360.68C520.528 360.973 519.889 361.119 519.168 361.119C518.364 361.119 517.658 360.939 517.05 360.578C516.445 360.214 515.972 359.699 515.631 359.031C515.293 358.361 515.124 357.565 515.124 356.645C515.124 355.94 515.223 355.311 515.422 354.757C515.624 354.203 515.905 353.733 516.266 353.347C516.626 352.957 517.05 352.662 517.536 352.46C518.021 352.256 518.55 352.153 519.121 352.153C519.604 352.153 520.054 352.224 520.472 352.366C520.889 352.506 521.26 352.705 521.584 352.963C521.911 353.222 522.179 353.528 522.389 353.884C522.599 354.239 522.737 354.631 522.803 355.06H521.192Z" fill="#475467"/>
<path d="M557.604 354.672C557.564 354.3 557.396 354.01 557.101 353.803C556.808 353.595 556.428 353.491 555.959 353.491C555.629 353.491 555.347 353.541 555.111 353.641C554.875 353.74 554.695 353.875 554.57 354.045C554.445 354.216 554.381 354.411 554.378 354.629C554.378 354.811 554.419 354.969 554.501 355.102C554.587 355.236 554.702 355.349 554.847 355.443C554.991 355.534 555.152 355.611 555.328 355.673C555.504 355.736 555.682 355.788 555.861 355.831L556.679 356.036C557.009 356.112 557.325 356.216 557.629 356.347C557.936 356.477 558.21 356.642 558.452 356.841C558.696 357.04 558.889 357.28 559.031 357.561C559.173 357.842 559.244 358.172 559.244 358.55C559.244 359.061 559.114 359.511 558.852 359.901C558.591 360.287 558.213 360.589 557.719 360.808C557.227 361.024 556.632 361.132 555.933 361.132C555.254 361.132 554.665 361.027 554.165 360.817C553.668 360.607 553.278 360.3 552.997 359.896C552.719 359.493 552.568 359.001 552.545 358.422H554.101C554.124 358.726 554.217 358.979 554.382 359.18C554.547 359.382 554.761 359.533 555.026 359.632C555.293 359.732 555.591 359.781 555.92 359.781C556.264 359.781 556.565 359.73 556.824 359.628C557.085 359.523 557.29 359.378 557.438 359.193C557.585 359.006 557.661 358.787 557.663 358.537C557.661 358.31 557.594 358.122 557.463 357.974C557.332 357.824 557.149 357.699 556.913 357.599C556.68 357.497 556.408 357.406 556.095 357.327L555.102 357.071C554.384 356.886 553.815 356.607 553.398 356.232C552.983 355.854 552.776 355.352 552.776 354.727C552.776 354.213 552.915 353.763 553.193 353.376C553.474 352.99 553.857 352.69 554.339 352.477C554.822 352.261 555.369 352.153 555.98 352.153C556.599 352.153 557.142 352.261 557.608 352.477C558.077 352.69 558.445 352.987 558.712 353.368C558.979 353.746 559.116 354.18 559.125 354.672H557.604ZM560.654 361V352.273H566.33V353.598H562.235V355.967H566.036V357.293H562.235V359.675H566.364V361H560.654ZM567.943 361V352.273H571.216C571.886 352.273 572.449 352.398 572.903 352.648C573.36 352.898 573.706 353.241 573.939 353.679C574.174 354.114 574.292 354.608 574.292 355.162C574.292 355.722 574.174 356.219 573.939 356.653C573.703 357.088 573.355 357.43 572.895 357.68C572.434 357.928 571.868 358.051 571.194 358.051H569.025V356.751H570.981C571.373 356.751 571.694 356.683 571.944 356.547C572.194 356.411 572.379 356.223 572.498 355.984C572.62 355.746 572.681 355.472 572.681 355.162C572.681 354.852 572.62 354.58 572.498 354.344C572.379 354.108 572.193 353.925 571.94 353.794C571.69 353.661 571.368 353.594 570.973 353.594H569.524V361H567.943Z" fill="#475467"/>
<path d="M615.659 356.636C615.659 357.577 615.483 358.382 615.131 359.053C614.781 359.72 614.304 360.232 613.699 360.587C613.097 360.942 612.413 361.119 611.649 361.119C610.885 361.119 610.2 360.942 609.595 360.587C608.993 360.229 608.516 359.716 608.163 359.048C607.814 358.378 607.639 357.574 607.639 356.636C607.639 355.696 607.814 354.892 608.163 354.224C608.516 353.554 608.993 353.041 609.595 352.686C610.2 352.331 610.885 352.153 611.649 352.153C612.413 352.153 613.097 352.331 613.699 352.686C614.304 353.041 614.781 353.554 615.131 354.224C615.483 354.892 615.659 355.696 615.659 356.636ZM614.07 356.636C614.07 355.974 613.966 355.416 613.759 354.962C613.554 354.504 613.27 354.159 612.906 353.926C612.543 353.69 612.124 353.572 611.649 353.572C611.175 353.572 610.756 353.69 610.392 353.926C610.028 354.159 609.743 354.504 609.536 354.962C609.331 355.416 609.229 355.974 609.229 356.636C609.229 357.298 609.331 357.858 609.536 358.315C609.743 358.77 610.028 359.115 610.392 359.351C610.756 359.584 611.175 359.7 611.649 359.7C612.124 359.7 612.543 359.584 612.906 359.351C613.27 359.115 613.554 358.77 613.759 358.315C613.966 357.858 614.07 357.298 614.07 356.636ZM624.624 355.217H623.03C622.985 354.956 622.901 354.724 622.779 354.523C622.657 354.318 622.505 354.145 622.323 354.003C622.141 353.861 621.934 353.754 621.701 353.683C621.471 353.609 621.222 353.572 620.955 353.572C620.48 353.572 620.06 353.692 619.694 353.93C619.327 354.166 619.04 354.513 618.833 354.97C618.625 355.425 618.522 355.98 618.522 356.636C618.522 357.304 618.625 357.866 618.833 358.324C619.043 358.778 619.33 359.122 619.694 359.355C620.06 359.585 620.479 359.7 620.951 359.7C621.212 359.7 621.456 359.666 621.684 359.598C621.914 359.527 622.12 359.423 622.301 359.287C622.486 359.151 622.641 358.983 622.766 358.784C622.894 358.585 622.982 358.358 623.03 358.102L624.624 358.111C624.564 358.526 624.435 358.915 624.236 359.278C624.04 359.642 623.783 359.963 623.465 360.241C623.147 360.517 622.775 360.733 622.348 360.889C621.922 361.043 621.449 361.119 620.929 361.119C620.162 361.119 619.478 360.942 618.875 360.587C618.273 360.232 617.799 359.719 617.452 359.048C617.105 358.378 616.932 357.574 616.932 356.636C616.932 355.696 617.107 354.892 617.456 354.224C617.806 353.554 618.282 353.041 618.884 352.686C619.486 352.331 620.168 352.153 620.929 352.153C621.415 352.153 621.867 352.222 622.284 352.358C622.702 352.494 623.074 352.695 623.401 352.959C623.728 353.22 623.996 353.541 624.206 353.922C624.419 354.3 624.559 354.732 624.624 355.217ZM625.688 353.598V352.273H632.651V353.598H629.954V361H628.386V353.598H625.688Z" fill="#475467"/>
<path d="M670.033 352.273V361H668.626L664.514 355.055H664.442V361H662.861V352.273H664.276L668.384 358.222H668.46V352.273H670.033ZM679.554 356.636C679.554 357.577 679.377 358.382 679.025 359.053C678.676 359.72 678.199 360.232 677.593 360.587C676.991 360.942 676.308 361.119 675.544 361.119C674.779 361.119 674.095 360.942 673.49 360.587C672.887 360.229 672.41 359.716 672.058 359.048C671.708 358.378 671.534 357.574 671.534 356.636C671.534 355.696 671.708 354.892 672.058 354.224C672.41 353.554 672.887 353.041 673.49 352.686C674.095 352.331 674.779 352.153 675.544 352.153C676.308 352.153 676.991 352.331 677.593 352.686C678.199 353.041 678.676 353.554 679.025 354.224C679.377 354.892 679.554 355.696 679.554 356.636ZM677.964 356.636C677.964 355.974 677.86 355.416 677.653 354.962C677.449 354.504 677.164 354.159 676.801 353.926C676.437 353.69 676.018 353.572 675.544 353.572C675.069 353.572 674.65 353.69 674.287 353.926C673.923 354.159 673.637 354.504 673.43 354.962C673.225 355.416 673.123 355.974 673.123 356.636C673.123 357.298 673.225 357.858 673.43 358.315C673.637 358.77 673.923 359.115 674.287 359.351C674.65 359.584 675.069 359.7 675.544 359.7C676.018 359.7 676.437 359.584 676.801 359.351C677.164 359.115 677.449 358.77 677.653 358.315C677.86 357.858 677.964 357.298 677.964 356.636ZM681.747 352.273L684.018 359.142H684.108L686.375 352.273H688.114L685.037 361H683.085L680.013 352.273H681.747Z" fill="#475467"/>
<path d="M720.818 361H717.861V352.273H720.878C721.744 352.273 722.489 352.447 723.111 352.797C723.736 353.143 724.216 353.642 724.551 354.293C724.886 354.943 725.054 355.722 725.054 356.628C725.054 357.537 724.885 358.318 724.547 358.972C724.212 359.625 723.727 360.126 723.094 360.476C722.463 360.825 721.705 361 720.818 361ZM719.442 359.632H720.741C721.349 359.632 721.857 359.521 722.263 359.3C722.669 359.075 722.974 358.741 723.179 358.298C723.384 357.852 723.486 357.295 723.486 356.628C723.486 355.96 723.384 355.406 723.179 354.966C722.974 354.523 722.672 354.192 722.271 353.973C721.874 353.751 721.379 353.641 720.788 353.641H719.442V359.632ZM726.556 361V352.273H732.232V353.598H728.137V355.967H731.938V357.293H728.137V359.675H732.266V361H726.556ZM741.315 355.217H739.722C739.676 354.956 739.592 354.724 739.47 354.523C739.348 354.318 739.196 354.145 739.014 354.003C738.832 353.861 738.625 353.754 738.392 353.683C738.162 353.609 737.913 353.572 737.646 353.572C737.172 353.572 736.751 353.692 736.385 353.93C736.018 354.166 735.732 354.513 735.524 354.97C735.317 355.425 735.213 355.98 735.213 356.636C735.213 357.304 735.317 357.866 735.524 358.324C735.734 358.778 736.021 359.122 736.385 359.355C736.751 359.585 737.17 359.7 737.642 359.7C737.903 359.7 738.148 359.666 738.375 359.598C738.605 359.527 738.811 359.423 738.993 359.287C739.178 359.151 739.332 358.983 739.457 358.784C739.585 358.585 739.673 358.358 739.722 358.102L741.315 358.111C741.256 358.526 741.126 358.915 740.928 359.278C740.732 359.642 740.474 359.963 740.156 360.241C739.838 360.517 739.466 360.733 739.04 360.889C738.614 361.043 738.141 361.119 737.621 361.119C736.854 361.119 736.169 360.942 735.567 360.587C734.964 360.232 734.49 359.719 734.143 359.048C733.797 358.378 733.624 357.574 733.624 356.636C733.624 355.696 733.798 354.892 734.148 354.224C734.497 353.554 734.973 353.041 735.575 352.686C736.178 352.331 736.859 352.153 737.621 352.153C738.107 352.153 738.558 352.222 738.976 352.358C739.393 352.494 739.766 352.695 740.092 352.959C740.419 353.22 740.688 353.541 740.898 353.922C741.111 354.3 741.25 354.732 741.315 355.217Z" fill="#475467"/>
<line x1="87.5" y1="104.5" x2="765.5" y2="104.5" stroke="#EAECF0" stroke-linecap="round" stroke-dasharray="10 10"/>
<line x1="87.5" y1="149.5" x2="765.5" y2="149.5" stroke="#EAECF0" stroke-linecap="round" stroke-dasharray="10 10"/>
<line x1="87.5" y1="194.5" x2="765.5" y2="194.5" stroke="#EAECF0" stroke-linecap="round" stroke-dasharray="10 10"/>
<line x1="87.5" y1="239.5" x2="765.5" y2="239.5" stroke="#EAECF0" stroke-linecap="round" stroke-dasharray="10 10"/>
<line x1="87.5" y1="284.5" x2="765.5" y2="284.5" stroke="#EAECF0" stroke-linecap="round" stroke-dasharray="10 10"/>
<line x1="87.5" y1="329.5" x2="765.5" y2="329.5" stroke="#EAECF0" stroke-linecap="round" stroke-dasharray="10 10"/>
<path d="M105 127.964C105 126.307 106.343 124.964 108 124.964C109.657 124.964 111 126.307 111 127.964V210.964C111 212.621 109.657 213.964 108 213.964C106.343 213.964 105 212.621 105 210.964V127.964Z" fill="#826AF9"/>
<path d="M105 224.964C105 223.307 106.343 221.964 108 221.964C109.657 221.964 111 223.307 111 224.964V264.964C111 266.621 109.657 267.964 108 267.964C106.343 267.964 105 266.621 105 264.964V224.964Z" fill="#2D99FF"/>
<path d="M105 278.964C105 277.307 106.343 275.964 108 275.964C109.657 275.964 111 277.307 111 278.964V326C111 327.657 109.657 329 108 329C106.343 329 105 327.657 105 326V278.964Z" fill="#FF9640"/>
<path d="M163 190.964C163 189.307 164.343 187.964 166 187.964C167.657 187.964 169 189.307 169 190.964V210.964C169 212.621 167.657 213.964 166 213.964C164.343 213.964 163 212.621 163 210.964V190.964Z" fill="#826AF9"/>
<path d="M163 224.964C163 223.307 164.343 221.964 166 221.964C167.657 221.964 169 223.307 169 224.964V264.964C169 266.621 167.657 267.964 166 267.964C164.343 267.964 163 266.621 163 264.964V224.964Z" fill="#2D99FF"/>
<path d="M163 278.964C163 277.307 164.343 275.964 166 275.964C167.657 275.964 169 277.307 169 278.964V326C169 327.657 167.657 329 166 329C164.343 329 163 327.657 163 326V278.964Z" fill="#FF9640"/>
<path d="M221 131C221 129.343 222.343 128 224 128C225.657 128 227 129.343 227 131V181C227 182.657 225.657 184 224 184C222.343 184 221 182.657 221 181V131Z" fill="#826AF9"/>
<path d="M221 195C221 193.343 222.343 192 224 192C225.657 192 227 193.343 227 195V285C227 286.657 225.657 288 224 288C222.343 288 221 286.657 221 285V195Z" fill="#2D99FF"/>
<path d="M221 299C221 297.343 222.343 296 224 296C225.657 296 227 297.343 227 299V326C227 327.657 225.657 329 224 329C222.343 329 221 327.657 221 326V299Z" fill="#FF9640"/>
<path d="M279 116C279 114.343 280.343 113 282 113C283.657 113 285 114.343 285 116V141C285 142.657 283.657 144 282 144C280.343 144 279 142.657 279 141V116Z" fill="#826AF9"/>
<path d="M279 155C279 153.343 280.343 152 282 152C283.657 152 285 153.343 285 155V179C285 180.657 283.657 182 282 182C280.343 182 279 180.657 279 179V155Z" fill="#2D99FF"/>
<path d="M279 193C279 191.343 280.343 190 282 190C283.657 190 285 191.343 285 193V325C285 326.657 283.657 328 282 328C280.343 328 279 326.657 279 325V193Z" fill="#FF9640"/>
<path d="M341 176C341 174.343 342.343 173 344 173C345.657 173 347 174.343 347 176V243C347 244.657 345.657 246 344 246C342.343 246 341 244.657 341 243V176Z" fill="#826AF9"/>
<path d="M341 257C341 255.343 342.343 254 344 254C345.657 254 347 255.343 347 257V297C347 298.657 345.657 300 344 300C342.343 300 341 298.657 341 297V257Z" fill="#2D99FF"/>
<path d="M341 311C341 309.343 342.343 308 344 308C345.657 308 347 309.343 347 311V326C347 327.657 345.657 329 344 329C342.343 329 341 327.657 341 326V311Z" fill="#FF9640"/>
<path d="M398 80C398 78.3431 399.343 77 401 77C402.657 77 404 78.3431 404 80V231C404 232.657 402.657 234 401 234C399.343 234 398 232.657 398 231V80Z" fill="#826AF9"/>
<path d="M398 245C398 243.343 399.343 242 401 242C402.657 242 404 243.343 404 245V285C404 286.657 402.657 288 401 288C399.343 288 398 286.657 398 285V245Z" fill="#2D99FF"/>
<path d="M398 299C398 297.343 399.343 296 401 296C402.657 296 404 297.343 404 299V326C404 327.657 402.657 329 401 329C399.343 329 398 327.657 398 326V299Z" fill="#FF9640"/>
<path d="M450 234C450 232.343 451.343 231 453 231C454.657 231 456 232.343 456 234V257C456 258.657 454.657 260 453 260C451.343 260 450 258.657 450 257V234Z" fill="#826AF9"/>
<path d="M450 271C450 269.343 451.343 268 453 268C454.657 268 456 269.343 456 271V292C456 293.657 454.657 295 453 295C451.343 295 450 293.657 450 292V271Z" fill="#2D99FF"/>
<path d="M450 306C450 304.343 451.343 303 453 303C454.657 303 456 304.343 456 306V326C456 327.657 454.657 329 453 329C451.343 329 450 327.657 450 326V306Z" fill="#FF9640"/>
<path d="M506 121C506 119.343 507.343 118 509 118C510.657 118 512 119.343 512 121V186C512 187.657 510.657 189 509 189C507.343 189 506 187.657 506 186V121Z" fill="#826AF9"/>
<path d="M506 200C506 198.343 507.343 197 509 197C510.657 197 512 198.343 512 200V285C512 286.657 510.657 288 509 288C507.343 288 506 286.657 506 285V200Z" fill="#2D99FF"/>
<path d="M506 299C506 297.343 507.343 296 509 296C510.657 296 512 297.343 512 299V326C512 327.657 510.657 329 509 329C507.343 329 506 327.657 506 326V299Z" fill="#FF9640"/>
<path d="M563 144C563 142.343 564.343 141 566 141C567.657 141 569 142.343 569 144V169C569 170.657 567.657 172 566 172C564.343 172 563 170.657 563 169V144Z" fill="#826AF9"/>
<path d="M563 183C563 181.343 564.343 180 566 180C567.657 180 569 181.343 569 183V204C569 205.657 567.657 207 566 207C564.343 207 563 205.657 563 204V183Z" fill="#2D99FF"/>
<path d="M563 218C563 216.343 564.343 215 566 215C567.657 215 569 216.343 569 218V326C569 327.657 567.657 329 566 329C564.343 329 563 327.657 563 326V218Z" fill="#FF9640"/>
<path d="M618 80C618 78.3431 619.343 77 621 77C622.657 77 624 78.3431 624 80V231C624 232.657 622.657 234 621 234C619.343 234 618 232.657 618 231V80Z" fill="#826AF9"/>
<path d="M618 245C618 243.343 619.343 242 621 242C622.657 242 624 243.343 624 245V285C624 286.657 622.657 288 621 288C619.343 288 618 286.657 618 285V245Z" fill="#2D99FF"/>
<path d="M618 299C618 297.343 619.343 296 621 296C622.657 296 624 297.343 624 299V326C624 327.657 622.657 329 621 329C619.343 329 618 327.657 618 326V299Z" fill="#FF9640"/>
<path d="M673 175C673 173.343 674.343 172 676 172C677.657 172 679 173.343 679 175V244C679 245.657 677.657 247 676 247C674.343 247 673 245.657 673 244V175Z" fill="#826AF9"/>
<path d="M673 258C673 256.343 674.343 255 676 255C677.657 255 679 256.343 679 258V285C679 286.657 677.657 288 676 288C674.343 288 673 286.657 673 285V258Z" fill="#2D99FF"/>
<path d="M673 299C673 297.343 674.343 296 676 296C677.657 296 679 297.343 679 299V326C679 327.657 677.657 329 676 329C674.343 329 673 327.657 673 326V299Z" fill="#FF9640"/>
<path d="M727 130C727 128.343 728.343 127 730 127C731.657 127 733 128.343 733 130V231C733 232.657 731.657 234 730 234C728.343 234 727 232.657 727 231V130Z" fill="#826AF9"/>
<path d="M727 245C727 243.343 728.343 242 730 242C731.657 242 733 243.343 733 245V285C733 286.657 731.657 288 730 288C728.343 288 727 286.657 727 285V245Z" fill="#2D99FF"/>
<path d="M727 299C727 297.343 728.343 296 730 296C731.657 296 733 297.343 733 299V326C733 327.657 731.657 329 730 329C728.343 329 727 327.657 727 326V299Z" fill="#FF9640"/>
<path d="M47.4716 41.0625C47.4186 40.5663 47.1951 40.1799 46.8011 39.9034C46.411 39.6269 45.9034 39.4886 45.2784 39.4886C44.839 39.4886 44.4621 39.5549 44.1477 39.6875C43.8333 39.8201 43.5928 40 43.4261 40.2273C43.2595 40.4545 43.1742 40.714 43.1705 41.0057C43.1705 41.2481 43.2254 41.4583 43.3352 41.6364C43.4489 41.8144 43.6023 41.9659 43.7955 42.0909C43.9886 42.2121 44.2027 42.3144 44.4375 42.3977C44.6723 42.4811 44.9091 42.5511 45.1477 42.608L46.2386 42.8807C46.678 42.983 47.1004 43.1212 47.5057 43.2955C47.9148 43.4697 48.2803 43.6894 48.6023 43.9545C48.928 44.2197 49.1856 44.5398 49.375 44.9148C49.5644 45.2898 49.6591 45.7292 49.6591 46.233C49.6591 46.9148 49.4848 47.5152 49.1364 48.0341C48.7879 48.5492 48.2841 48.9527 47.625 49.2443C46.9697 49.5322 46.1761 49.6761 45.2443 49.6761C44.339 49.6761 43.553 49.536 42.8864 49.2557C42.2235 48.9754 41.7045 48.5663 41.3295 48.0284C40.9583 47.4905 40.7576 46.8352 40.7273 46.0625H42.8011C42.8314 46.4678 42.9564 46.8049 43.1761 47.0739C43.3958 47.3428 43.6818 47.5436 44.0341 47.6761C44.3902 47.8087 44.7879 47.875 45.2273 47.875C45.6856 47.875 46.0871 47.8068 46.4318 47.6705C46.7803 47.5303 47.053 47.3371 47.25 47.0909C47.447 46.8409 47.5473 46.5492 47.5511 46.2159C47.5473 45.9129 47.4583 45.6629 47.2841 45.4659C47.1098 45.2652 46.8655 45.0985 46.5511 44.9659C46.2405 44.8295 45.8769 44.7083 45.4602 44.6023L44.1364 44.2614C43.178 44.0152 42.4205 43.642 41.8636 43.142C41.3106 42.6383 41.0341 41.9697 41.0341 41.1364C41.0341 40.4508 41.2197 39.8504 41.5909 39.3352C41.9659 38.8201 42.4754 38.4205 43.1193 38.1364C43.7633 37.8485 44.4924 37.7045 45.3068 37.7045C46.1326 37.7045 46.8561 37.8485 47.4773 38.1364C48.1023 38.4205 48.5928 38.8163 48.9489 39.3239C49.3049 39.8277 49.4886 40.4072 49.5 41.0625H47.4716ZM55.8054 40.7727V42.3636H50.7884V40.7727H55.8054ZM52.027 38.6818H54.0838V46.875C54.0838 47.1515 54.1255 47.3636 54.2088 47.5114C54.2959 47.6553 54.4096 47.7538 54.5497 47.8068C54.6899 47.8598 54.8452 47.8864 55.0156 47.8864C55.1444 47.8864 55.2618 47.8769 55.3679 47.858C55.4777 47.839 55.5611 47.822 55.6179 47.8068L55.9645 49.4148C55.8546 49.4527 55.6974 49.4943 55.4929 49.5398C55.2921 49.5852 55.0459 49.6117 54.7543 49.6193C54.2391 49.6345 53.7751 49.5568 53.3622 49.3864C52.9493 49.2121 52.6217 48.9432 52.3793 48.5795C52.1406 48.2159 52.0232 47.7614 52.027 47.2159V38.6818ZM60.0369 49.6761C59.4839 49.6761 58.9858 49.5777 58.5426 49.3807C58.1032 49.1799 57.7547 48.8845 57.4972 48.4943C57.2434 48.1042 57.1165 47.6231 57.1165 47.0511C57.1165 46.5587 57.2074 46.1515 57.3892 45.8295C57.571 45.5076 57.8191 45.25 58.1335 45.0568C58.4479 44.8636 58.8021 44.7178 59.196 44.6193C59.5938 44.517 60.0047 44.4432 60.429 44.3977C60.9403 44.3447 61.3551 44.2973 61.6733 44.2557C61.9915 44.2102 62.2225 44.142 62.3665 44.0511C62.5142 43.9564 62.5881 43.8106 62.5881 43.6136V43.5795C62.5881 43.1515 62.4612 42.8201 62.2074 42.5852C61.9536 42.3504 61.5881 42.233 61.1108 42.233C60.607 42.233 60.2074 42.3428 59.9119 42.5625C59.6203 42.7822 59.4233 43.0417 59.321 43.3409L57.4006 43.0682C57.5521 42.5379 57.8021 42.0947 58.1506 41.7386C58.4991 41.3788 58.9252 41.1098 59.429 40.9318C59.9328 40.75 60.4896 40.6591 61.0994 40.6591C61.5199 40.6591 61.9384 40.7083 62.3551 40.8068C62.7718 40.9053 63.1525 41.0682 63.4972 41.2955C63.8419 41.5189 64.1184 41.8239 64.3267 42.2102C64.5388 42.5966 64.6449 43.0795 64.6449 43.6591V49.5H62.6676V48.3011H62.5994C62.4744 48.5436 62.2983 48.7708 62.071 48.983C61.8475 49.1913 61.5653 49.3598 61.2244 49.4886C60.8873 49.6136 60.4915 49.6761 60.0369 49.6761ZM60.571 48.1648C60.9839 48.1648 61.3419 48.0833 61.6449 47.9205C61.9479 47.7538 62.1809 47.5341 62.3438 47.2614C62.5104 46.9886 62.5938 46.6913 62.5938 46.3693V45.3409C62.5294 45.3939 62.4195 45.4432 62.2642 45.4886C62.1127 45.5341 61.9422 45.5739 61.7528 45.608C61.5634 45.642 61.3759 45.6723 61.1903 45.6989C61.0047 45.7254 60.8438 45.7481 60.7074 45.767C60.4006 45.8087 60.1259 45.8769 59.8835 45.9716C59.6411 46.0663 59.4498 46.1989 59.3097 46.3693C59.1695 46.536 59.0994 46.7519 59.0994 47.017C59.0994 47.3958 59.2377 47.6818 59.5142 47.875C59.7907 48.0682 60.143 48.1648 60.571 48.1648ZM71.071 40.7727V42.3636H66.054V40.7727H71.071ZM67.2926 38.6818H69.3494V46.875C69.3494 47.1515 69.3911 47.3636 69.4744 47.5114C69.5616 47.6553 69.6752 47.7538 69.8153 47.8068C69.9555 47.8598 70.1108 47.8864 70.2812 47.8864C70.41 47.8864 70.5275 47.8769 70.6335 47.858C70.7434 47.839 70.8267 47.822 70.8835 47.8068L71.2301 49.4148C71.1203 49.4527 70.9631 49.4943 70.7585 49.5398C70.5578 49.5852 70.3116 49.6117 70.0199 49.6193C69.5047 49.6345 69.0407 49.5568 68.6278 49.3864C68.215 49.2121 67.8873 48.9432 67.6449 48.5795C67.4063 48.2159 67.2888 47.7614 67.2926 47.2159V38.6818ZM72.7912 49.5V40.7727H74.848V49.5H72.7912ZM73.8253 39.5341C73.4995 39.5341 73.2192 39.4261 72.9844 39.2102C72.7495 38.9905 72.6321 38.7273 72.6321 38.4205C72.6321 38.1098 72.7495 37.8466 72.9844 37.6307C73.2192 37.411 73.4995 37.3011 73.8253 37.3011C74.1548 37.3011 74.4351 37.411 74.6662 37.6307C74.901 37.8466 75.0185 38.1098 75.0185 38.4205C75.0185 38.7273 74.901 38.9905 74.6662 39.2102C74.4351 39.4261 74.1548 39.5341 73.8253 39.5341ZM83.8608 43.0795L81.9858 43.2841C81.9328 43.0947 81.84 42.9167 81.7074 42.75C81.5786 42.5833 81.4044 42.4489 81.1847 42.3466C80.965 42.2443 80.696 42.1932 80.3778 42.1932C79.9498 42.1932 79.59 42.286 79.2983 42.4716C79.0104 42.6572 78.8684 42.8977 78.8722 43.1932C78.8684 43.447 78.9612 43.6534 79.1506 43.8125C79.3438 43.9716 79.6619 44.1023 80.1051 44.2045L81.5938 44.5227C82.4195 44.7008 83.0331 44.983 83.4347 45.3693C83.84 45.7557 84.0445 46.2614 84.0483 46.8864C84.0445 47.4356 83.8835 47.9205 83.5653 48.3409C83.2509 48.7576 82.8134 49.0833 82.2528 49.3182C81.6922 49.553 81.0483 49.6705 80.321 49.6705C79.2528 49.6705 78.393 49.447 77.7415 49C77.09 48.5492 76.7017 47.9223 76.5767 47.1193L78.5824 46.9261C78.6733 47.3201 78.8665 47.6174 79.1619 47.8182C79.4574 48.0189 79.8419 48.1193 80.3153 48.1193C80.804 48.1193 81.196 48.0189 81.4915 47.8182C81.7907 47.6174 81.9403 47.3693 81.9403 47.0739C81.9403 46.8239 81.8438 46.6174 81.6506 46.4545C81.4612 46.2917 81.1657 46.1667 80.7642 46.0795L79.2756 45.767C78.4384 45.5928 77.8191 45.2992 77.4176 44.8864C77.0161 44.4697 76.8172 43.9432 76.821 43.3068C76.8172 42.7689 76.9631 42.303 77.2585 41.9091C77.5578 41.5114 77.9725 41.2045 78.5028 40.9886C79.0369 40.7689 79.6525 40.6591 80.3494 40.6591C81.3722 40.6591 82.1771 40.8769 82.7642 41.3125C83.3551 41.7481 83.7206 42.3371 83.8608 43.0795ZM90.1023 40.7727V42.3636H85.0852V40.7727H90.1023ZM86.3239 38.6818H88.3807V46.875C88.3807 47.1515 88.4223 47.3636 88.5057 47.5114C88.5928 47.6553 88.7064 47.7538 88.8466 47.8068C88.9867 47.8598 89.142 47.8864 89.3125 47.8864C89.4413 47.8864 89.5587 47.8769 89.6648 47.858C89.7746 47.839 89.858 47.822 89.9148 47.8068L90.2614 49.4148C90.1515 49.4527 89.9943 49.4943 89.7898 49.5398C89.589 49.5852 89.3428 49.6117 89.0511 49.6193C88.536 49.6345 88.072 49.5568 87.6591 49.3864C87.2462 49.2121 86.9186 48.9432 86.6761 48.5795C86.4375 48.2159 86.3201 47.7614 86.3239 47.2159V38.6818ZM91.8224 49.5V40.7727H93.8793V49.5H91.8224ZM92.8565 39.5341C92.5308 39.5341 92.2505 39.4261 92.0156 39.2102C91.7808 38.9905 91.6634 38.7273 91.6634 38.4205C91.6634 38.1098 91.7808 37.8466 92.0156 37.6307C92.2505 37.411 92.5308 37.3011 92.8565 37.3011C93.1861 37.3011 93.4664 37.411 93.6974 37.6307C93.9323 37.8466 94.0497 38.1098 94.0497 38.4205C94.0497 38.7273 93.9323 38.9905 93.6974 39.2102C93.4664 39.4261 93.1861 39.5341 92.8565 39.5341ZM99.8011 49.6705C98.9299 49.6705 98.1818 49.4792 97.5568 49.0966C96.9356 48.714 96.4564 48.1856 96.1193 47.5114C95.786 46.8333 95.6193 46.053 95.6193 45.1705C95.6193 44.2841 95.7898 43.5019 96.1307 42.8239C96.4716 42.142 96.9527 41.6117 97.5739 41.233C98.1989 40.8504 98.9375 40.6591 99.7898 40.6591C100.498 40.6591 101.125 40.7898 101.67 41.0511C102.22 41.3087 102.657 41.6742 102.983 42.1477C103.309 42.6174 103.494 43.1667 103.54 43.7955H101.574C101.494 43.375 101.305 43.0246 101.006 42.7443C100.71 42.4602 100.314 42.3182 99.8182 42.3182C99.3977 42.3182 99.0284 42.4318 98.7102 42.6591C98.392 42.8826 98.1439 43.2045 97.9659 43.625C97.7917 44.0455 97.7045 44.5492 97.7045 45.1364C97.7045 45.7311 97.7917 46.2424 97.9659 46.6705C98.1402 47.0947 98.3845 47.4223 98.6989 47.6534C99.017 47.8807 99.3902 47.9943 99.8182 47.9943C100.121 47.9943 100.392 47.9375 100.631 47.8239C100.873 47.7064 101.076 47.5379 101.239 47.3182C101.402 47.0985 101.513 46.8314 101.574 46.517H103.54C103.491 47.1345 103.309 47.6818 102.994 48.1591C102.68 48.6326 102.252 49.0038 101.71 49.2727C101.169 49.5379 100.532 49.6705 99.8011 49.6705ZM112.126 43.0795L110.251 43.2841C110.198 43.0947 110.106 42.9167 109.973 42.75C109.844 42.5833 109.67 42.4489 109.45 42.3466C109.231 42.2443 108.962 42.1932 108.643 42.1932C108.215 42.1932 107.856 42.286 107.564 42.4716C107.276 42.6572 107.134 42.8977 107.138 43.1932C107.134 43.447 107.227 43.6534 107.416 43.8125C107.609 43.9716 107.928 44.1023 108.371 44.2045L109.859 44.5227C110.685 44.7008 111.299 44.983 111.7 45.3693C112.106 45.7557 112.31 46.2614 112.314 46.8864C112.31 47.4356 112.149 47.9205 111.831 48.3409C111.517 48.7576 111.079 49.0833 110.518 49.3182C109.958 49.553 109.314 49.6705 108.587 49.6705C107.518 49.6705 106.659 49.447 106.007 49C105.356 48.5492 104.967 47.9223 104.842 47.1193L106.848 46.9261C106.939 47.3201 107.132 47.6174 107.428 47.8182C107.723 48.0189 108.107 48.1193 108.581 48.1193C109.07 48.1193 109.462 48.0189 109.757 47.8182C110.056 47.6174 110.206 47.3693 110.206 47.0739C110.206 46.8239 110.109 46.6174 109.916 46.4545C109.727 46.2917 109.431 46.1667 109.03 46.0795L107.541 45.767C106.704 45.5928 106.085 45.2992 105.683 44.8864C105.282 44.4697 105.083 43.9432 105.087 43.3068C105.083 42.7689 105.229 42.303 105.524 41.9091C105.823 41.5114 106.238 41.2045 106.768 40.9886C107.303 40.7689 107.918 40.6591 108.615 40.6591C109.638 40.6591 110.443 40.8769 111.03 41.3125C111.621 41.7481 111.986 42.3371 112.126 43.0795ZM121.786 49.6705C120.933 49.6705 120.195 49.483 119.57 49.108C118.945 48.733 118.46 48.2083 118.115 47.5341C117.774 46.8598 117.604 46.072 117.604 45.1705C117.604 44.2689 117.774 43.4792 118.115 42.8011C118.46 42.1231 118.945 41.5966 119.57 41.2216C120.195 40.8466 120.933 40.6591 121.786 40.6591C122.638 40.6591 123.376 40.8466 124.001 41.2216C124.626 41.5966 125.109 42.1231 125.45 42.8011C125.795 43.4792 125.967 44.2689 125.967 45.1705C125.967 46.072 125.795 46.8598 125.45 47.5341C125.109 48.2083 124.626 48.733 124.001 49.108C123.376 49.483 122.638 49.6705 121.786 49.6705ZM121.797 48.0227C122.259 48.0227 122.645 47.8958 122.956 47.642C123.267 47.3845 123.498 47.0398 123.649 46.608C123.804 46.1761 123.882 45.6951 123.882 45.1648C123.882 44.6307 123.804 44.1477 123.649 43.7159C123.498 43.2803 123.267 42.9337 122.956 42.6761C122.645 42.4186 122.259 42.2898 121.797 42.2898C121.323 42.2898 120.929 42.4186 120.615 42.6761C120.304 42.9337 120.071 43.2803 119.916 43.7159C119.765 44.1477 119.689 44.6307 119.689 45.1648C119.689 45.6951 119.765 46.1761 119.916 46.608C120.071 47.0398 120.304 47.3845 120.615 47.642C120.929 47.8958 121.323 48.0227 121.797 48.0227ZM132.134 40.7727V42.3636H126.974V40.7727H132.134ZM128.264 49.5V39.9489C128.264 39.3617 128.385 38.8731 128.628 38.483C128.874 38.0928 129.204 37.8011 129.616 37.608C130.029 37.4148 130.488 37.3182 130.991 37.3182C131.348 37.3182 131.664 37.3466 131.94 37.4034C132.217 37.4602 132.421 37.5114 132.554 37.5568L132.145 39.1477C132.058 39.1212 131.948 39.0947 131.815 39.0682C131.683 39.0379 131.535 39.0227 131.372 39.0227C130.99 39.0227 130.719 39.1155 130.56 39.3011C130.404 39.483 130.327 39.7443 130.327 40.0852V49.5H128.264ZM139.298 49.5H137.048L141.145 37.8636H143.747L147.849 49.5H145.599L142.491 40.25H142.401L139.298 49.5ZM139.372 44.9375H145.509V46.6307H139.372V44.9375ZM152.832 49.6705C151.961 49.6705 151.213 49.4792 150.588 49.0966C149.967 48.714 149.488 48.1856 149.151 47.5114C148.817 46.8333 148.651 46.053 148.651 45.1705C148.651 44.2841 148.821 43.5019 149.162 42.8239C149.503 42.142 149.984 41.6117 150.605 41.233C151.23 40.8504 151.969 40.6591 152.821 40.6591C153.529 40.6591 154.156 40.7898 154.702 41.0511C155.251 41.3087 155.688 41.6742 156.014 42.1477C156.34 42.6174 156.526 43.1667 156.571 43.7955H154.605C154.526 43.375 154.336 43.0246 154.037 42.7443C153.741 42.4602 153.346 42.3182 152.849 42.3182C152.429 42.3182 152.06 42.4318 151.741 42.6591C151.423 42.8826 151.175 43.2045 150.997 43.625C150.823 44.0455 150.736 44.5492 150.736 45.1364C150.736 45.7311 150.823 46.2424 150.997 46.6705C151.171 47.0947 151.416 47.4223 151.73 47.6534C152.048 47.8807 152.421 47.9943 152.849 47.9943C153.152 47.9943 153.423 47.9375 153.662 47.8239C153.904 47.7064 154.107 47.5379 154.27 47.3182C154.433 47.0985 154.545 46.8314 154.605 46.517H156.571C156.522 47.1345 156.34 47.6818 156.026 48.1591C155.711 48.6326 155.283 49.0038 154.741 49.2727C154.2 49.5379 153.563 49.6705 152.832 49.6705ZM162.618 40.7727V42.3636H157.601V40.7727H162.618ZM158.839 38.6818H160.896V46.875C160.896 47.1515 160.938 47.3636 161.021 47.5114C161.108 47.6553 161.222 47.7538 161.362 47.8068C161.502 47.8598 161.658 47.8864 161.828 47.8864C161.957 47.8864 162.074 47.8769 162.18 47.858C162.29 47.839 162.374 47.822 162.43 47.8068L162.777 49.4148C162.667 49.4527 162.51 49.4943 162.305 49.5398C162.105 49.5852 161.858 49.6117 161.567 49.6193C161.052 49.6345 160.588 49.5568 160.175 49.3864C159.762 49.2121 159.434 48.9432 159.192 48.5795C158.953 48.2159 158.836 47.7614 158.839 47.2159V38.6818ZM164.338 49.5V40.7727H166.395V49.5H164.338ZM165.372 39.5341C165.046 39.5341 164.766 39.4261 164.531 39.2102C164.296 38.9905 164.179 38.7273 164.179 38.4205C164.179 38.1098 164.296 37.8466 164.531 37.6307C164.766 37.411 165.046 37.3011 165.372 37.3011C165.702 37.3011 165.982 37.411 166.213 37.6307C166.448 37.8466 166.565 38.1098 166.565 38.4205C166.565 38.7273 166.448 38.9905 166.213 39.2102C165.982 39.4261 165.702 39.5341 165.372 39.5341ZM176.305 40.7727L173.197 49.5H170.925L167.817 40.7727H170.01L172.016 47.2557H172.107L174.118 40.7727H176.305ZM181.295 49.6705C180.42 49.6705 179.665 49.4886 179.028 49.125C178.396 48.7576 177.909 48.2386 177.568 47.5682C177.227 46.8939 177.057 46.1004 177.057 45.1875C177.057 44.2898 177.227 43.5019 177.568 42.8239C177.913 42.142 178.394 41.6117 179.011 41.233C179.629 40.8504 180.354 40.6591 181.188 40.6591C181.725 40.6591 182.233 40.7462 182.71 40.9205C183.191 41.0909 183.616 41.3561 183.983 41.7159C184.354 42.0758 184.646 42.5341 184.858 43.0909C185.07 43.6439 185.176 44.303 185.176 45.0682V45.6989H178.023V44.3125H183.205C183.201 43.9186 183.116 43.5682 182.949 43.2614C182.782 42.9508 182.549 42.7064 182.25 42.5284C181.955 42.3504 181.61 42.2614 181.216 42.2614C180.795 42.2614 180.426 42.3636 180.108 42.5682C179.79 42.7689 179.542 43.0341 179.364 43.3636C179.189 43.6894 179.1 44.0473 179.097 44.4375V45.6477C179.097 46.1553 179.189 46.5909 179.375 46.9545C179.561 47.3144 179.82 47.5909 180.153 47.7841C180.487 47.9735 180.877 48.0682 181.324 48.0682C181.623 48.0682 181.894 48.0265 182.136 47.9432C182.379 47.8561 182.589 47.7292 182.767 47.5625C182.945 47.3958 183.08 47.1894 183.17 46.9432L185.091 47.1591C184.97 47.6667 184.739 48.1098 184.398 48.4886C184.061 48.8636 183.629 49.1553 183.102 49.3636C182.576 49.5682 181.973 49.6705 181.295 49.6705ZM192.47 49.5H190.22L194.317 37.8636H196.919L201.021 49.5H198.771L195.663 40.25H195.572L192.47 49.5ZM192.544 44.9375H198.68V46.6307H192.544V44.9375ZM202.463 52.7727V40.7727H204.486V42.2159H204.605C204.711 42.0038 204.861 41.7784 205.054 41.5398C205.247 41.2973 205.509 41.0909 205.838 40.9205C206.168 40.7462 206.588 40.6591 207.099 40.6591C207.774 40.6591 208.382 40.8314 208.923 41.1761C209.469 41.517 209.901 42.0227 210.219 42.6932C210.541 43.3598 210.702 44.178 210.702 45.1477C210.702 46.1061 210.545 46.9205 210.23 47.5909C209.916 48.2614 209.488 48.7727 208.946 49.125C208.404 49.4773 207.791 49.6534 207.105 49.6534C206.605 49.6534 206.19 49.5701 205.861 49.4034C205.531 49.2367 205.266 49.036 205.065 48.8011C204.868 48.5625 204.715 48.3371 204.605 48.125H204.52V52.7727H202.463ZM204.48 45.1364C204.48 45.7008 204.56 46.1951 204.719 46.6193C204.882 47.0436 205.115 47.375 205.418 47.6136C205.724 47.8485 206.096 47.9659 206.531 47.9659C206.986 47.9659 207.366 47.8447 207.673 47.6023C207.98 47.3561 208.211 47.0208 208.366 46.5966C208.526 46.1686 208.605 45.6818 208.605 45.1364C208.605 44.5947 208.527 44.1136 208.372 43.6932C208.217 43.2727 207.986 42.9432 207.679 42.7045C207.372 42.4659 206.99 42.3466 206.531 42.3466C206.092 42.3466 205.719 42.4621 205.412 42.6932C205.105 42.9242 204.872 43.2481 204.713 43.6648C204.558 44.0814 204.48 44.572 204.48 45.1364ZM212.463 52.7727V40.7727H214.486V42.2159H214.605C214.711 42.0038 214.861 41.7784 215.054 41.5398C215.247 41.2973 215.509 41.0909 215.838 40.9205C216.168 40.7462 216.588 40.6591 217.099 40.6591C217.774 40.6591 218.382 40.8314 218.923 41.1761C219.469 41.517 219.901 42.0227 220.219 42.6932C220.541 43.3598 220.702 44.178 220.702 45.1477C220.702 46.1061 220.545 46.9205 220.23 47.5909C219.916 48.2614 219.488 48.7727 218.946 49.125C218.404 49.4773 217.791 49.6534 217.105 49.6534C216.605 49.6534 216.19 49.5701 215.861 49.4034C215.531 49.2367 215.266 49.036 215.065 48.8011C214.868 48.5625 214.715 48.3371 214.605 48.125H214.52V52.7727H212.463ZM214.48 45.1364C214.48 45.7008 214.56 46.1951 214.719 46.6193C214.882 47.0436 215.115 47.375 215.418 47.6136C215.724 47.8485 216.096 47.9659 216.531 47.9659C216.986 47.9659 217.366 47.8447 217.673 47.6023C217.98 47.3561 218.211 47.0208 218.366 46.5966C218.526 46.1686 218.605 45.6818 218.605 45.1364C218.605 44.5947 218.527 44.1136 218.372 43.6932C218.217 43.2727 217.986 42.9432 217.679 42.7045C217.372 42.4659 216.99 42.3466 216.531 42.3466C216.092 42.3466 215.719 42.4621 215.412 42.6932C215.105 42.9242 214.872 43.2481 214.713 43.6648C214.558 44.0814 214.48 44.572 214.48 45.1364ZM224.52 37.8636V49.5H222.463V37.8636H224.52ZM226.635 49.5V40.7727H228.692V49.5H226.635ZM227.669 39.5341C227.343 39.5341 227.063 39.4261 226.828 39.2102C226.593 38.9905 226.476 38.7273 226.476 38.4205C226.476 38.1098 226.593 37.8466 226.828 37.6307C227.063 37.411 227.343 37.3011 227.669 37.3011C227.999 37.3011 228.279 37.411 228.51 37.6307C228.745 37.8466 228.862 38.1098 228.862 38.4205C228.862 38.7273 228.745 38.9905 228.51 39.2102C228.279 39.4261 227.999 39.5341 227.669 39.5341ZM234.614 49.6705C233.742 49.6705 232.994 49.4792 232.369 49.0966C231.748 48.714 231.269 48.1856 230.932 47.5114C230.598 46.8333 230.432 46.053 230.432 45.1705C230.432 44.2841 230.602 43.5019 230.943 42.8239C231.284 42.142 231.765 41.6117 232.386 41.233C233.011 40.8504 233.75 40.6591 234.602 40.6591C235.311 40.6591 235.938 40.7898 236.483 41.0511C237.032 41.3087 237.47 41.6742 237.795 42.1477C238.121 42.6174 238.307 43.1667 238.352 43.7955H236.386C236.307 43.375 236.117 43.0246 235.818 42.7443C235.523 42.4602 235.127 42.3182 234.631 42.3182C234.21 42.3182 233.841 42.4318 233.523 42.6591C233.205 42.8826 232.956 43.2045 232.778 43.625C232.604 44.0455 232.517 44.5492 232.517 45.1364C232.517 45.7311 232.604 46.2424 232.778 46.6705C232.953 47.0947 233.197 47.4223 233.511 47.6534C233.83 47.8807 234.203 47.9943 234.631 47.9943C234.934 47.9943 235.205 47.9375 235.443 47.8239C235.686 47.7064 235.888 47.5379 236.051 47.3182C236.214 47.0985 236.326 46.8314 236.386 46.517H238.352C238.303 47.1345 238.121 47.6818 237.807 48.1591C237.492 48.6326 237.064 49.0038 236.523 49.2727C235.981 49.5379 235.345 49.6705 234.614 49.6705ZM242.553 49.6761C242 49.6761 241.501 49.5777 241.058 49.3807C240.619 49.1799 240.27 48.8845 240.013 48.4943C239.759 48.1042 239.632 47.6231 239.632 47.0511C239.632 46.5587 239.723 46.1515 239.905 45.8295C240.087 45.5076 240.335 45.25 240.649 45.0568C240.964 44.8636 241.318 44.7178 241.712 44.6193C242.109 44.517 242.52 44.4432 242.945 44.3977C243.456 44.3447 243.871 44.2973 244.189 44.2557C244.507 44.2102 244.738 44.142 244.882 44.0511C245.03 43.9564 245.104 43.8106 245.104 43.6136V43.5795C245.104 43.1515 244.977 42.8201 244.723 42.5852C244.469 42.3504 244.104 42.233 243.626 42.233C243.123 42.233 242.723 42.3428 242.428 42.5625C242.136 42.7822 241.939 43.0417 241.837 43.3409L239.916 43.0682C240.068 42.5379 240.318 42.0947 240.666 41.7386C241.015 41.3788 241.441 41.1098 241.945 40.9318C242.448 40.75 243.005 40.6591 243.615 40.6591C244.036 40.6591 244.454 40.7083 244.871 40.8068C245.287 40.9053 245.668 41.0682 246.013 41.2955C246.357 41.5189 246.634 41.8239 246.842 42.2102C247.054 42.5966 247.161 43.0795 247.161 43.6591V49.5H245.183V48.3011H245.115C244.99 48.5436 244.814 48.7708 244.587 48.983C244.363 49.1913 244.081 49.3598 243.74 49.4886C243.403 49.6136 243.007 49.6761 242.553 49.6761ZM243.087 48.1648C243.5 48.1648 243.857 48.0833 244.161 47.9205C244.464 47.7538 244.696 47.5341 244.859 47.2614C245.026 46.9886 245.109 46.6913 245.109 46.3693V45.3409C245.045 45.3939 244.935 45.4432 244.78 45.4886C244.628 45.5341 244.458 45.5739 244.268 45.608C244.079 45.642 243.892 45.6723 243.706 45.6989C243.52 45.7254 243.359 45.7481 243.223 45.767C242.916 45.8087 242.642 45.8769 242.399 45.9716C242.157 46.0663 241.965 46.1989 241.825 46.3693C241.685 46.536 241.615 46.7519 241.615 47.017C241.615 47.3958 241.753 47.6818 242.03 47.875C242.306 48.0682 242.659 48.1648 243.087 48.1648ZM253.587 40.7727V42.3636H248.57V40.7727H253.587ZM249.808 38.6818H251.865V46.875C251.865 47.1515 251.907 47.3636 251.99 47.5114C252.077 47.6553 252.191 47.7538 252.331 47.8068C252.471 47.8598 252.626 47.8864 252.797 47.8864C252.926 47.8864 253.043 47.8769 253.149 47.858C253.259 47.839 253.342 47.822 253.399 47.8068L253.746 49.4148C253.636 49.4527 253.479 49.4943 253.274 49.5398C253.073 49.5852 252.827 49.6117 252.536 49.6193C252.02 49.6345 251.556 49.5568 251.143 49.3864C250.731 49.2121 250.403 48.9432 250.161 48.5795C249.922 48.2159 249.804 47.7614 249.808 47.2159V38.6818ZM255.307 49.5V40.7727H257.364V49.5H255.307ZM256.341 39.5341C256.015 39.5341 255.735 39.4261 255.5 39.2102C255.265 38.9905 255.148 38.7273 255.148 38.4205C255.148 38.1098 255.265 37.8466 255.5 37.6307C255.735 37.411 256.015 37.3011 256.341 37.3011C256.67 37.3011 256.951 37.411 257.182 37.6307C257.417 37.8466 257.534 38.1098 257.534 38.4205C257.534 38.7273 257.417 38.9905 257.182 39.2102C256.951 39.4261 256.67 39.5341 256.341 39.5341ZM263.286 49.6705C262.433 49.6705 261.695 49.483 261.07 49.108C260.445 48.733 259.96 48.2083 259.615 47.5341C259.274 46.8598 259.104 46.072 259.104 45.1705C259.104 44.2689 259.274 43.4792 259.615 42.8011C259.96 42.1231 260.445 41.5966 261.07 41.2216C261.695 40.8466 262.433 40.6591 263.286 40.6591C264.138 40.6591 264.876 40.8466 265.501 41.2216C266.126 41.5966 266.609 42.1231 266.95 42.8011C267.295 43.4792 267.467 44.2689 267.467 45.1705C267.467 46.072 267.295 46.8598 266.95 47.5341C266.609 48.2083 266.126 48.733 265.501 49.108C264.876 49.483 264.138 49.6705 263.286 49.6705ZM263.297 48.0227C263.759 48.0227 264.145 47.8958 264.456 47.642C264.767 47.3845 264.998 47.0398 265.149 46.608C265.304 46.1761 265.382 45.6951 265.382 45.1648C265.382 44.6307 265.304 44.1477 265.149 43.7159C264.998 43.2803 264.767 42.9337 264.456 42.6761C264.145 42.4186 263.759 42.2898 263.297 42.2898C262.823 42.2898 262.429 42.4186 262.115 42.6761C261.804 42.9337 261.571 43.2803 261.416 43.7159C261.265 44.1477 261.189 44.6307 261.189 45.1648C261.189 45.6951 261.265 46.1761 261.416 46.608C261.571 47.0398 261.804 47.3845 262.115 47.642C262.429 47.8958 262.823 48.0227 263.297 48.0227ZM271.27 44.3864V49.5H269.213V40.7727H271.179V42.2557H271.281C271.482 41.767 271.802 41.3788 272.241 41.0909C272.685 40.803 273.232 40.6591 273.884 40.6591C274.486 40.6591 275.01 40.7879 275.457 41.0455C275.908 41.303 276.257 41.6761 276.503 42.1648C276.753 42.6534 276.876 43.2462 276.872 43.9432V49.5H274.815V44.2614C274.815 43.678 274.664 43.2216 274.361 42.892C274.062 42.5625 273.647 42.3977 273.116 42.3977C272.757 42.3977 272.437 42.4773 272.156 42.6364C271.88 42.7917 271.662 43.017 271.503 43.3125C271.348 43.608 271.27 43.9659 271.27 44.3864ZM285.861 43.0795L283.986 43.2841C283.933 43.0947 283.84 42.9167 283.707 42.75C283.579 42.5833 283.404 42.4489 283.185 42.3466C282.965 42.2443 282.696 42.1932 282.378 42.1932C281.95 42.1932 281.59 42.286 281.298 42.4716C281.01 42.6572 280.868 42.8977 280.872 43.1932C280.868 43.447 280.961 43.6534 281.151 43.8125C281.344 43.9716 281.662 44.1023 282.105 44.2045L283.594 44.5227C284.42 44.7008 285.033 44.983 285.435 45.3693C285.84 45.7557 286.045 46.2614 286.048 46.8864C286.045 47.4356 285.884 47.9205 285.565 48.3409C285.251 48.7576 284.813 49.0833 284.253 49.3182C283.692 49.553 283.048 49.6705 282.321 49.6705C281.253 49.6705 280.393 49.447 279.741 49C279.09 48.5492 278.702 47.9223 278.577 47.1193L280.582 46.9261C280.673 47.3201 280.866 47.6174 281.162 47.8182C281.457 48.0189 281.842 48.1193 282.315 48.1193C282.804 48.1193 283.196 48.0189 283.491 47.8182C283.791 47.6174 283.94 47.3693 283.94 47.0739C283.94 46.8239 283.844 46.6174 283.651 46.4545C283.461 46.2917 283.166 46.1667 282.764 46.0795L281.276 45.767C280.438 45.5928 279.819 45.2992 279.418 44.8864C279.016 44.4697 278.817 43.9432 278.821 43.3068C278.817 42.7689 278.963 42.303 279.259 41.9091C279.558 41.5114 279.973 41.2045 280.503 40.9886C281.037 40.7689 281.652 40.6591 282.349 40.6591C283.372 40.6591 284.177 40.8769 284.764 41.3125C285.355 41.7481 285.721 42.3371 285.861 43.0795Z" fill="#1D2939"/>
<path d="M700.167 44.0692C700.036 44.0692 699.934 44.0329 699.861 43.9605C699.795 43.8814 699.762 43.7727 699.762 43.6344V40.3931L699.94 40.9564L697.46 37.5372C697.401 37.4516 697.371 37.366 697.371 37.2803C697.377 37.1881 697.414 37.1123 697.48 37.053C697.545 36.9937 697.631 36.9641 697.737 36.9641C697.829 36.9641 697.911 36.9872 697.984 37.0333C698.056 37.0728 698.122 37.1387 698.181 37.2309L700.286 40.1362H700.079L702.183 37.2309C702.256 37.1321 702.325 37.0629 702.391 37.0234C702.457 36.9839 702.536 36.9641 702.628 36.9641C702.733 36.9641 702.816 36.9937 702.875 37.053C702.934 37.1057 702.964 37.1782 702.964 37.2704C702.971 37.3561 702.941 37.4483 702.875 37.5471L700.405 40.9564L700.573 40.3931V43.6344C700.573 43.9242 700.438 44.0692 700.167 44.0692ZM705.243 44.0889C704.736 44.0889 704.297 43.9901 703.929 43.7925C703.566 43.5883 703.283 43.3017 703.079 42.9328C702.881 42.5638 702.782 42.1224 702.782 41.6086C702.782 41.1079 702.881 40.6731 703.079 40.3042C703.276 39.9287 703.546 39.6355 703.889 39.4247C704.238 39.2139 704.64 39.1085 705.095 39.1085C705.417 39.1085 705.707 39.1645 705.964 39.2765C706.221 39.3819 706.439 39.5367 706.616 39.7409C706.801 39.9451 706.939 40.1922 707.031 40.482C707.13 40.7719 707.18 41.098 707.18 41.4604C707.18 41.5658 707.15 41.6448 707.091 41.6975C707.031 41.7436 706.946 41.7667 706.834 41.7667H703.395V41.243H706.646L706.488 41.3714C706.488 41.0157 706.435 40.7159 706.33 40.4722C706.224 40.2218 706.07 40.0308 705.865 39.899C705.668 39.7673 705.417 39.7014 705.114 39.7014C704.778 39.7014 704.492 39.7804 704.255 39.9385C704.024 40.0901 703.849 40.3042 703.731 40.5809C703.612 40.851 703.553 41.1672 703.553 41.5295V41.5888C703.553 42.1949 703.698 42.6561 703.988 42.9723C704.284 43.2885 704.703 43.4466 705.243 43.4466C705.467 43.4466 705.688 43.417 705.905 43.3577C706.129 43.2984 706.346 43.1996 706.557 43.0612C706.649 43.0019 706.732 42.9756 706.804 42.9822C706.883 42.9822 706.946 43.0052 706.992 43.0513C707.038 43.0909 707.068 43.1436 707.081 43.2094C707.101 43.2687 707.094 43.3346 707.061 43.4071C707.035 43.4796 706.979 43.5421 706.893 43.5948C706.676 43.753 706.419 43.8748 706.122 43.9605C705.826 44.0461 705.533 44.0889 705.243 44.0889ZM709.85 44.0889C709.521 44.0889 709.224 44.0264 708.961 43.9012C708.704 43.7694 708.499 43.5915 708.348 43.3676C708.196 43.1436 708.121 42.8932 708.121 42.6165C708.121 42.2608 708.21 41.9808 708.387 41.7766C708.572 41.5723 708.872 41.4274 709.287 41.3418C709.708 41.2561 710.282 41.2133 711.006 41.2133H711.451V41.737H711.016C710.482 41.737 710.061 41.7634 709.751 41.8161C709.448 41.8622 709.234 41.9446 709.109 42.0631C708.99 42.1817 708.931 42.3497 708.931 42.5671C708.931 42.8372 709.023 43.0579 709.208 43.2292C709.399 43.4005 709.656 43.4861 709.978 43.4861C710.242 43.4861 710.473 43.4236 710.67 43.2984C710.874 43.1732 711.033 43.0019 711.145 42.7845C711.263 42.5671 711.322 42.3168 711.322 42.0335V40.907C711.322 40.4985 711.24 40.2054 711.075 40.0275C710.911 39.843 710.641 39.7508 710.265 39.7508C710.034 39.7508 709.804 39.7804 709.573 39.8397C709.343 39.899 709.099 39.9945 708.842 40.1263C708.75 40.1724 708.671 40.1889 708.605 40.1757C708.539 40.1559 708.486 40.1197 708.447 40.067C708.407 40.0143 708.384 39.955 708.378 39.8891C708.371 39.8167 708.384 39.7475 708.417 39.6816C708.457 39.6157 708.516 39.563 708.595 39.5235C708.885 39.3786 709.171 39.2732 709.455 39.2073C709.738 39.1414 710.008 39.1085 710.265 39.1085C710.68 39.1085 711.023 39.1776 711.293 39.316C711.563 39.4477 711.764 39.652 711.896 39.9287C712.027 40.1988 712.093 40.5479 712.093 40.9761V43.6541C712.093 43.7859 712.06 43.888 711.994 43.9605C711.935 44.0329 711.846 44.0692 711.728 44.0692C711.602 44.0692 711.507 44.0329 711.441 43.9605C711.375 43.888 711.342 43.7859 711.342 43.6541V42.8833H711.431C711.378 43.1337 711.276 43.3478 711.125 43.5257C710.98 43.7035 710.799 43.8419 710.581 43.9407C710.364 44.0395 710.12 44.0889 709.85 44.0889ZM713.983 44.0692C713.852 44.0692 713.749 44.0329 713.677 43.9605C713.611 43.888 713.578 43.7859 713.578 43.6541V39.5334C713.578 39.4016 713.611 39.3028 713.677 39.2369C713.743 39.1645 713.838 39.1282 713.964 39.1282C714.089 39.1282 714.184 39.1645 714.25 39.2369C714.323 39.3028 714.359 39.4016 714.359 39.5334V40.3338H714.26C714.365 39.9451 714.566 39.6454 714.863 39.4346C715.159 39.2238 715.525 39.1118 715.96 39.0986C716.059 39.092 716.138 39.1151 716.197 39.1678C716.256 39.2139 716.289 39.2962 716.296 39.4148C716.302 39.5268 716.276 39.6157 716.217 39.6816C716.157 39.7475 716.065 39.787 715.94 39.8002L715.782 39.82C715.334 39.8595 714.988 40.0044 714.744 40.2548C714.507 40.4985 714.389 40.8345 714.389 41.2627V43.6541C714.389 43.7859 714.352 43.888 714.28 43.9605C714.214 44.0329 714.115 44.0692 713.983 44.0692Z" fill="#28263B"/>
<path d="M747.884 39.314L750.848 42.2785L753.813 39.314" stroke="#1A1926" stroke-width="0.988189" stroke-linecap="round" stroke-linejoin="round"/>
<rect x="688.329" y="25.3294" width="77.3412" height="30.3412" rx="8.8937" stroke="#EBEEF2" stroke-width="0.658793"/>
</svg>
