<svg width="653" height="16" viewBox="0 0 653 16" fill="none" xmlns="http://www.w3.org/2000/svg">
<path d="M296.135 12.084C295.983 12.084 295.863 12.04 295.775 11.952C295.687 11.856 295.643 11.728 295.643 11.568V4.392H292.943C292.799 4.392 292.687 4.352 292.607 4.272C292.527 4.192 292.487 4.088 292.487 3.96C292.487 3.824 292.527 3.72 292.607 3.648C292.687 3.576 292.799 3.54 292.943 3.54H299.339C299.483 3.54 299.595 3.576 299.675 3.648C299.755 3.72 299.795 3.824 299.795 3.96C299.795 4.096 299.755 4.204 299.675 4.284C299.595 4.356 299.483 4.392 299.339 4.392H296.639V11.568C296.639 11.728 296.595 11.856 296.507 11.952C296.427 12.04 296.303 12.084 296.135 12.084ZM302.163 12.108C301.595 12.108 301.103 11.984 300.687 11.736C300.271 11.488 299.947 11.14 299.715 10.692C299.491 10.236 299.379 9.7 299.379 9.084C299.379 8.62 299.443 8.204 299.571 7.836C299.699 7.46 299.887 7.14 300.135 6.876C300.383 6.612 300.675 6.412 301.011 6.276C301.355 6.132 301.739 6.06 302.163 6.06C302.731 6.06 303.223 6.184 303.639 6.432C304.055 6.68 304.375 7.032 304.599 7.488C304.831 7.936 304.947 8.468 304.947 9.084C304.947 9.548 304.883 9.964 304.755 10.332C304.627 10.7 304.439 11.02 304.191 11.292C303.943 11.556 303.647 11.76 303.303 11.904C302.967 12.04 302.587 12.108 302.163 12.108ZM302.163 11.328C302.523 11.328 302.839 11.24 303.111 11.064C303.383 10.888 303.591 10.632 303.735 10.296C303.887 9.96 303.963 9.556 303.963 9.084C303.963 8.356 303.799 7.8 303.471 7.416C303.151 7.032 302.715 6.84 302.163 6.84C301.795 6.84 301.475 6.928 301.203 7.104C300.939 7.272 300.731 7.524 300.579 7.86C300.435 8.188 300.363 8.596 300.363 9.084C300.363 9.804 300.527 10.36 300.855 10.752C301.183 11.136 301.619 11.328 302.163 11.328ZM308.627 12.108C308.107 12.108 307.651 11.984 307.259 11.736C306.875 11.488 306.575 11.14 306.359 10.692C306.151 10.236 306.047 9.7 306.047 9.084C306.047 8.46 306.151 7.924 306.359 7.476C306.575 7.02 306.875 6.672 307.259 6.432C307.651 6.184 308.107 6.06 308.627 6.06C309.155 6.06 309.607 6.192 309.983 6.456C310.359 6.72 310.611 7.076 310.739 7.524H310.607V3.948C310.607 3.788 310.647 3.668 310.727 3.588C310.815 3.5 310.939 3.456 311.099 3.456C311.251 3.456 311.367 3.5 311.447 3.588C311.535 3.668 311.579 3.788 311.579 3.948V11.58C311.579 11.74 311.539 11.864 311.459 11.952C311.379 12.04 311.259 12.084 311.099 12.084C310.947 12.084 310.827 12.04 310.739 11.952C310.659 11.864 310.619 11.74 310.619 11.58V10.44L310.751 10.608C310.623 11.064 310.367 11.428 309.983 11.7C309.607 11.972 309.155 12.108 308.627 12.108ZM308.831 11.328C309.191 11.328 309.507 11.24 309.779 11.064C310.051 10.888 310.259 10.632 310.403 10.296C310.555 9.96 310.631 9.556 310.631 9.084C310.631 8.356 310.467 7.8 310.139 7.416C309.819 7.032 309.383 6.84 308.831 6.84C308.463 6.84 308.143 6.928 307.871 7.104C307.607 7.272 307.399 7.524 307.247 7.86C307.103 8.188 307.031 8.596 307.031 9.084C307.031 9.804 307.195 10.36 307.523 10.752C307.851 11.136 308.287 11.328 308.831 11.328ZM315.239 12.108C314.839 12.108 314.479 12.032 314.159 11.88C313.847 11.72 313.599 11.504 313.415 11.232C313.231 10.96 313.139 10.656 313.139 10.32C313.139 9.888 313.247 9.548 313.463 9.3C313.687 9.052 314.051 8.876 314.555 8.772C315.067 8.668 315.763 8.616 316.643 8.616H317.183V9.252H316.655C316.007 9.252 315.495 9.284 315.119 9.348C314.751 9.404 314.491 9.504 314.339 9.648C314.195 9.792 314.123 9.996 314.123 10.26C314.123 10.588 314.235 10.856 314.459 11.064C314.691 11.272 315.003 11.376 315.395 11.376C315.715 11.376 315.995 11.3 316.235 11.148C316.483 10.996 316.675 10.788 316.811 10.524C316.955 10.26 317.027 9.956 317.027 9.612V8.244C317.027 7.748 316.927 7.392 316.727 7.176C316.527 6.952 316.199 6.84 315.743 6.84C315.463 6.84 315.183 6.876 314.903 6.948C314.623 7.02 314.327 7.136 314.015 7.296C313.903 7.352 313.807 7.372 313.727 7.356C313.647 7.332 313.583 7.288 313.535 7.224C313.487 7.16 313.459 7.088 313.451 7.008C313.443 6.92 313.459 6.836 313.499 6.756C313.547 6.676 313.619 6.612 313.715 6.564C314.067 6.388 314.415 6.26 314.759 6.18C315.103 6.1 315.431 6.06 315.743 6.06C316.247 6.06 316.663 6.144 316.991 6.312C317.319 6.472 317.563 6.72 317.723 7.056C317.883 7.384 317.963 7.808 317.963 8.328V11.58C317.963 11.74 317.923 11.864 317.843 11.952C317.771 12.04 317.663 12.084 317.519 12.084C317.367 12.084 317.251 12.04 317.171 11.952C317.091 11.864 317.051 11.74 317.051 11.58V10.644H317.159C317.095 10.948 316.971 11.208 316.787 11.424C316.611 11.64 316.391 11.808 316.127 11.928C315.863 12.048 315.567 12.108 315.239 12.108ZM321.004 14.244C320.884 14.244 320.788 14.212 320.716 14.148C320.644 14.084 320.6 13.996 320.584 13.884C320.576 13.78 320.596 13.672 320.644 13.56L321.472 11.7V12.12L319.168 6.768C319.12 6.648 319.104 6.536 319.12 6.432C319.136 6.328 319.184 6.244 319.264 6.18C319.344 6.116 319.456 6.084 319.6 6.084C319.728 6.084 319.828 6.112 319.9 6.168C319.972 6.224 320.036 6.324 320.092 6.468L322.06 11.292H321.736L323.728 6.468C323.792 6.324 323.86 6.224 323.932 6.168C324.004 6.112 324.108 6.084 324.244 6.084C324.372 6.084 324.468 6.116 324.532 6.18C324.604 6.244 324.644 6.328 324.652 6.432C324.668 6.528 324.652 6.636 324.604 6.756L321.532 13.86C321.468 14.004 321.396 14.104 321.316 14.16C321.244 14.216 321.14 14.244 321.004 14.244ZM325.862 13.14C325.782 13.244 325.698 13.304 325.61 13.32C325.522 13.336 325.446 13.32 325.382 13.272C325.318 13.224 325.282 13.156 325.274 13.068C325.274 12.98 325.314 12.884 325.394 12.78C325.522 12.612 325.61 12.44 325.658 12.264C325.706 12.096 325.73 11.94 325.73 11.796L325.778 12.048C325.57 12.048 325.402 11.988 325.274 11.868C325.154 11.74 325.094 11.58 325.094 11.388C325.094 11.196 325.15 11.04 325.262 10.92C325.382 10.792 325.538 10.728 325.73 10.728C325.938 10.728 326.102 10.8 326.222 10.944C326.342 11.08 326.402 11.28 326.402 11.544C326.402 11.712 326.386 11.884 326.354 12.06C326.322 12.244 326.266 12.428 326.186 12.612C326.106 12.796 325.998 12.972 325.862 13.14ZM332.058 12C331.914 12 331.802 11.964 331.722 11.892C331.642 11.812 331.602 11.704 331.602 11.568C331.602 11.432 331.642 11.332 331.722 11.268C331.802 11.196 331.914 11.16 332.058 11.16H333.618V4.356H334.134L332.394 5.508C332.29 5.564 332.19 5.588 332.094 5.58C332.006 5.572 331.93 5.54 331.866 5.484C331.81 5.42 331.77 5.348 331.746 5.268C331.722 5.18 331.726 5.092 331.758 5.004C331.79 4.908 331.858 4.828 331.962 4.764L333.618 3.672C333.722 3.608 333.822 3.556 333.918 3.516C334.014 3.476 334.11 3.456 334.206 3.456C334.318 3.456 334.41 3.492 334.482 3.564C334.562 3.628 334.602 3.732 334.602 3.876V11.16H336.042C336.186 11.16 336.298 11.196 336.378 11.268C336.458 11.332 336.498 11.432 336.498 11.568C336.498 11.712 336.458 11.82 336.378 11.892C336.298 11.964 336.186 12 336.042 12H332.058ZM340.994 12.108C340.026 12.108 339.29 11.736 338.786 10.992C338.282 10.248 338.03 9.172 338.03 7.764C338.03 6.82 338.142 6.028 338.366 5.388C338.59 4.74 338.922 4.252 339.362 3.924C339.81 3.596 340.354 3.432 340.994 3.432C341.97 3.432 342.706 3.8 343.202 4.536C343.706 5.264 343.958 6.336 343.958 7.752C343.958 8.696 343.846 9.492 343.622 10.14C343.398 10.788 343.066 11.28 342.626 11.616C342.186 11.944 341.642 12.108 340.994 12.108ZM340.994 11.256C341.666 11.256 342.162 10.972 342.482 10.404C342.81 9.828 342.974 8.944 342.974 7.752C342.974 6.552 342.81 5.676 342.482 5.124C342.162 4.564 341.666 4.284 340.994 4.284C340.33 4.284 339.834 4.564 339.506 5.124C339.178 5.684 339.014 6.56 339.014 7.752C339.014 8.944 339.178 9.828 339.506 10.404C339.834 10.972 340.33 11.256 340.994 11.256ZM348.019 12.072C347.867 12.08 347.751 12.04 347.671 11.952C347.583 11.864 347.539 11.756 347.539 11.628C347.539 11.532 347.571 11.444 347.635 11.364C347.691 11.284 347.783 11.24 347.911 11.232L348.283 11.208C348.691 11.176 349.003 11.036 349.219 10.788C349.435 10.532 349.543 10.184 349.543 9.744V3.96C349.543 3.792 349.583 3.668 349.663 3.588C349.751 3.5 349.875 3.456 350.035 3.456C350.195 3.456 350.315 3.5 350.395 3.588C350.483 3.668 350.527 3.792 350.527 3.96V9.756C350.527 10.212 350.447 10.608 350.287 10.944C350.127 11.272 349.887 11.528 349.567 11.712C349.255 11.896 348.871 12.004 348.415 12.036L348.019 12.072ZM354.549 12.108C354.077 12.108 353.685 12.024 353.373 11.856C353.069 11.68 352.837 11.42 352.677 11.076C352.525 10.732 352.449 10.304 352.449 9.792V6.576C352.449 6.408 352.489 6.284 352.569 6.204C352.657 6.124 352.777 6.084 352.929 6.084C353.089 6.084 353.209 6.124 353.289 6.204C353.377 6.284 353.421 6.408 353.421 6.576V9.78C353.421 10.292 353.525 10.676 353.733 10.932C353.949 11.18 354.285 11.304 354.741 11.304C355.237 11.304 355.641 11.136 355.953 10.8C356.265 10.464 356.421 10.024 356.421 9.48V6.576C356.421 6.408 356.461 6.284 356.541 6.204C356.629 6.124 356.753 6.084 356.913 6.084C357.065 6.084 357.181 6.124 357.261 6.204C357.349 6.284 357.393 6.408 357.393 6.576V11.58C357.393 11.916 357.237 12.084 356.925 12.084C356.773 12.084 356.653 12.04 356.565 11.952C356.485 11.864 356.445 11.74 356.445 11.58V10.488L356.601 10.656C356.441 11.128 356.177 11.488 355.809 11.736C355.449 11.984 355.029 12.108 354.549 12.108ZM359.692 12.084C359.532 12.084 359.412 12.04 359.332 11.952C359.252 11.864 359.212 11.74 359.212 11.58V6.576C359.212 6.416 359.252 6.296 359.332 6.216C359.412 6.128 359.528 6.084 359.68 6.084C359.832 6.084 359.948 6.128 360.028 6.216C360.116 6.296 360.16 6.416 360.16 6.576V7.608L360.028 7.464C360.196 7 360.468 6.652 360.844 6.42C361.228 6.18 361.668 6.06 362.164 6.06C362.628 6.06 363.012 6.144 363.316 6.312C363.628 6.48 363.86 6.736 364.012 7.08C364.164 7.416 364.24 7.844 364.24 8.364V11.58C364.24 11.74 364.196 11.864 364.108 11.952C364.028 12.04 363.912 12.084 363.76 12.084C363.6 12.084 363.476 12.04 363.388 11.952C363.308 11.864 363.268 11.74 363.268 11.58V8.424C363.268 7.88 363.16 7.484 362.944 7.236C362.736 6.98 362.4 6.852 361.936 6.852C361.4 6.852 360.972 7.02 360.652 7.356C360.34 7.684 360.184 8.124 360.184 8.676V11.58C360.184 11.916 360.02 12.084 359.692 12.084ZM368.66 12.108C368.044 12.108 367.512 11.988 367.064 11.748C366.624 11.5 366.28 11.152 366.032 10.704C365.792 10.256 365.672 9.72 365.672 9.096C365.672 8.488 365.792 7.96 366.032 7.512C366.272 7.056 366.6 6.7 367.016 6.444C367.44 6.188 367.928 6.06 368.48 6.06C368.872 6.06 369.224 6.128 369.536 6.264C369.848 6.392 370.112 6.58 370.328 6.828C370.552 7.076 370.72 7.376 370.832 7.728C370.952 8.08 371.012 8.476 371.012 8.916C371.012 9.044 370.976 9.14 370.904 9.204C370.832 9.26 370.728 9.288 370.592 9.288H366.416V8.652H370.364L370.172 8.808C370.172 8.376 370.108 8.012 369.98 7.716C369.852 7.412 369.664 7.18 369.416 7.02C369.176 6.86 368.872 6.78 368.504 6.78C368.096 6.78 367.748 6.876 367.46 7.068C367.18 7.252 366.968 7.512 366.824 7.848C366.68 8.176 366.608 8.56 366.608 9V9.072C366.608 9.808 366.784 10.368 367.136 10.752C367.496 11.136 368.004 11.328 368.66 11.328C368.932 11.328 369.2 11.292 369.464 11.22C369.736 11.148 370 11.028 370.256 10.86C370.368 10.788 370.468 10.756 370.556 10.764C370.652 10.764 370.728 10.792 370.784 10.848C370.84 10.896 370.876 10.96 370.892 11.04C370.916 11.112 370.908 11.192 370.868 11.28C370.836 11.368 370.768 11.444 370.664 11.508C370.4 11.7 370.088 11.848 369.728 11.952C369.368 12.056 369.012 12.108 368.66 12.108Z" fill="#637085"/>
<rect x="0.250977" y="8.25" width="262.5" height="0.5" stroke="#EBEEF2" stroke-width="0.5"/>
<rect x="391.251" y="8.25" width="261.5" height="0.5" stroke="#EBEEF2" stroke-width="0.5"/>
</svg>
