<svg width="30" height="21" viewBox="0 0 30 21" fill="none" xmlns="http://www.w3.org/2000/svg">
<g clip-path="url(#clip0_825_16331)">
<path d="M0 0.0195312H30V20.0197H0V0.0195312Z" fill="#F0F0F0"/>
<path d="M16.875 0.0195312H13.125V8.14449H0V11.8945H13.125V20.0195H16.875V11.8945H30V8.14449H16.875V0.0195312Z" fill="#D80027"/>
<path d="M23.0732 13.4971L29.9999 17.3453V13.4971H23.0732ZM18.2607 13.4971L29.9999 20.0188V18.1746L21.5804 13.4971H18.2607ZM26.873 20.0188L18.2607 15.2338V20.0188H26.873Z" fill="#0052B4"/>
<path d="M18.2607 13.4971L29.9999 20.0188V18.1746L21.5804 13.4971H18.2607Z" fill="#F0F0F0"/>
<path d="M18.2607 13.4971L29.9999 20.0188V18.1746L21.5804 13.4971H18.2607Z" fill="#D80027"/>
<path d="M5.29342 13.4971L0 16.4379V13.4971H5.29342ZM11.7391 14.3264V20.0188H1.49361L11.7391 14.3264Z" fill="#0052B4"/>
<path d="M8.41951 13.4971L0 18.1746V20.0188L11.7391 13.4971H8.41951Z" fill="#D80027"/>
<path d="M6.92666 6.54125L0 2.69305V6.54125H6.92666ZM11.7391 6.54125L0 0.0195312V1.86371L8.41951 6.54125H11.7391ZM3.12691 0.0195312L11.7391 4.80453V0.0195312H3.12691Z" fill="#0052B4"/>
<path d="M11.7391 6.54125L0 0.0195312V1.86371L8.41951 6.54125H11.7391Z" fill="#F0F0F0"/>
<path d="M11.7391 6.54125L0 0.0195312V1.86371L8.41951 6.54125H11.7391Z" fill="#D80027"/>
<path d="M24.7065 6.54131L29.9999 3.60049V6.54131H24.7065ZM18.2607 5.71197V0.0195312H28.5063L18.2607 5.71197Z" fill="#0052B4"/>
<path d="M21.5804 6.54125L29.9999 1.86371V0.0195312L18.2607 6.54125H21.5804Z" fill="#D80027"/>
</g>
<defs>
<clipPath id="clip0_825_16331">
<rect width="30" height="20.0391" fill="white"/>
</clipPath>
</defs>
</svg>
