<svg width="40" height="40" viewBox="0 0 40 40" fill="none" xmlns="http://www.w3.org/2000/svg">
<mask id="mask0_2548_7790" style="mask-type:alpha" maskUnits="userSpaceOnUse" x="0" y="0" width="40" height="40">
<circle cx="20" cy="20" r="20" fill="#C4C4C4"/>
</mask>
<g mask="url(#mask0_2548_7790)">
<path d="M30.257 31.1897L24.7679 29.5752H15.2332L9.7441 31.1897C8.41419 31.5809 7.50098 32.8014 7.50098 34.1876V38.7503C7.50098 39.6132 8.20052 40.3127 9.06341 40.3127H30.9377C31.8006 40.3127 32.5001 39.6132 32.5001 38.7503V34.1876C32.5001 32.8014 31.5869 31.5808 30.257 31.1897Z" fill="url(#paint0_linear_2548_7790)"/>
<path d="M22.6042 40.3128H17.3961L16.3545 29.8965H23.6459L22.6042 40.3128Z" fill="url(#paint1_linear_2548_7790)"/>
<path d="M16.3545 29.8965L16.5104 31.4555C17.3687 32.4144 18.6121 33.0214 20.0002 33.0214C21.3884 33.0214 22.6318 32.4144 23.4901 31.4555L23.646 29.8965H16.3545Z" fill="url(#paint2_linear_2548_7790)"/>
<path d="M20.0002 31.9789C17.9867 31.9789 16.3545 30.3467 16.3545 28.3332V24.6875H23.6459V28.3332C23.6459 30.3467 22.0137 31.9789 20.0002 31.9789Z" fill="url(#paint3_linear_2548_7790)"/>
<path d="M16.3545 26.8911C17.4487 27.4755 18.6894 27.8124 20.0002 27.8124C21.3109 27.8124 22.5517 27.4755 23.6459 26.8911V24.6875H16.3545V26.8911Z" fill="url(#paint4_linear_2548_7790)"/>
<path d="M27.0311 17.9176H26.7707V12.7095H13.2294V17.9177H12.969C12.2529 17.9177 11.667 18.5036 11.667 19.2197C11.667 19.9358 12.2529 20.5217 12.969 20.5217H13.2557C13.5225 24.0169 16.4365 26.7715 20 26.7715C23.5636 26.7715 26.4776 24.0169 26.7444 20.5217H27.0311C27.7472 20.5217 28.3331 19.9358 28.3331 19.2197C28.3331 18.5036 27.7472 17.9176 27.0311 17.9176Z" fill="url(#paint5_linear_2548_7790)"/>
<path d="M16.8753 19.5253C16.5874 19.5253 16.3545 19.2921 16.3545 19.0045V18.4837C16.3545 18.1961 16.5875 17.9629 16.8753 17.9629C17.1631 17.9629 17.3961 18.1961 17.3961 18.4837V19.0045C17.3961 19.2922 17.1631 19.5253 16.8753 19.5253Z" fill="url(#paint6_radial_2548_7790)"/>
<path d="M23.1253 19.5253C22.8374 19.5253 22.6045 19.2921 22.6045 19.0045V18.4837C22.6045 18.1961 22.8375 17.9629 23.1253 17.9629C23.4132 17.9629 23.6461 18.1961 23.6461 18.4837V19.0045C23.6461 19.2922 23.4132 19.5253 23.1253 19.5253Z" fill="url(#paint7_radial_2548_7790)"/>
<path d="M17.3964 17.3956H16.3548C16.0669 17.3956 15.834 17.1624 15.834 16.8748C15.834 16.5872 16.067 16.354 16.3548 16.354H17.3964C17.6843 16.354 17.9172 16.5872 17.9172 16.8748C17.9172 17.1624 17.6843 17.3956 17.3964 17.3956Z" fill="url(#paint8_linear_2548_7790)"/>
<path d="M23.6464 17.3956H22.6048C22.3169 17.3956 22.084 17.1624 22.084 16.8748C22.084 16.5872 22.317 16.354 22.6048 16.354H23.6464C23.9343 16.354 24.1672 16.5872 24.1672 16.8748C24.1672 17.1624 23.9343 17.3956 23.6464 17.3956Z" fill="url(#paint9_linear_2548_7790)"/>
<path d="M13.2294 12.7095V17.9177H13.0147C12.4218 17.9177 11.8679 18.2934 11.7143 18.8662C11.482 19.7323 12.1378 20.5218 12.969 20.5218H13.2557C13.5225 24.0169 16.4365 26.7716 20 26.7716C20.3563 26.7716 20.7037 26.7369 21.0449 26.6839C17.7999 26.183 15.3127 23.3863 15.3127 20.001V16.836C15.3127 15.6133 16.3453 14.618 17.5639 14.7184C17.905 14.7465 18.2632 14.7615 18.6395 14.7615C20.1497 14.7615 21.8359 14.5205 23.6515 14.0451C24.4448 13.8374 25.1271 13.354 25.5933 12.7095H13.2294Z" fill="url(#paint10_linear_2548_7790)"/>
<path d="M15.7691 10.6252L15.8342 12.7084C15.8342 12.7084 14.2718 14.2709 14.2718 16.3541V16.997C14.2718 17.5223 13.8806 17.9654 13.3593 18.0307L12.1885 18.177V13.7501C12.1885 12.0243 13.8161 10.5384 15.7691 10.6252Z" fill="url(#paint11_linear_2548_7790)"/>
<path d="M26.2398 32.4898L25.2082 31.4582L26.3122 29.9863C26.5509 29.6679 26.4431 29.2112 26.0872 29.0332L23.6457 27.8125L20 40.3121H23.1249L26.4348 33.6922C26.6353 33.2911 26.5568 32.8068 26.2398 32.4898Z" fill="url(#paint12_linear_2548_7790)"/>
<path d="M24.2321 9.0627L24.167 12.7084C24.167 12.7084 25.7294 14.2708 25.7294 16.3541V16.997C25.7294 17.5223 26.1206 17.9654 26.6419 18.0306L27.8127 18.177V12.1876C27.8127 10.4618 26.1852 8.97592 24.2321 9.0627Z" fill="url(#paint13_linear_2548_7790)"/>
<path d="M20.0003 23.1249C19.2186 23.1249 18.4978 22.8742 18.0721 22.4541C17.8672 22.2517 17.8651 21.9221 18.067 21.7177C18.27 21.5127 18.5996 21.5107 18.8035 21.7125C18.9769 21.8835 19.394 22.0833 20.0002 22.0833C20.6065 22.0833 21.0236 21.8835 21.197 21.7125C21.401 21.5106 21.7306 21.5127 21.9334 21.7177C22.1354 21.9221 22.1333 22.2517 21.9283 22.4541C21.5028 22.8742 20.782 23.1249 20.0003 23.1249Z" fill="#DEA672"/>
<path d="M13.7602 32.4898L14.7918 31.4582L13.6878 29.9863C13.4491 29.6679 13.5569 29.2112 13.9128 29.0332L16.3542 27.8125L19.9999 40.3121H16.875L13.5651 33.6922C13.3646 33.2911 13.4432 32.8068 13.7602 32.4898Z" fill="url(#paint14_linear_2548_7790)"/>
<path d="M21.0098 8.02197C16.6645 8.02197 15.8318 9.34292 12.4859 10.4086C12.2559 10.4819 12.1524 10.7482 12.2824 10.9515C13.0085 12.0872 15.7108 15.0474 23.3884 13.0373C24.2874 12.8019 24.9787 12.077 25.161 11.1657C25.3722 10.1099 24.7305 9.06423 23.7658 8.58618C22.9995 8.20651 21.9946 8.02197 21.0098 8.02197Z" fill="url(#paint15_linear_2548_7790)"/>
</g>
<defs>
<linearGradient id="paint0_linear_2548_7790" x1="20.0006" y1="29.5752" x2="20.0006" y2="40.3127" gradientUnits="userSpaceOnUse">
<stop stop-color="#6B2BF2"/>
<stop offset="1" stop-color="#BB9BFF"/>
</linearGradient>
<linearGradient id="paint1_linear_2548_7790" x1="19.9998" y1="31.6673" x2="20.0002" y2="40.3128" gradientUnits="userSpaceOnUse">
<stop stop-color="#8CD3FF"/>
<stop offset="1" stop-color="#CFECFF"/>
</linearGradient>
<linearGradient id="paint2_linear_2548_7790" x1="17.9165" y1="31.6673" x2="21.2498" y2="33.334" gradientUnits="userSpaceOnUse">
<stop stop-color="#73B6E6"/>
<stop offset="1" stop-color="#92CCF5"/>
</linearGradient>
<linearGradient id="paint3_linear_2548_7790" x1="17.9948" y1="26.0916" x2="22.9284" y2="30.4353" gradientUnits="userSpaceOnUse">
<stop stop-color="#E6AC82"/>
<stop offset="1" stop-color="#F2CBAF"/>
</linearGradient>
<linearGradient id="paint4_linear_2548_7790" x1="16.6665" y1="26.25" x2="21.2965" y2="30.3027" gradientUnits="userSpaceOnUse">
<stop stop-color="#E6A470"/>
<stop offset="1" stop-color="#E6A370" stop-opacity="0"/>
</linearGradient>
<linearGradient id="paint5_linear_2548_7790" x1="15.4163" y1="15.4174" x2="24.9997" y2="25.4174" gradientUnits="userSpaceOnUse">
<stop stop-color="#F3B68A"/>
<stop offset="1" stop-color="#FED5B8"/>
</linearGradient>
<radialGradient id="paint6_radial_2548_7790" cx="0" cy="0" r="1" gradientUnits="userSpaceOnUse" gradientTransform="translate(16.6679 18.4302) rotate(71.565) scale(1.31748 0.878321)">
<stop stop-color="#040404"/>
<stop offset="1" stop-color="#767676"/>
</radialGradient>
<radialGradient id="paint7_radial_2548_7790" cx="0" cy="0" r="1" gradientUnits="userSpaceOnUse" gradientTransform="translate(22.9179 18.4302) rotate(71.5651) scale(1.31748 0.87832)">
<stop stop-color="#040404"/>
<stop offset="1" stop-color="#767676"/>
</radialGradient>
<linearGradient id="paint8_linear_2548_7790" x1="16.2501" y1="16.2494" x2="16.8756" y2="17.3956" gradientUnits="userSpaceOnUse">
<stop stop-color="#70482B"/>
<stop offset="1" stop-color="#70482B" stop-opacity="0.49"/>
</linearGradient>
<linearGradient id="paint9_linear_2548_7790" x1="22.5001" y1="16.2494" x2="23.1256" y2="17.3956" gradientUnits="userSpaceOnUse">
<stop stop-color="#70482B"/>
<stop offset="1" stop-color="#70482B" stop-opacity="0.49"/>
</linearGradient>
<linearGradient id="paint10_linear_2548_7790" x1="13.7497" y1="12.9174" x2="18.6301" y2="26.7716" gradientUnits="userSpaceOnUse">
<stop stop-color="#EBA873"/>
<stop offset="1" stop-color="#EBA773" stop-opacity="0"/>
</linearGradient>
<linearGradient id="paint11_linear_2548_7790" x1="12.5004" y1="17.9163" x2="17.2663" y2="15.858" gradientUnits="userSpaceOnUse">
<stop stop-color="#99633C"/>
<stop offset="1" stop-color="#412A18"/>
</linearGradient>
<linearGradient id="paint12_linear_2548_7790" x1="23.2724" y1="27.8125" x2="23.2724" y2="40.3121" gradientUnits="userSpaceOnUse">
<stop stop-color="#864DFF"/>
<stop offset="1" stop-color="#D3BFFF"/>
</linearGradient>
<linearGradient id="paint13_linear_2548_7790" x1="27.9168" y1="18.333" x2="30.7719" y2="12.727" gradientUnits="userSpaceOnUse">
<stop stop-color="#99633C"/>
<stop offset="1" stop-color="#412A18"/>
</linearGradient>
<linearGradient id="paint14_linear_2548_7790" x1="16.7275" y1="27.8125" x2="16.7275" y2="40.3121" gradientUnits="userSpaceOnUse">
<stop stop-color="#864DFF"/>
<stop offset="1" stop-color="#D3BFFF"/>
</linearGradient>
<linearGradient id="paint15_linear_2548_7790" x1="12.917" y1="11.2505" x2="24.5836" y2="9.1672" gradientUnits="userSpaceOnUse">
<stop stop-color="#8A5936"/>
<stop offset="1" stop-color="#412A18"/>
</linearGradient>
</defs>
</svg>
