<svg width="91" height="90" viewBox="0 0 91 90" fill="none" xmlns="http://www.w3.org/2000/svg">
<rect x="0.5" width="90" height="90" rx="14.4" fill="#41B4D0"/>
<g clip-path="url(#clip0_482_17344)">
<path d="M52.9911 34.3883C52.9911 30.2572 49.6315 26.8976 45.5004 26.8976C41.3693 26.8976 38.0097 30.2572 38.0097 34.3883C38.0097 38.5195 41.3693 41.879 45.5004 41.879C49.6315 41.879 52.9911 38.5195 52.9911 34.3883ZM40.5066 34.3883C40.5066 31.6343 42.7463 29.3945 45.5004 29.3945C48.2545 29.3945 50.4942 31.6343 50.4942 34.3883C50.4942 37.1424 48.2545 39.3821 45.5004 39.3821C42.7463 39.3821 40.5066 37.1424 40.5066 34.3883ZM32.0334 57.0315V60.6058C32.0334 62.6707 33.7138 64.3511 35.7787 64.3511H55.2221C57.287 64.3511 58.9674 62.6707 58.9674 60.6058V57.0315C58.9674 49.6044 52.9262 43.5644 45.5004 43.5644C38.0746 43.5644 32.0334 49.6044 32.0334 57.0315ZM45.5004 46.0613C51.5504 46.0613 56.4705 50.9815 56.4705 57.0315V60.6058C56.4705 61.2937 55.9112 61.8542 55.2221 61.8542H35.7787C35.0896 61.8542 34.5303 61.2937 34.5303 60.6058V57.0315C34.5303 50.9815 39.4504 46.0613 45.5004 46.0613Z" fill="white"/>
</g>
<defs>
<clipPath id="clip0_482_17344">
<rect width="26.9977" height="38.7019" fill="white" transform="translate(32.0011 25.649)"/>
</clipPath>
</defs>
</svg>
