<svg width="22" height="22" viewBox="0 0 22 22" fill="none" xmlns="http://www.w3.org/2000/svg">
<path fillRule="evenodd" clipRule="evenodd" d="M2.2002 11.0134C2.2002 6.37766 5.905 2.2002 11.0178 2.2002C16.0162 2.2002 19.8002 6.29834 19.8002 10.987C19.8002 16.4247 15.365 19.8002 11.0002 19.8002C9.55699 19.8002 7.95627 19.4124 6.67147 18.6545C6.2218 18.3813 5.84339 18.1786 5.3594 18.3372L3.5818 18.866C3.133 19.007 2.7282 18.6545 2.8602 18.1786L3.4498 16.2044C3.5466 15.9312 3.529 15.6404 3.3882 15.4112C2.6314 14.0187 2.2002 12.494 2.2002 11.0134Z" fill="white"/>
<path opacity="0.25" d="M11.0178 2.2002C5.905 2.2002 2.2002 6.37766 2.2002 11.0134C2.2002 12.494 2.6314 14.0187 3.3882 15.4112C3.529 15.6404 3.5466 15.9312 3.4498 16.2044L2.8602 18.1786C2.7282 18.6545 3.133 19.007 3.5818 18.866L5.3594 18.3372C5.84339 18.1786 6.2218 18.3813 6.67147 18.6545C7.95627 19.4124 9.55699 19.8002 11.0002 19.8002C15.365 19.8002 19.8002 16.4247 19.8002 10.987C19.8002 6.29834 16.0162 2.2002 11.0178 2.2002Z" fill="#667085"/>
<path d="M8.52493 9.62514C9.28737 9.62514 9.89947 10.2382 9.89947 11.0017C9.89947 11.7546 9.28737 12.3676 8.52493 12.3783C7.77323 12.3783 7.15039 11.7546 7.15039 11.0017C7.15039 10.2382 7.76249 9.62514 8.52493 9.62514ZM13.4759 9.62514C14.2383 9.62514 14.8504 10.2382 14.8504 11.0017C14.8504 11.7546 14.2383 12.3783 13.4759 12.3783C12.7134 12.3676 12.1013 11.7546 12.1013 10.991C12.1013 10.2382 12.7241 9.61438 13.4759 9.62514Z" fill="#667085"/>
</svg>
