<svg width="22" height="22" viewBox="0 0 22 22" fill="none" xmlns="http://www.w3.org/2000/svg">
<path d="M8.88469 1.69238H2.96161C2.24238 1.69238 1.69238 2.24238 1.69238 2.96161V19.8847C1.69238 20.0962 1.90392 20.3078 2.11546 20.3078H3.80777C4.06161 20.3078 4.23084 20.1385 4.23084 19.8847V17.3462C4.23084 17.0924 4.40008 16.9232 4.65392 16.9232H7.19238C7.44623 16.9232 7.61546 17.0924 7.61546 17.3462V19.8847C7.61546 20.1385 7.78469 20.3078 8.03854 20.3078H9.30777C9.77315 20.3078 10.1539 19.927 10.1539 19.4616V2.96161C10.1539 2.24238 9.60392 1.69238 8.88469 1.69238ZM5.077 15.0193C5.077 15.1462 4.99238 15.2308 4.86546 15.2308H3.59623C3.46931 15.2308 3.38469 15.1462 3.38469 15.0193V12.9039C3.38469 12.777 3.46931 12.6924 3.59623 12.6924H4.86546C4.99238 12.6924 5.077 12.777 5.077 12.9039V15.0193ZM5.077 10.7885C5.077 10.9155 4.99238 11.0001 4.86546 11.0001H3.59623C3.46931 11.0001 3.38469 10.9155 3.38469 10.7885V8.67315C3.38469 8.54623 3.46931 8.46161 3.59623 8.46161H4.86546C4.99238 8.46161 5.077 8.54623 5.077 8.67315V10.7885ZM5.077 6.55777C5.077 6.68469 4.99238 6.76931 4.86546 6.76931H3.59623C3.46931 6.76931 3.38469 6.68469 3.38469 6.55777V4.44238C3.38469 4.31546 3.46931 4.23084 3.59623 4.23084H4.86546C4.99238 4.23084 5.077 4.31546 5.077 4.44238V6.55777ZM8.46161 15.0193C8.46161 15.1462 8.377 15.2308 8.25008 15.2308H6.98084C6.85392 15.2308 6.76931 15.1462 6.76931 15.0193V12.9039C6.76931 12.777 6.85392 12.6924 6.98084 12.6924H8.25008C8.377 12.6924 8.46161 12.777 8.46161 12.9039V15.0193ZM8.46161 10.7885C8.46161 10.9155 8.377 11.0001 8.25008 11.0001H6.98084C6.85392 11.0001 6.76931 10.9155 6.76931 10.7885V8.67315C6.76931 8.54623 6.85392 8.46161 6.98084 8.46161H8.25008C8.377 8.46161 8.46161 8.54623 8.46161 8.67315V10.7885ZM8.46161 6.55777C8.46161 6.68469 8.377 6.76931 8.25008 6.76931H6.98084C6.85392 6.76931 6.76931 6.68469 6.76931 6.55777V4.44238C6.76931 4.31546 6.85392 4.23084 6.98084 4.23084H8.25008C8.377 4.23084 8.46161 4.31546 8.46161 4.44238V6.55777Z" fill="#667085"/>
<path d="M19.038 5.92285H13.1149C12.3957 5.92285 11.8457 6.47285 11.8457 7.19208V19.8844C11.8457 20.0959 12.0572 20.3075 12.2688 20.3075H13.9611C14.2149 20.3075 14.3842 20.1382 14.3842 19.8844V17.3459C14.3842 17.0921 14.5534 16.9229 14.8072 16.9229H17.3457C17.5995 16.9229 17.7688 17.0921 17.7688 17.3459V19.8844C17.7688 20.1382 17.938 20.3075 18.1919 20.3075H19.4611C19.9265 20.3075 20.3072 19.9267 20.3072 19.4613V7.19208C20.3072 6.47285 19.7572 5.92285 19.038 5.92285ZM15.2303 15.019C15.2303 15.1459 15.1457 15.2305 15.0188 15.2305H13.7495C13.6226 15.2305 13.538 15.1459 13.538 15.019V12.9036C13.538 12.7767 13.6226 12.6921 13.7495 12.6921H15.0188C15.1457 12.6921 15.2303 12.7767 15.2303 12.9036V15.019ZM15.2303 10.7882C15.2303 10.9152 15.1457 10.9998 15.0188 10.9998H13.7495C13.6226 10.9998 13.538 10.9152 13.538 10.7882V8.67285C13.538 8.54593 13.6226 8.46131 13.7495 8.46131H15.0188C15.1457 8.46131 15.2303 8.54593 15.2303 8.67285V10.7882ZM18.6149 15.019C18.6149 15.1459 18.5303 15.2305 18.4034 15.2305H17.1342C17.0072 15.2305 16.9226 15.1459 16.9226 15.019V12.9036C16.9226 12.7767 17.0072 12.6921 17.1342 12.6921H18.4034C18.5303 12.6921 18.6149 12.7767 18.6149 12.9036V15.019ZM18.6149 10.7882C18.6149 10.9152 18.5303 10.9998 18.4034 10.9998H17.1342C17.0072 10.9998 16.9226 10.9152 16.9226 10.7882V8.67285C16.9226 8.54593 17.0072 8.46131 17.1342 8.46131H18.4034C18.5303 8.46131 18.6149 8.54593 18.6149 8.67285V10.7882Z" fill="#667085"/>
</svg>
