<svg width="22" height="22" viewBox="0 0 22 22" fill="none" xmlns="http://www.w3.org/2000/svg">
<path fillRule="evenodd" clipRule="evenodd" d="M9.64765 14.5426C9.64765 13.2982 8.64774 12.2898 7.41375 12.2898H4.4341C3.2001 12.2898 2.2002 13.2982 2.2002 14.5426V17.5474C2.2002 18.791 3.2001 19.8002 4.4341 19.8002H7.41375C8.64774 19.8002 9.64765 18.791 9.64765 17.5474V14.5426ZM19.8002 14.5426C19.8002 13.2982 18.8003 12.2898 17.5663 12.2898H14.5866C13.3526 12.2898 12.3527 13.2982 12.3527 14.5426V17.5474C12.3527 18.791 13.3526 19.8002 14.5866 19.8002H17.5663C18.8003 19.8002 19.8002 18.791 19.8002 17.5474V14.5426ZM9.64765 4.45296C9.64765 3.20854 8.64774 2.2002 7.41375 2.2002H4.4341C3.2001 2.2002 2.2002 3.20854 2.2002 4.45296V7.45778C2.2002 8.7022 3.2001 9.71054 4.4341 9.71054H7.41375C8.64774 9.71054 9.64765 8.7022 9.64765 7.45778V4.45296ZM17.5663 2.2002H14.5866C13.3526 2.2002 12.3527 3.20854 12.3527 4.45296V7.45778C12.3527 8.7022 13.3526 9.71054 14.5866 9.71054H17.5663C18.8003 9.71054 19.8002 8.7022 19.8002 7.45778V4.45296C19.8002 3.20854 18.8003 2.2002 17.5663 2.2002Z" fill="black"/>
<path opacity="0.4" d="M14.5864 2.2002H17.5661C18.8001 2.2002 19.8 3.20854 19.8 4.45296V7.45778C19.8 8.7022 18.8001 9.71054 17.5661 9.71054H14.5864C13.3524 9.71054 12.3525 8.7022 12.3525 7.45778V4.45296C12.3525 3.20854 13.3524 2.2002 14.5864 2.2002Z" fill="white"/>
<path d="M7.41375 12.2898C8.64774 12.2898 9.64765 13.2982 9.64765 14.5426V17.5474C9.64765 18.791 8.64774 19.8002 7.41375 19.8002H4.4341C3.2001 19.8002 2.2002 18.791 2.2002 17.5474V14.5426C2.2002 13.2982 3.2001 12.2898 4.4341 12.2898H7.41375ZM17.5663 12.2898C18.8003 12.2898 19.8002 13.2982 19.8002 14.5426V17.5474C19.8002 18.791 18.8003 19.8002 17.5663 19.8002H14.5866C13.3526 19.8002 12.3527 18.791 12.3527 17.5474V14.5426C12.3527 13.2982 13.3526 12.2898 14.5866 12.2898H17.5663ZM7.41375 2.2002C8.64774 2.2002 9.64765 3.20854 9.64765 4.45296V7.45778C9.64765 8.70219 8.64774 9.71054 7.41375 9.71054H4.4341C3.2001 9.71054 2.2002 8.70219 2.2002 7.45778V4.45296C2.2002 3.20854 3.2001 2.2002 4.4341 2.2002H7.41375Z" fill="black"/>
</svg>
