<svg width="22" height="22" viewBox="0 0 22 22" fill="none" xmlns="http://www.w3.org/2000/svg">
<path fill-rule="evenodd" clip-rule="evenodd" d="M14.7078 4.4726C14.5422 3.19421 13.4584 2.2002 12.1369 2.2002H9.86361C8.54119 2.2002 7.45826 3.19421 7.29274 4.4726H5.56092C3.7076 4.4726 2.2003 5.97638 2.2003 7.8253V10.1929H2.2002C2.20023 10.1944 2.20026 10.196 2.2003 10.1976V10.8769C2.2003 10.9322 2.2072 10.9867 2.22044 11.0392C2.27384 13.0957 2.36972 15.8216 2.38509 16.1605C2.4476 16.9907 2.76544 17.8298 3.26024 18.4214C3.94874 19.2517 4.7966 19.6223 5.97903 19.6223C7.61312 19.6312 9.41449 19.6312 11.1639 19.6312C12.9204 19.6312 14.6249 19.6312 16.0644 19.6223C17.2301 19.6223 18.1044 19.242 18.7841 18.4214C19.2789 17.8298 19.5967 16.9819 19.6416 16.1605C19.6511 15.9855 19.6807 14.8076 19.7143 13.4719L19.7143 13.4713L19.7143 13.4709C19.7348 12.6599 19.7566 11.7908 19.7763 11.0527C19.792 10.9961 19.8002 10.9371 19.8002 10.8769V7.8253C19.8002 5.97638 18.2964 4.4726 16.4484 4.4726H14.7078ZM9.86361 3.52085H12.1369C12.7285 3.52085 13.2234 3.92585 13.3713 4.4726H8.62836C8.77627 3.92585 9.27108 3.52085 9.86361 3.52085Z" fill="white"/>
<path opacity="0.3" d="M2.2002 10.1929C2.24422 12.2513 2.36748 15.7722 2.38509 16.1605C2.4476 16.9907 2.76544 17.8298 3.26024 18.4214C3.94874 19.2517 4.7966 19.6223 5.97903 19.6223C7.61311 19.6311 9.41449 19.6311 11.1639 19.6311C12.9204 19.6311 14.6249 19.6311 16.0644 19.6223C17.2301 19.6223 18.1044 19.242 18.7841 18.4214C19.2789 17.8298 19.5967 16.9819 19.6416 16.1605C19.6592 15.8338 19.7473 12.0119 19.8001 10.1929H2.2002Z" fill="#667085"/>
<path d="M10.3398 13.9836V15.1229C10.3398 15.4874 10.6357 15.7832 11.0002 15.7832C11.3647 15.7832 11.6605 15.4874 11.6605 15.1229V13.9836C11.6605 13.6191 11.3647 13.3232 11.0002 13.3232C10.6357 13.3232 10.3398 13.6191 10.3398 13.9836Z" fill="#667085"/>
<path d="M12.1368 2.2002C13.4583 2.2002 14.5421 3.19421 14.7077 4.4726H16.4483C18.2963 4.4726 19.8001 5.97638 19.8001 7.8253V10.8769C19.8001 11.0988 19.6883 11.3057 19.5043 11.428C17.6888 12.6298 15.5335 13.4302 13.2726 13.7427C13.2417 13.7471 13.2118 13.7489 13.1819 13.7489C12.8834 13.7489 12.6166 13.5473 12.5418 13.2514C12.3639 12.5506 11.7274 12.0602 10.9957 12.0602C10.2544 12.0602 9.62491 12.54 9.42945 13.2549C9.34141 13.5745 9.03414 13.7788 8.70133 13.7348C6.45534 13.4213 4.30884 12.6246 2.4969 11.428C2.31113 11.3065 2.2002 11.0988 2.2002 10.8769V7.8253C2.2002 5.97638 3.7075 4.4726 5.56082 4.4726H7.29264C7.45816 3.19421 8.54109 2.2002 9.86351 2.2002H12.1368ZM12.1368 3.52085H9.86351C9.27098 3.52085 8.77617 3.92585 8.62826 4.4726H13.3712C13.2233 3.92585 12.7284 3.52085 12.1368 3.52085Z" fill="#667085"/>
</svg>
