<svg width="22" height="22" viewBox="0 0 22 22" fill="none" xmlns="http://www.w3.org/2000/svg">
<path fillRule="evenodd" clipRule="evenodd" d="M18.3937 12.3906C18.7085 12.5578 18.9513 12.8218 19.1222 13.0858C19.4549 13.6314 19.4279 14.3002 19.1042 14.8898L18.4747 15.9458C18.1419 16.509 17.5214 16.861 16.8829 16.861C16.5681 16.861 16.2174 16.773 15.9296 16.597C15.6957 16.4474 15.4259 16.3946 15.1382 16.3946C14.2478 16.3946 13.5014 17.125 13.4744 17.9962C13.4744 19.0082 12.647 19.8002 11.6128 19.8002H10.3897C9.34653 19.8002 8.51915 19.0082 8.51915 17.9962C8.50116 17.125 7.75473 16.3946 6.8644 16.3946C6.56762 16.3946 6.29783 16.4474 6.07299 16.597C5.78521 16.773 5.42548 16.861 5.11971 16.861C4.4722 16.861 3.85167 16.509 3.51892 15.9458L2.89839 14.8898C2.56564 14.3178 2.54765 13.6314 2.8804 13.0858C3.02429 12.8218 3.29409 12.5578 3.59986 12.3906C3.85167 12.2674 4.01355 12.065 4.16643 11.8274C4.61609 11.0706 4.3463 10.0762 3.58187 9.62739C2.69154 9.12579 2.40376 8.00819 2.91637 7.137L3.51892 6.09859C4.04053 5.22739 5.15569 4.9194 6.05501 5.4298C6.83742 5.8522 7.85365 5.5706 8.31231 4.8226C8.4562 4.5762 8.53714 4.3122 8.51915 4.0482C8.50116 3.705 8.60009 3.3794 8.77096 3.1154C9.10371 2.5698 9.70626 2.2178 10.3628 2.2002H11.6308C12.2963 2.2002 12.8989 2.5698 13.2316 3.1154C13.3935 3.3794 13.5014 3.705 13.4744 4.0482C13.4564 4.3122 13.5374 4.5762 13.6813 4.8226C14.1399 5.5706 15.1562 5.8522 15.9476 5.4298C16.8379 4.9194 17.962 5.22739 18.4747 6.09859L19.0772 7.137C19.5988 8.00819 19.311 9.12579 18.4117 9.62739C17.6473 10.0762 17.3775 11.0706 17.8361 11.8274C17.98 12.065 18.1419 12.2674 18.3937 12.3906Z" fill="white"/>
<path d="M11.0111 13.4906C9.59917 13.4906 8.45703 12.3906 8.45703 11.009C8.45703 9.62735 9.59917 8.51855 11.0111 8.51855C12.423 8.51855 13.5382 9.62735 13.5382 11.009C13.5382 12.3906 12.423 13.4906 11.0111 13.4906Z" fill="#1A1926"/>
<path opacity="0.25" d="M19.1222 13.0858C18.9513 12.8218 18.7085 12.5578 18.3937 12.3906C18.1419 12.2674 17.98 12.065 17.8361 11.8274C17.3775 11.0706 17.6473 10.0762 18.4117 9.62739C19.311 9.12579 19.5988 8.00819 19.0772 7.13699L18.4747 6.09859C17.962 5.22739 16.8379 4.9194 15.9476 5.4298C15.1562 5.8522 14.1399 5.5706 13.6813 4.8226C13.5374 4.5762 13.4564 4.3122 13.4744 4.0482C13.5014 3.705 13.3935 3.3794 13.2316 3.1154C12.8989 2.5698 12.2963 2.2002 11.6308 2.2002H10.3628C9.70626 2.2178 9.10371 2.5698 8.77096 3.1154C8.60009 3.3794 8.50117 3.705 8.51915 4.0482C8.53714 4.3122 8.4562 4.5762 8.31231 4.8226C7.85365 5.5706 6.83742 5.8522 6.05501 5.4298C5.15569 4.9194 4.04053 5.22739 3.51892 6.09859L2.91637 7.13699C2.40376 8.00819 2.69154 9.12579 3.58187 9.62739C4.3463 10.0762 4.61609 11.0706 4.16643 11.8274C4.01355 12.065 3.85167 12.2674 3.59986 12.3906C3.29409 12.5578 3.02429 12.8218 2.8804 13.0858C2.54765 13.6314 2.56564 14.3178 2.89839 14.8898L3.51892 15.9458C3.85167 16.509 4.4722 16.861 5.11971 16.861C5.42548 16.861 5.78521 16.773 6.07299 16.597C6.29783 16.4474 6.56762 16.3946 6.8644 16.3946C7.75473 16.3946 8.50117 17.125 8.51915 17.9962C8.51915 19.0082 9.34653 19.8002 10.3897 19.8002H11.6128C12.647 19.8002 13.4744 19.0082 13.4744 17.9962C13.5014 17.125 14.2478 16.3946 15.1382 16.3946C15.4259 16.3946 15.6957 16.4474 15.9296 16.597C16.2174 16.773 16.5681 16.861 16.8829 16.861C17.5214 16.861 18.1419 16.509 18.4747 15.9458L19.1042 14.8898C19.4279 14.3002 19.4549 13.6314 19.1222 13.0858Z" fill="#1A1926"/>
</svg>
