<svg width="22" height="22" viewBox="0 0 22 22" fill="none" xmlns="http://www.w3.org/2000/svg">
<path fill-rule="evenodd" clip-rule="evenodd" d="M12.947 7.49073C12.947 9.81724 11.0432 11.6816 8.66757 11.6816C6.29277 11.6816 4.38811 9.81724 4.38811 7.49073C4.38811 5.16422 6.29277 3.2998 8.66757 3.2998C11.0432 3.2998 12.947 5.16422 12.947 7.49073ZM2.2002 16.4271C2.2002 14.2734 5.17946 13.7346 8.66761 13.7346C12.1747 13.7346 15.135 14.292 15.135 16.4473C15.135 18.601 12.1558 19.1398 8.66761 19.1398C5.16052 19.1398 2.2002 18.5824 2.2002 16.4271ZM14.6728 7.56671C14.6728 8.75146 14.3094 9.85696 13.6722 10.7752C13.6059 10.8697 13.6645 10.997 13.7798 11.0173C13.94 11.0434 14.1045 11.0594 14.2724 11.0628C15.9428 11.1058 17.4419 10.0526 17.8561 8.46645C18.47 6.11295 16.6687 3.99978 14.374 3.99978C14.1251 3.99978 13.8866 4.02508 13.6541 4.07146C13.6223 4.07821 13.5878 4.09338 13.5706 4.12037C13.5482 4.15494 13.5646 4.19963 13.587 4.22915C14.2767 5.17611 14.6728 6.32882 14.6728 7.56671ZM17.4394 12.7178C18.5622 12.9329 19.3001 13.3705 19.6058 14.0088C19.865 14.5316 19.865 15.1388 19.6058 15.6616C19.1382 16.6499 17.6297 16.9678 17.0433 17.0496C16.9219 17.0664 16.8246 16.9652 16.8375 16.8455C17.1371 14.1067 14.7546 12.8081 14.1381 12.5095C14.1122 12.4952 14.1062 12.475 14.1088 12.4615C14.1105 12.453 14.1217 12.4396 14.1415 12.437C15.4753 12.4117 16.9098 12.5913 17.4394 12.7178Z" fill="white"/>
<path d="M8.66761 13.7349C5.17946 13.7349 2.2002 14.2737 2.2002 16.4273C2.2002 18.5827 5.16052 19.1401 8.66761 19.1401C12.1558 19.1401 15.135 18.6012 15.135 16.4476C15.135 14.2922 12.1747 13.7349 8.66761 13.7349Z" fill="#667085"/>
<path opacity="0.3" d="M8.66716 11.6816C11.0428 11.6816 12.9466 9.81724 12.9466 7.49073C12.9466 5.16422 11.0428 3.2998 8.66716 3.2998C6.29236 3.2998 4.3877 5.16422 4.3877 7.49073C4.3877 9.81724 6.29236 11.6816 8.66716 11.6816Z" fill="#667085"/>
<path opacity="0.3" d="M14.6724 7.56692C14.6724 8.75168 14.309 9.85717 13.6719 10.7755C13.6056 10.8699 13.6641 10.9972 13.7795 11.0175C13.9396 11.0436 14.1041 11.0596 14.272 11.063C15.9425 11.106 17.4416 10.0528 17.8557 8.46666C18.4697 6.11317 16.6683 4 14.3736 4C14.1248 4 13.8863 4.0253 13.6538 4.07168C13.6219 4.07842 13.5875 4.0936 13.5703 4.12058C13.5479 4.15516 13.5642 4.19985 13.5866 4.22936C14.2763 5.17633 14.6724 6.32904 14.6724 7.56692Z" fill="#667085"/>
<path d="M19.6059 14.0093C19.3003 13.3709 18.5623 12.9333 17.4395 12.7183C16.91 12.5918 15.4754 12.4122 14.1417 12.4375C14.1219 12.44 14.1107 12.4535 14.1089 12.4619C14.1064 12.4754 14.1124 12.4956 14.1382 12.51C14.7547 12.8085 17.1373 14.1071 16.8376 16.8459C16.8247 16.9657 16.922 17.0669 17.0434 17.05C17.6298 16.9682 19.1384 16.6503 19.6059 15.662C19.8651 15.1392 19.8651 14.5321 19.6059 14.0093Z" fill="#667085"/>
</svg>
